<svg width="34" height="34" viewBox="0 0 34 34" fill="none" xmlns="http://www.w3.org/2000/svg">
<path d="M16.7966 33.5931C26.0071 33.5931 33.6094 25.9908 33.6094 16.7966C33.6094 7.60231 25.9908 0 16.7803 0C7.58607 0 0 7.60231 0 16.7966C0 25.9908 7.60231 33.5931 16.7966 33.5931ZM16.7966 8.12213C17.69 8.12213 18.3398 8.73941 18.3398 9.6166V17.5276L18.1773 21.0038L19.7043 19.087L21.5561 17.1377C21.816 16.8615 22.1897 16.6991 22.5958 16.6991C23.408 16.6991 24.009 17.2839 24.009 18.0799C24.009 18.5022 23.8791 18.8109 23.5867 19.1195L18.0311 24.7725C17.6575 25.1461 17.2839 25.341 16.7966 25.341C16.3417 25.341 15.9681 25.1624 15.5945 24.7725L10.0065 19.1195C9.73031 18.8109 9.60036 18.5022 9.60036 18.0799C9.60036 17.2839 10.2014 16.6991 11.0136 16.6991C11.4197 16.6991 11.7933 16.8615 12.0532 17.1377L13.9213 19.1033L15.432 20.9876L15.2696 17.5276V9.6166C15.2696 8.73941 15.9194 8.12213 16.7966 8.12213Z" fill="#3304F7"/>
</svg>
