<svg width="498" height="523" viewBox="0 0 498 523" fill="none" xmlns="http://www.w3.org/2000/svg">
<g clip-path="url(#clip0_281_167)">
<path d="M206.432 99.8777C205.835 100.902 204.808 101.678 203.536 101.885C201.29 102.266 199.162 100.748 198.78 98.5003L194.142 70.9684C193.761 68.7205 195.276 66.5914 197.523 66.2102C199.769 65.829 201.897 67.3469 202.279 69.5948L206.916 97.1268C207.079 98.1057 206.89 99.0661 206.428 99.8654L206.432 99.8777Z" fill="#3304F7"/>
<path d="M207.746 114.689C207.107 114.873 206.445 115.024 205.773 115.138C201.151 115.911 196.502 114.84 192.682 112.118C188.863 109.396 186.324 105.346 185.549 100.72L180.911 73.1878C180.137 68.562 181.205 63.9109 183.923 60.0896C186.642 56.2683 190.688 53.7293 195.311 52.956C204.857 51.349 213.925 57.8203 215.535 67.3743L220.172 94.9063C220.85 98.9205 220.106 103.079 218.072 106.596C215.781 110.56 212.085 113.438 207.746 114.689Z" fill="#FFFDD7"/>
<path d="M227.249 106.076C226.062 107.084 224.35 107.378 222.844 106.68C220.77 105.719 219.878 103.272 220.837 101.197L232.554 75.8637C233.505 73.8045 235.959 72.8971 238.033 73.8577C240.107 74.8184 240.999 77.2656 240.04 79.3407L228.323 104.674C228.061 105.243 227.689 105.709 227.253 106.088L227.249 106.076Z" fill="#3304F7"/>
<path d="M229.463 119.796C225.469 120.948 221.103 120.674 217.202 118.869C212.946 116.898 209.71 113.382 208.092 108.972C206.474 104.563 206.673 99.8031 208.64 95.5456L220.357 70.2122C222.324 65.9547 225.824 62.7207 230.23 61.104C234.635 59.4872 239.392 59.6877 243.647 61.658C247.903 63.6283 251.14 67.1446 252.757 71.5541C254.375 75.9636 254.18 80.7358 252.213 84.9933L240.496 110.327C239.422 112.648 237.89 114.675 235.931 116.332C234.019 117.963 231.801 119.135 229.454 119.812L229.463 119.796Z" fill="#FFFDD7"/>
<path d="M332.544 131.025C332.469 131.087 332.406 131.145 332.327 131.194L309.906 147.797C308.074 149.152 305.486 148.765 304.132 146.931C302.778 145.097 303.163 142.508 304.995 141.153L327.416 124.55C329.249 123.196 331.836 123.582 333.19 125.417C334.495 127.172 334.189 129.618 332.553 131.009L332.544 131.025Z" fill="#3304F7"/>
<path d="M312.309 161.383C309.924 162.07 307.391 162.241 304.86 161.865C300.229 161.175 296.123 158.709 293.346 154.94C290.553 151.163 289.402 146.525 290.098 141.875C290.797 137.237 293.252 133.146 297.025 130.352L319.434 113.753C323.195 110.963 327.825 109.801 332.472 110.5C337.12 111.198 341.209 113.656 344.002 117.433C349.477 124.833 348.277 135.304 341.252 141.273L341.228 141.28C340.942 141.536 340.637 141.77 340.32 142.009L317.911 158.608C316.2 159.874 314.312 160.805 312.321 161.379L312.309 161.383ZM313 151.964L312.976 151.971C312.976 151.971 312.988 151.968 313 151.964Z" fill="#FFFDD7"/>
<path d="M344.177 172.698C343.59 173.2 342.839 173.55 342.014 173.641L314.324 177.003C312.062 177.282 310.01 175.662 309.73 173.398C309.45 171.134 311.068 169.082 313.33 168.803L341.02 165.441C343.283 165.162 345.334 166.782 345.614 169.046C345.786 170.475 345.205 171.828 344.19 172.694L344.177 172.698Z" fill="#3304F7"/>
<path d="M346.394 186.419C345.497 186.678 344.578 186.862 343.642 186.986L315.94 190.351C311.286 190.92 306.695 189.633 302.999 186.742C299.304 183.85 296.959 179.69 296.388 175.032C295.218 165.432 302.061 156.664 311.675 155.477L339.377 152.112C344.032 151.543 348.623 152.83 352.318 155.722C356.014 158.613 358.358 162.773 358.917 167.434C359.64 173.314 357.359 179.114 352.847 182.946C350.943 184.561 348.741 185.742 346.369 186.426L346.394 186.419Z" fill="#FFFDD7"/>
<path d="M78.9342 201.065C78.2295 201.668 77.3203 202.024 76.3277 202.044L48.4314 202.427C46.151 202.458 44.282 200.639 44.2496 198.357C44.2172 196.075 46.0343 194.206 48.3147 194.174L76.211 193.791C78.4914 193.759 80.3604 195.579 80.3928 197.861C80.4173 199.146 79.844 200.297 78.9342 201.065Z" fill="#3304F7"/>
<path d="M81.1225 214.793C79.6355 215.222 78.0795 215.457 76.5158 215.482L48.6196 215.865C43.9251 215.927 39.5034 214.164 36.1354 210.886C32.7709 207.619 30.8899 203.219 30.8178 198.537C30.6867 188.85 38.449 180.87 48.126 180.73L76.0223 180.347C80.7168 180.286 85.1385 182.048 88.5065 185.327C91.8709 188.593 93.752 192.993 93.8241 197.675C93.8925 202.944 91.6374 207.911 87.6405 211.315C85.7367 212.93 83.5225 214.114 81.1507 214.798L81.1225 214.793Z" fill="#FFFDD7"/>
<path d="M83.268 226.94C82.9055 227.391 82.4409 227.765 81.8829 228.045L56.8557 240.364C54.815 241.366 52.3355 240.522 51.3338 238.479C50.3322 236.437 51.1743 233.956 53.215 232.954L78.2422 220.636C80.2829 219.634 82.7624 220.478 83.764 222.521C84.5006 224.013 84.2487 225.725 83.268 226.94Z" fill="#3304F7"/>
<path d="M59.8964 253.539C51.8836 255.849 43.096 252.148 39.2787 244.403C35.0143 235.707 38.6023 225.161 47.274 220.889L72.3134 208.566C76.5229 206.5 81.28 206.194 85.7203 207.698C90.1642 209.214 93.748 212.364 95.8148 216.577C98.8161 222.693 98.001 230.069 93.7158 235.381C92.1082 237.376 90.1164 238.963 87.8195 240.092L62.7924 252.41C61.8466 252.87 60.876 253.243 59.9051 253.523L59.8964 253.539Z" fill="#FFFDD7"/>
<path d="M90.298 333.498C88.6501 334.892 86.1971 334.787 84.6661 333.217C83.077 331.583 83.1228 328.972 84.7544 327.383L104.776 307.954C106.408 306.365 109.017 306.412 110.606 308.045C112.195 309.678 112.15 312.289 110.518 313.879L90.496 333.307C90.4329 333.366 90.3611 333.44 90.298 333.498Z" fill="#3304F7"/>
<path d="M92.5294 347.2C86.4707 348.947 79.6617 347.354 75.0194 342.564C71.7601 339.201 69.9984 334.753 70.0685 330.056C70.1387 325.36 72.0334 320.99 75.4017 317.714L95.4237 298.286C98.7709 295.029 103.203 293.272 107.896 293.344C112.589 293.416 116.969 295.311 120.244 298.683C123.503 302.046 125.265 306.494 125.191 311.178C125.121 315.874 123.23 320.256 119.858 323.52L99.8359 342.949C99.5994 343.19 99.2926 343.465 98.9823 343.728L98.97 343.731C97.0365 345.381 94.8275 346.538 92.5294 347.2ZM114.141 317.588L114.116 317.595C114.116 317.595 114.116 317.595 114.141 317.588ZM81.1556 323.636C81.1556 323.636 81.1136 323.674 81.0925 323.694L81.1556 323.636Z" fill="#FFFDD7"/>
<path d="M125.196 353.925C124.169 354.794 122.753 355.149 121.37 354.735C119.189 354.098 117.927 351.798 118.575 349.613L126.408 322.815C127.044 320.633 129.342 319.371 131.526 320.02C133.707 320.657 134.969 322.957 134.321 325.143L126.487 351.941C126.252 352.741 125.795 353.419 125.196 353.925Z" fill="#3304F7"/>
<path d="M127.377 367.675C124.231 368.582 120.842 368.6 117.585 367.647C113.081 366.335 109.365 363.33 107.116 359.222C104.863 355.102 104.348 350.362 105.658 345.854L113.491 319.056C116.215 309.758 125.975 304.413 135.267 307.142C139.76 308.458 143.484 311.447 145.737 315.567C147.989 319.687 148.505 324.427 147.195 328.935L139.361 355.733C138.397 359.035 136.496 361.955 133.879 364.188C131.942 365.826 129.728 367.01 127.381 367.687L127.377 367.675Z" fill="#FFFDD7"/>
<path d="M424.839 276.042C393.654 266.45 364.537 252.584 336.599 235.741C321.613 226.7 312.295 213.959 307.203 197.962C304.016 187.97 302.793 177.359 300.259 167.139C298.556 160.263 297.257 152.897 293.759 146.951C288.281 137.647 280.646 137.437 272.273 144.314C268.528 147.392 266.363 151.054 266.539 155.773C266.791 162.88 267.453 169.977 267.932 177.086C267.989 177.19 268.057 177.29 268.123 177.377L265.253 177.166C250.095 158.849 234.37 141.015 222.15 120.425C215.931 109.936 205.886 109.355 197.538 118.21C196.844 118.943 195.906 119.706 195.675 120.612C194.739 124.199 192.852 122.918 190.499 122.145C178.928 118.3 171.504 123.345 170.53 135.523L162.415 143.711L162.429 143.76C155.362 150.274 155.478 156.862 162.206 167.178L217.862 211.733C228.435 224.671 238.802 237.775 249.639 250.477C258.95 261.394 265.416 273.984 272.562 286.258C280.853 300.467 284.619 316.3 290.638 331.311C316.985 343.098 344.37 346.525 372.832 341.782C402.298 336.87 426.699 323.119 445.717 300.024C450.39 294.347 450.131 292.25 445.497 286.658C440.091 280.144 432.268 278.31 424.848 276.027L424.839 276.042Z" fill="#FFFDD7"/>
<path d="M391.356 351.36C386.084 352.88 380.646 354.101 375.045 355.037C343.978 360.211 313.744 356.366 285.167 343.584L280.201 341.366L278.172 336.315C276.045 331.014 274.217 325.692 272.436 320.53C269.037 310.68 265.83 301.36 260.964 293.024C259.602 290.699 258.273 288.352 256.931 286.007C251.401 276.291 246.169 267.102 239.415 259.191C231.734 250.189 224.227 240.91 216.966 231.932C214.107 228.387 211.239 224.858 208.359 221.332L152.131 176.316L150.958 174.51C141.974 160.714 141.347 148.611 149.096 138.464L149.099 138.103L157.888 129.161C159.915 119.571 164.979 114.327 169.181 111.543C173.25 108.851 179.734 106.316 188.82 107.866C195.754 101.03 204.096 97.7855 212.443 98.7095C221.023 99.6593 228.572 104.93 233.678 113.542C240.079 124.339 247.501 134.336 255.475 144.266C257.086 140.804 259.665 137.236 263.723 133.908C273.366 125.985 281.784 125.45 287.17 126.401C292.302 127.306 299.62 130.432 305.31 140.101C309.254 146.811 310.969 154.097 312.476 160.523C312.737 161.66 313.007 162.781 313.274 163.89C314.357 168.294 315.203 172.659 316.023 176.886C317.186 182.905 318.294 188.594 319.973 193.865C324.316 207.494 331.796 217.14 343.511 224.207C372.548 241.719 400.426 254.477 428.757 263.173C429.429 263.379 430.113 263.582 430.797 263.784C438.608 266.128 448.314 269.045 455.796 278.051C464.605 288.66 464.695 298.066 456.058 308.55C438.747 329.582 417.018 343.92 391.333 351.326L391.356 351.36ZM301.149 321.177C323.537 330.176 346.316 332.587 370.625 328.535C396.344 324.249 416.934 312.837 433.487 293.703C431.198 292.045 427.829 290.978 423.106 289.555C422.362 289.33 421.635 289.114 420.903 288.885C390.449 279.522 360.606 265.905 329.678 247.233C312.546 236.892 300.682 221.689 294.412 202.021C293.411 198.873 292.592 195.712 291.869 192.603L258.556 190.125L254.902 185.717C252.718 183.083 250.538 180.461 248.345 177.842C235.191 162.092 221.593 145.816 210.585 127.262C210.12 126.477 209.707 125.969 209.404 125.657C208.981 125.899 208.343 126.363 207.558 127.149C205.692 131.297 202.824 133.536 200.548 134.738C194.476 137.915 188.844 135.835 186.727 135.047C186.576 134.984 186.412 134.924 186.252 134.877C185.398 134.591 184.731 134.45 184.257 134.374C184.123 134.879 183.984 135.598 183.911 136.591L183.513 141.489L175.719 149.358L175.716 149.719L171.515 153.661C171.116 154.029 170.853 154.318 170.671 154.517C170.837 155.096 171.276 156.248 172.381 158.141L227.347 202.148L228.249 203.247C231.457 207.171 234.644 211.115 237.831 215.059C244.988 223.906 252.391 233.055 259.845 241.777C268.248 251.623 274.352 262.36 280.269 272.723C281.561 274.989 282.853 277.254 284.166 279.5C290.36 290.13 294.161 301.144 297.828 311.784C298.947 315.018 300.018 318.133 301.136 321.181L301.149 321.177ZM281.112 172.884L291.241 189.733C290.691 187.134 290.186 184.549 289.691 182.001C288.901 177.925 288.151 174.078 287.231 170.333C286.933 169.114 286.647 167.891 286.357 166.655C285.181 161.652 284.07 156.923 282.208 153.743C282.201 153.719 282.182 153.698 282.162 153.677C281.784 153.933 281.345 154.259 280.826 154.675C280.386 155.042 280.12 155.318 279.992 155.475C280.166 160.141 280.516 164.769 280.887 169.658C280.972 170.739 281.054 171.808 281.128 172.893L281.112 172.884Z" fill="#FFFDD7"/>
<path d="M210.978 204.569C210.527 204.02 210.092 203.479 209.64 202.93C208.285 201.415 206.934 199.913 205.591 198.396C196.326 189.716 187.27 180.791 177.695 172.467C173.501 168.814 168.631 165.223 162.224 167.19C159.941 168.275 157.658 169.359 155.387 170.44L151.95 170.432C140.7 158.928 135.404 158.843 123.892 170.023C122.935 170.952 122.25 172.175 121.432 173.263L117.967 175.235C110.423 171.922 105.708 176.758 101.683 181.636C97.9018 186.203 98.4826 191.218 102.474 195.596L100.299 198.394C87.9699 202.909 84.9635 212.102 92.6655 221.871C94.5747 224.291 96.6295 226.616 98.7228 228.89C111.024 242.236 123.359 255.518 135.618 268.903C137.211 270.642 138.392 272.753 139.75 274.692C137.513 274.458 135.258 274.256 133.031 273.965C129.966 273.583 126.925 273.101 123.856 272.707C118.935 272.075 115.015 273.898 112.496 278.088C109.643 282.827 108.988 288.172 112.52 292.575C115.425 296.187 119.139 299.833 123.299 301.657C141.645 309.703 157.314 321.757 173.043 333.742C175.928 335.947 178.737 339.041 180.104 342.35C192.956 373.349 204.413 404.776 208.67 438.373C209.831 447.523 210.971 456.787 213.477 465.616C217.208 478.741 224.746 480.924 235.572 472.767C241.599 468.232 247.536 463.522 253.064 458.411C282.125 431.554 293.327 397.416 292.731 358.741C292.585 349.604 291.366 340.483 290.638 331.354C284.619 316.344 280.852 300.511 272.562 286.302C265.403 274.031 258.95 261.437 249.639 250.52C238.802 237.818 228.431 224.702 217.862 211.776C215.563 209.389 213.264 207.001 210.964 204.613L210.978 204.569Z" fill="#FFFDD7"/>
<path d="M231.271 489.99C226.491 491.369 221.87 491.316 217.445 489.82C209.351 487.092 203.67 480.177 200.557 469.244C197.839 459.677 196.624 450.062 195.445 440.757L195.35 440.012C191.199 407.29 179.607 376.182 167.699 347.442C167.523 347.013 166.574 345.662 164.901 344.385L163.963 343.67C148.764 332.093 134.418 321.162 117.901 313.921C112.325 311.479 106.993 307.115 102.046 300.947C95.2351 292.467 94.8401 281.31 100.989 271.104C103.473 266.978 106.861 263.816 110.823 261.768C108.174 258.908 105.522 256.035 102.886 253.172C98.203 248.101 93.5231 243.042 88.8519 237.968C86.956 235.917 84.4854 233.165 82.1143 230.159C75.7873 222.111 73.5866 213.141 75.9279 204.872C77.4789 199.402 80.903 194.658 85.8672 190.962C85.0303 184.782 86.8462 178.477 91.3349 173.039C94.2264 169.541 97.5377 165.975 102.161 163.496C105.989 161.446 110.047 160.516 114.185 160.695C114.299 160.582 114.413 160.47 114.539 160.353C129.314 145.995 141.607 144.355 155.504 155.482L157.366 154.599L158.312 154.326C172.406 150.023 182.657 158.937 186.515 162.301C193.552 168.425 200.318 174.853 206.865 181.079C209.491 183.586 212.13 186.089 214.774 188.564L215.602 189.404L221.044 195.628L228.26 203.206C231.468 207.13 234.655 211.074 237.842 215.018C244.999 223.865 252.403 233.014 259.856 241.736C268.259 251.582 274.363 262.319 280.28 272.682C281.572 274.948 282.864 277.213 284.177 279.459C290.371 290.089 294.172 301.103 297.839 311.742C299.579 316.809 301.238 321.593 303.111 326.289L303.872 328.188L304.036 330.232C304.257 333.032 304.532 335.831 304.806 338.629C305.431 345.044 306.067 351.681 306.178 358.483C306.872 403.685 292.08 440.603 262.198 468.217C255.69 474.223 248.88 479.504 243.676 483.429C239.445 486.621 235.308 488.8 231.289 489.958L231.271 489.99ZM124.982 286.407C126.955 288.45 128.259 289.139 128.685 289.323C148.129 297.851 164.454 310.29 180.234 322.313L181.172 323.028C184.16 325.31 189.609 330.174 192.509 337.184C205.127 367.651 217.438 400.79 221.991 436.66L222.086 437.405C223.193 446.092 224.23 454.305 226.385 461.917C226.459 462.176 226.527 462.409 226.594 462.643C226.873 462.456 227.157 462.241 227.474 462.003C232.186 458.446 238.314 453.708 243.935 448.504C268.31 425.982 279.865 396.672 279.28 358.912C279.189 353.196 278.633 347.389 278.03 341.234C277.811 338.953 277.596 336.683 277.393 334.41C275.584 329.75 273.969 325.073 272.409 320.54C269.009 310.69 265.803 301.37 260.937 293.034C259.574 290.709 258.245 288.362 256.904 286.017C251.373 276.301 246.141 267.112 239.388 259.201C231.707 250.199 224.2 240.92 216.939 231.942C213.895 228.171 210.841 224.415 207.776 220.663L200.524 213.055L199.387 211.651L195.946 207.794C193.392 205.4 190.859 202.986 188.326 200.573C181.997 194.551 175.438 188.329 168.859 182.592C167.346 181.27 166.438 180.613 165.904 180.287L158.378 183.869L146.271 183.843L142.33 179.824C140.119 177.557 138.675 176.335 137.795 175.683C136.944 176.288 135.58 177.374 133.519 179.367C133.425 179.501 133.334 179.647 133.227 179.784C132.882 180.296 132.525 180.812 132.161 181.304L130.478 183.547L118.715 190.256L113.824 188.11C113.824 188.11 113.811 188.113 113.803 188.129L119.975 194.902L108.49 209.684L104.878 211.006C103.674 211.446 102.818 211.893 102.265 212.239C102.47 212.579 102.756 213.016 103.175 213.548C104.965 215.83 106.994 218.069 108.561 219.762C113.229 224.824 117.896 229.886 122.573 234.933C130.218 243.213 137.872 251.477 145.488 259.792C147.31 261.771 148.636 263.787 149.691 265.414C150.023 265.918 150.355 266.422 150.695 266.91L167.821 291.174L136.292 287.822C134.631 287.648 132.974 287.487 131.315 287.272C129.656 287.058 128.005 286.828 126.351 286.585C125.893 286.518 125.422 286.454 124.963 286.386L124.982 286.407Z" fill="#FFFDD7"/>
<path d="M424.839 276.042C393.654 266.45 364.537 252.584 336.599 235.741C321.613 226.7 312.295 213.959 307.203 197.962C304.016 187.97 302.793 177.359 300.259 167.139C298.556 160.263 297.257 152.897 293.759 146.951C288.281 137.647 280.646 137.437 272.273 144.314C268.528 147.392 266.363 151.054 266.539 155.773C266.791 162.88 267.453 169.977 267.932 177.086C267.989 177.19 268.057 177.29 268.123 177.377L265.253 177.166C250.095 158.849 234.37 141.015 222.15 120.425C215.931 109.936 205.886 109.355 197.538 118.21C196.844 118.943 195.906 119.706 195.675 120.612C194.739 124.199 192.852 122.918 190.499 122.145C178.928 118.3 171.504 123.345 170.53 135.523L162.415 143.711L162.429 143.76C155.362 150.274 155.478 156.862 162.206 167.178L217.862 211.733C228.435 224.671 238.802 237.775 249.639 250.477C258.95 261.394 265.416 273.984 272.562 286.258C280.853 300.467 284.619 316.3 290.638 331.311C316.985 343.098 344.37 346.525 372.832 341.782C402.298 336.87 426.699 323.119 445.717 300.024C450.39 294.347 450.131 292.25 445.497 286.658C440.091 280.144 432.268 278.31 424.848 276.027L424.839 276.042Z" fill="#A1DB04"/>
<path d="M275.296 221.176C275.222 221.197 275.136 221.222 275.062 221.243C273.032 221.682 271.024 220.396 270.572 218.368L261.751 178.174C261.312 176.142 262.609 174.13 264.623 173.682C266.653 173.243 268.661 174.53 269.112 176.557L277.933 216.752C278.364 218.706 277.188 220.63 275.308 221.172L275.296 221.176Z" fill="#3304F7"/>
<path d="M242.799 203.067C241.46 203.453 239.969 203.083 238.97 201.973C204.501 164.005 189.574 127.703 188.961 126.175C188.177 124.242 189.104 122.057 191.035 121.273C192.953 120.494 195.15 121.419 195.946 123.348C196.089 123.706 211.04 160.001 244.552 196.913C245.955 198.453 245.842 200.83 244.303 202.233C243.861 202.641 243.352 202.907 242.811 203.063L242.799 203.067Z" fill="#3304F7"/>
<path d="M218.925 215.356C217.512 215.764 215.947 215.323 214.96 214.115C195.066 189.623 166.892 141.541 165.696 139.515C164.644 137.713 165.244 135.408 167.044 134.356C168.843 133.305 171.147 133.906 172.199 135.708C172.486 136.198 201.281 185.327 220.805 209.366C222.111 210.987 221.873 213.347 220.257 214.666C219.847 214.997 219.396 215.234 218.929 215.369L218.925 215.356Z" fill="#3304F7"/>
<path d="M210.978 204.561C210.527 204.012 210.092 203.471 209.64 202.922C208.285 201.408 206.934 199.906 205.591 198.388C196.326 189.709 187.27 180.783 177.695 172.46C173.501 168.807 168.631 165.215 162.224 167.182C159.941 168.267 157.658 169.351 155.387 170.433L151.95 170.424C140.7 158.921 135.404 158.836 123.892 170.015C122.935 170.944 122.25 172.167 121.432 173.256L117.967 175.227C110.423 171.914 105.708 176.751 101.683 181.628C97.9018 186.195 98.4826 191.21 102.474 195.588L100.299 198.387C87.9699 202.901 84.9635 212.094 92.6655 221.863C94.5747 224.284 96.6295 226.609 98.7228 228.883C111.024 242.228 123.359 255.511 135.618 268.895C137.211 270.634 138.392 272.745 139.75 274.685C137.513 274.45 135.258 274.248 133.031 273.957C129.966 273.576 126.925 273.094 123.856 272.699C118.935 272.067 115.015 273.89 112.496 278.08C109.643 282.819 108.988 288.164 112.52 292.568C115.425 296.18 119.139 299.825 123.299 301.649C141.645 309.695 157.314 321.75 173.043 333.734C175.928 335.939 178.737 339.033 180.104 342.342C192.956 373.341 204.413 404.768 208.67 438.365C209.831 447.516 210.971 456.779 213.477 465.608C217.208 478.734 224.746 480.917 235.572 472.759C241.599 468.224 247.536 463.514 253.064 458.403C282.125 431.546 293.327 397.409 292.731 358.733C292.585 349.596 291.366 340.475 290.638 331.347C284.619 316.336 280.852 300.503 272.562 286.294C265.403 274.023 258.95 261.43 249.639 250.512C238.802 237.811 228.431 224.694 217.862 211.769C215.563 209.381 213.264 206.993 210.964 204.605L210.978 204.561Z" fill="#6DB200"/>
<path d="M164.989 311.72C163.416 312.173 161.668 311.558 160.752 310.09C146.822 287.769 140.183 281.69 140.113 281.63C138.57 280.25 138.429 277.866 139.807 276.323C141.182 274.767 143.536 274.622 145.1 275.983C145.389 276.246 152.428 282.516 167.153 306.113C168.259 307.873 167.719 310.2 165.961 311.306C165.658 311.5 165.337 311.633 165.005 311.728L164.989 311.72Z" fill="#3304F7"/>
<path d="M165.637 274.02C164.297 274.406 162.791 274.028 161.795 272.929C161.466 272.572 128.827 236.381 116.213 221.487C103.529 206.533 101.097 201.746 100.862 201.254C99.9746 199.378 100.763 197.126 102.649 196.236C104.511 195.352 106.746 196.133 107.651 197.977C107.794 198.243 110.17 202.7 121.958 216.62C134.503 231.414 167.064 267.52 167.393 267.878C168.784 269.422 168.658 271.803 167.119 273.206C166.674 273.601 166.169 273.88 165.64 274.032L165.637 274.02Z" fill="#3304F7"/>
<path d="M182.23 254.621C180.89 255.007 179.383 254.629 178.388 253.53C178.058 253.172 145.42 216.981 132.806 202.087C125.583 193.566 120.764 187.148 118.508 183.016C117.664 181.474 115.415 177.367 118.271 174.945C119.864 173.593 122.24 173.8 123.576 175.387C124.241 176.168 124.521 177.139 124.462 178.089C124.908 179.266 127.211 183.837 138.551 197.22C151.096 212.014 183.657 248.121 183.986 248.479C185.377 250.023 185.251 252.404 183.712 253.807C183.267 254.202 182.762 254.48 182.233 254.633L182.23 254.621ZM123.338 180.518C123.275 180.576 123.212 180.634 123.137 180.696C123.2 180.638 123.275 180.576 123.338 180.518Z" fill="#3304F7"/>
<path d="M210.539 259.408C209.199 259.794 207.693 259.416 206.697 258.317C206.367 257.959 173.729 221.769 161.115 206.875C151.053 195.015 146.599 184.829 147.865 176.617C148.853 170.257 152.927 167.537 153.388 167.244C155.146 166.138 157.472 166.68 158.578 168.439C159.665 170.177 159.167 172.466 157.466 173.582C157.299 173.697 155.66 174.982 155.279 178.049C154.86 181.394 155.818 188.965 166.86 202.007C179.405 216.801 211.966 252.908 212.299 253.278C213.689 254.822 213.564 257.203 212.025 258.606C211.58 259.001 211.074 259.28 210.546 259.432L210.539 259.408Z" fill="#3304F7"/>
<path d="M205.054 100.879C204.604 101.209 204.072 101.442 203.473 101.535C201.415 101.875 199.487 100.5 199.134 98.4432L194.496 70.9112C194.155 68.8514 195.538 66.9072 197.584 66.5704C199.642 66.2301 201.57 67.606 201.923 69.6623L206.561 97.1943C206.809 98.6548 206.177 100.063 205.054 100.879Z" fill="#3304F7"/>
<path d="M225.623 106.552C224.788 106.792 223.855 106.742 222.996 106.35C221.109 105.482 220.289 103.24 221.156 101.352L232.873 76.0184C233.751 74.1264 235.979 73.3109 237.866 74.1788C239.754 75.0467 240.573 77.2883 239.707 79.1768L227.99 104.51C227.515 105.54 226.631 106.261 225.611 106.555L225.623 106.552Z" fill="#3304F7"/>
<path d="M308.497 148.108C307.035 148.529 305.387 148.032 304.425 146.724C303.185 145.056 303.541 142.689 305.207 141.449L327.627 124.846C329.293 123.607 331.659 123.964 332.899 125.631C334.138 127.299 333.782 129.666 332.117 130.906L309.696 147.509C309.324 147.789 308.915 147.987 308.497 148.108Z" fill="#3304F7"/>
<path d="M342.558 173.164C342.361 173.221 342.173 173.262 341.966 173.282L314.276 176.643C312.205 176.894 310.33 175.423 310.082 173.363C309.831 171.29 311.312 169.411 313.359 169.168L341.048 165.806C343.119 165.555 344.994 167.026 345.242 169.086C345.474 170.951 344.303 172.661 342.558 173.164Z" fill="#3304F7"/>
<path d="M77.3069 201.531C76.9874 201.623 76.6572 201.678 76.3128 201.684L48.4166 202.068C46.3347 202.095 44.6295 200.428 44.6012 198.345C44.5728 196.262 46.2374 194.556 48.3194 194.529L76.2156 194.145C78.2975 194.118 80.0027 195.784 80.031 197.868C80.0532 199.606 78.9081 201.082 77.3104 201.543L77.3069 201.531Z" fill="#3304F7"/>
<path d="M81.77 227.696C81.77 227.696 81.7455 227.703 81.7332 227.707L56.706 240.026C54.8426 240.949 52.5828 240.175 51.6713 238.307C50.7633 236.45 51.5146 234.209 53.3499 233.28C53.3622 233.276 53.3745 233.273 53.3868 233.269L78.4139 220.95C80.2774 220.027 82.5372 220.801 83.4487 222.669C84.3567 224.526 83.6054 226.767 81.77 227.696Z" fill="#3304F7"/>
<path d="M88.6762 333.965C87.3858 334.337 85.9301 333.997 84.9276 332.967C83.483 331.466 83.5153 329.085 85.0032 327.643L105.025 308.215C106.525 306.77 108.904 306.803 110.349 308.305C111.794 309.807 111.761 312.188 110.274 313.629L90.2515 333.058C89.7924 333.496 89.245 333.814 88.6797 333.977L88.6762 333.965Z" fill="#3304F7"/>
<path d="M123.566 354.41C122.902 354.602 122.185 354.609 121.473 354.401C119.481 353.816 118.332 351.723 118.915 349.73L126.749 322.932C127.332 320.938 129.423 319.789 131.415 320.374C133.408 320.958 134.557 323.051 133.974 325.045L126.14 351.843C125.764 353.124 124.77 354.063 123.566 354.41Z" fill="#3304F7"/>
</g>
<defs>
<clipPath id="clip0_281_167">
<rect width="394" height="430" fill="white" transform="translate(0 109.156) rotate(-16.0845)"/>
</clipPath>
</defs>
</svg>
