<svg width="56" height="56" viewBox="0 0 56 56" fill="none" xmlns="http://www.w3.org/2000/svg">
<rect x="8.97656" y="5.125" width="37.1439" height="44.8406" fill="#FC2E02"/>
<path d="M9.69726 55.0887H45.3914C51.7875 55.0887 55.0887 51.7875 55.0887 45.4798V9.60883C55.0887 3.30119 51.7875 0 45.3914 0H9.69726C3.33067 0 0 3.27172 0 9.60883V45.4798C0 51.7875 3.33067 55.0887 9.69726 55.0887ZM27.677 8.69511C28.4728 8.69511 29.0918 9.01933 29.7402 9.69726L38.1995 18.186C38.6711 18.6576 38.9069 19.2766 38.9069 19.9545C38.9069 21.3104 37.8753 22.3125 36.49 22.3125C35.7236 22.3125 35.1341 21.9588 34.6625 21.4872L32.8056 19.6008L30.0055 16.1817L30.3002 22.342V32.6582L30.0055 38.8185L32.8056 35.3994L34.6625 33.513C35.1341 33.0414 35.7236 32.6877 36.49 32.6877C37.8753 32.6877 38.9069 33.6899 38.9069 35.0457C38.9069 35.7236 38.6711 36.3426 38.1995 36.8142L29.7402 45.303C29.0918 45.9514 28.4728 46.2757 27.677 46.2757C26.8517 46.2757 26.2327 45.9514 25.5843 45.303L17.1839 36.8142C16.6828 36.3426 16.447 35.7236 16.447 35.0457C16.447 33.6899 17.4786 32.6877 18.8934 32.6877C19.6303 32.6877 20.2198 33.0414 20.7209 33.513L22.5483 35.3994L25.3485 38.848L25.0537 32.6582V22.342L25.3485 16.1523L22.5483 19.6008L20.7209 21.4872C20.2198 21.9588 19.6303 22.3125 18.8934 22.3125C17.4786 22.3125 16.447 21.3104 16.447 19.9545C16.447 19.2766 16.6828 18.6576 17.1839 18.186L25.5843 9.69726C26.2327 9.01933 26.8517 8.69511 27.677 8.69511Z" fill="#FFFDD7"/>
</svg>
