<svg width="71" height="71" viewBox="0 0 71 71" fill="none" xmlns="http://www.w3.org/2000/svg">
<rect x="12.9375" y="5.3125" width="47.6562" height="57.5312" fill="#3304F7"/>
<path d="M12.4417 70.6797H58.2379C66.4442 70.6797 70.6797 66.4442 70.6797 58.3514V12.3283C70.6797 4.23549 66.4442 0 58.2379 0H12.4417C4.2733 0 0 4.19767 0 12.3283V58.3514C0 66.4442 4.2733 70.6797 12.4417 70.6797ZM35.51 11.156C36.5311 11.156 37.3252 11.572 38.1572 12.4417L49.0106 23.333C49.6157 23.9381 49.9182 24.7322 49.9182 25.602C49.9182 27.3416 48.5946 28.6274 46.8173 28.6274C45.834 28.6274 45.0777 28.1735 44.4726 27.5685L42.0901 25.1482L38.4976 20.7614L38.8757 28.6652V41.9011L38.4976 49.8048L42.0901 45.418L44.4726 42.9978C45.0777 42.3927 45.834 41.9389 46.8173 41.9389C48.5946 41.9389 49.9182 43.2247 49.9182 44.9642C49.9182 45.834 49.6157 46.6282 49.0106 47.2332L38.1572 58.1245C37.3252 58.9565 36.5311 59.3724 35.51 59.3724C34.4511 59.3724 33.657 58.9565 32.825 58.1245L22.0472 47.2332C21.4043 46.6282 21.1018 45.834 21.1018 44.9642C21.1018 43.2247 22.4254 41.9389 24.2406 41.9389C25.186 41.9389 25.9424 42.3927 26.5852 42.9978L28.9299 45.418L32.5225 49.8426L32.1443 41.9011V28.6652L32.5225 20.7236L28.9299 25.1482L26.5852 27.5685C25.9424 28.1735 25.186 28.6274 24.2406 28.6274C22.4254 28.6274 21.1018 27.3416 21.1018 25.602C21.1018 24.7322 21.4043 23.9381 22.0472 23.333L32.825 12.4417C33.657 11.572 34.4511 11.156 35.51 11.156Z" fill="#FFFDD7"/>
</svg>
