<svg width="1078" height="1646" viewBox="0 0 1078 1646" fill="none" xmlns="http://www.w3.org/2000/svg">
<path d="M948.5 406.811C1020.41 403.483 1077.67 344.089 1077.67 271.252C1004.83 271.252 945.443 328.783 942.286 400.921C938.997 329.714 880.909 272.849 809.264 271.618C809.264 271.551 809.264 271.484 809.264 271.385C881.142 270.32 939.462 213.221 942.585 141.781C945.908 213.787 1005.23 271.118 1077.97 271.118C1077.97 198.181 1020.51 138.72 948.467 135.559C1020.38 132.232 1077.63 72.8373 1077.63 0C1004.79 0 945.41 57.5311 942.253 129.67C939.03 58.4961 880.943 1.63044 809.298 0.399291C809.298 0.266194 809.298 0.166371 809.298 0.0332742C736.456 0.0332742 677.073 57.5644 673.916 129.703C670.626 57.8972 611.609 0.332742 539.133 0.0332742C466.292 0.0332742 406.908 57.5644 403.752 129.703C400.495 58.4961 342.375 1.63044 270.763 0.399291C270.763 0.266194 270.763 0.166371 270.763 0.0332742C197.921 0.0332742 138.538 57.5644 135.381 129.703C132.058 57.6975 72.7085 0.332742 0 0.332742C0 73.2699 57.4557 132.731 129.5 135.892C57.5886 139.219 0.299075 198.647 0.299075 271.451C73.1405 271.451 132.524 213.92 135.68 141.781C138.97 212.988 197.057 269.854 268.702 271.085C268.702 271.152 268.702 271.218 268.702 271.318C196.825 272.383 138.505 329.481 135.381 400.921C132.058 328.916 72.7417 271.584 0 271.584C0 344.521 57.4557 403.982 129.5 407.143C57.5886 410.471 0.299075 469.865 0.299075 542.669V1764.03H1078V542.37C1078 469.433 1020.54 409.972 948.5 406.811ZM936.405 407.11C870.475 410.171 816.907 460.349 808.434 524.801C800.093 460.116 746.259 409.706 680.097 406.777C746.027 403.716 799.594 353.539 808.068 289.087C816.409 353.772 870.209 404.182 936.405 407.11ZM808.101 17.9015C816.442 82.5866 870.242 132.997 936.438 135.925C870.508 138.986 816.941 189.164 808.467 253.616C800.126 188.931 746.292 138.521 680.13 135.592C746.06 132.531 799.627 82.3537 808.101 17.9015ZM674.248 141.815C677.538 213.022 735.625 269.887 807.271 271.118C807.271 271.185 807.271 271.252 807.271 271.351C735.393 272.416 677.073 329.515 673.949 400.954C670.626 329.149 611.609 271.917 539.166 271.618C539.166 271.584 539.166 271.518 539.166 271.484C611.875 271.351 671.125 213.887 674.282 141.815H674.248ZM409.966 406.844C478.986 403.65 534.481 348.78 538.834 280.003C543.054 349.047 598.782 404.116 668.034 407.143C599.014 410.338 543.519 465.207 539.166 533.985C534.946 464.941 479.218 409.872 409.966 406.844ZM538.834 8.75112C543.054 77.7952 598.782 132.864 668.034 135.892C599.014 139.086 543.519 193.956 539.166 262.733C534.946 193.689 479.218 138.62 409.966 135.592C478.986 132.398 534.481 77.529 538.834 8.75112ZM404.084 141.781C407.407 213.587 466.424 270.819 538.867 271.118C538.867 271.152 538.867 271.218 538.867 271.252C466.159 271.385 406.908 328.849 403.752 400.921C400.462 329.714 342.375 272.849 270.73 271.618C270.73 271.551 270.73 271.484 270.73 271.385C342.607 270.32 400.927 213.221 404.051 141.781H404.084ZM141.562 135.592C207.492 132.531 261.059 82.3537 269.533 17.9015C277.874 82.5866 331.674 132.997 397.87 135.925C331.94 138.986 278.373 189.164 269.899 253.616C261.558 188.931 207.724 138.521 141.562 135.592ZM269.533 289.12C277.874 353.805 331.674 404.215 397.87 407.143C331.94 410.205 278.373 460.382 269.899 524.834C261.558 460.149 207.724 409.739 141.562 406.811C207.492 403.75 261.059 353.572 269.533 289.12ZM538.502 542.37C538.502 542.37 538.734 542.37 538.867 542.37C538.867 542.47 538.867 542.603 538.867 542.703L538.502 542.37Z" fill="#FFD600"/>
</svg>
