<svg width="1920" height="757" viewBox="0 0 1920 757" fill="none" xmlns="http://www.w3.org/2000/svg">
<path d="M1991.91 207.167C2028.53 205.476 2057.69 175.288 2057.69 138.267C2020.6 138.267 1990.36 167.508 1988.75 204.174C1987.07 167.982 1957.5 139.079 1921.01 138.453C1921.01 138.419 1921.01 138.385 1921.01 138.334C1957.61 137.793 1987.31 108.772 1988.9 72.4614C1990.59 109.059 2020.8 138.199 2057.84 138.199C2057.84 101.128 2028.58 70.9054 1991.9 69.2988C2028.51 67.6076 2057.67 37.4193 2057.67 0.398438C2020.58 0.398438 1990.34 29.6396 1988.73 66.3053C1987.06 30.1132 1957.48 1.21022 1921 0.584472C1921 0.516823 1921 0.466086 1921 0.398438C1883.91 0.398438 1853.67 29.6396 1852.06 66.3053C1850.37 29.8088 1820.32 0.56756 1783.43 0.398438C1746.34 0.398438 1716.1 29.6396 1714.49 66.3053C1712.82 30.1132 1683.24 1.21022 1646.76 0.584472C1646.76 0.516823 1646.76 0.466086 1646.76 0.398438C1609.66 0.398438 1579.43 29.6396 1577.82 66.3053C1576.13 29.7073 1545.92 0.56756 1508.88 0.56756C1508.88 37.6391 1538.14 67.8612 1574.82 69.4679C1538.21 71.1591 1509.05 101.347 1509.05 138.368C1546.14 138.368 1576.38 109.127 1577.99 72.4614C1579.66 108.653 1609.24 137.556 1645.72 138.182C1645.72 138.216 1645.72 138.25 1645.72 138.301C1609.12 138.842 1579.43 167.863 1577.83 204.174C1576.14 167.576 1545.94 138.436 1508.9 138.436C1508.9 175.507 1538.15 205.73 1574.84 207.336C1541.27 208.892 1513.97 234.396 1509.68 267.155H1508.32C1504.08 234.277 1476.66 208.655 1442.97 207.167C1479.59 205.476 1508.75 175.288 1508.75 138.267C1471.65 138.267 1441.42 167.508 1439.81 204.174C1438.13 167.982 1408.55 139.079 1372.07 138.453C1372.07 138.419 1372.07 138.385 1372.07 138.334C1408.67 137.793 1438.37 108.772 1439.96 72.4614C1441.65 109.059 1471.86 138.199 1508.9 138.199C1508.9 101.128 1479.64 70.9054 1442.96 69.2988C1479.57 67.6076 1508.73 37.4193 1508.73 0.398438C1471.64 0.398438 1441.4 29.6396 1439.79 66.3053C1438.12 30.1132 1408.54 1.21022 1372.06 0.584472C1372.06 0.516823 1372.06 0.466086 1372.06 0.398438C1334.96 0.398438 1304.73 29.6396 1303.12 66.3053C1301.43 29.8088 1271.37 0.56756 1234.49 0.398438C1197.39 0.398438 1167.16 29.6396 1165.55 66.3053C1163.87 30.1132 1134.3 1.21022 1097.81 0.584472C1097.81 0.516823 1097.81 0.466086 1097.81 0.398438C1060.72 0.398438 1030.48 29.6396 1028.88 66.3053C1027.18 29.7073 996.98 0.56756 959.939 0.56756C959.939 37.6391 989.196 67.8612 1025.88 69.4679C989.264 71.1591 960.108 101.347 960.108 138.368C997.2 138.368 1027.44 109.127 1029.05 72.4614C1030.72 108.653 1060.3 137.556 1096.78 138.182C1096.78 138.216 1096.78 138.25 1096.78 138.301C1060.18 138.842 1030.48 167.863 1028.89 204.174C1027.2 167.576 996.997 138.436 959.956 138.436C959.956 175.507 989.213 205.73 1025.9 207.336C992.326 208.892 965.032 234.396 960.734 267.155H959.381C955.134 234.277 927.721 208.655 894.031 207.167C930.649 205.476 959.804 175.288 959.804 138.267C922.713 138.267 892.474 167.508 890.867 204.174C889.192 167.982 859.613 139.079 823.131 138.453C823.131 138.419 823.131 138.385 823.131 138.334C859.732 137.793 889.428 108.772 891.019 72.4614C892.711 109.059 922.916 138.199 959.956 138.199C959.956 101.128 930.699 70.9054 894.014 69.2988C930.632 67.6076 959.787 37.4193 959.787 0.398438C922.696 0.398438 892.457 29.6396 890.85 66.3053C889.175 30.1132 859.596 1.21022 823.114 0.584472C823.114 0.516823 823.114 0.466086 823.114 0.398438C786.023 0.398438 755.785 29.6396 754.177 66.3053C752.485 29.8088 722.433 0.56756 685.545 0.398438C648.453 0.398438 618.215 29.6396 616.607 66.3053C614.932 30.1132 585.354 1.21022 548.872 0.584472C548.872 0.516823 548.872 0.466086 548.872 0.398438C511.78 0.398438 481.542 29.6396 479.935 66.3053C478.31 29.7242 448.106 0.56756 411.065 0.56756C411.065 37.6391 440.322 67.8612 477.007 69.4679C440.39 71.1591 411.234 101.347 411.234 138.368C448.326 138.368 478.564 109.127 480.172 72.4614C481.847 108.653 511.425 137.556 547.907 138.182C547.907 138.216 547.907 138.25 547.907 138.301C511.307 138.842 481.61 167.863 480.019 204.174C478.327 167.576 448.123 138.436 411.082 138.436C411.082 175.507 440.339 205.73 477.024 207.336C443.453 208.892 416.159 234.396 411.861 267.155H410.507C406.26 234.277 378.847 208.655 345.157 207.167C381.775 205.476 410.93 175.288 410.93 138.267C373.839 138.267 343.6 167.508 341.993 204.174C340.318 167.982 310.739 139.079 274.257 138.453C274.257 138.419 274.257 138.385 274.257 138.334C310.858 137.793 340.555 108.772 342.145 72.4614C343.837 109.059 374.042 138.199 411.082 138.199C411.082 101.128 381.825 70.9054 345.14 69.2988C381.758 67.6076 410.913 37.4193 410.913 0.398438C373.822 0.398438 343.583 29.6396 341.976 66.3053C340.301 30.1301 310.722 1.22714 274.24 0.601384C274.24 0.533735 274.24 0.482999 274.24 0.41535C237.149 0.41535 206.911 29.6566 205.303 66.3222C203.628 29.8257 173.576 0.56756 136.671 0.41535C99.5793 0.41535 69.3411 29.6566 67.7336 66.3222C66.0753 30.1301 36.4801 1.22714 0.014801 0.601384C0.014801 0.533735 0.014801 0.482999 0.014801 0.41535C-37.0765 0.41535 -67.3148 29.6566 -68.9223 66.3222C-70.6144 29.7242 -100.836 0.56756 -137.859 0.56756C-137.859 37.6391 -108.603 67.8612 -71.9173 69.4679C-108.535 71.1591 -137.707 101.364 -137.707 138.368C-100.616 138.368 -70.3775 109.127 -68.77 72.4614C-67.0948 108.653 -37.5165 137.556 -1.03432 138.182C-1.03432 138.216 -1.03432 138.25 -1.03432 138.301C-37.6349 138.842 -67.3317 167.863 -68.9223 204.174C-70.6144 167.576 -100.819 138.436 -137.859 138.436C-137.859 175.507 -108.603 205.73 -71.9173 207.336C-108.535 209.027 -137.707 239.216 -137.707 276.22V896.999H2057.86V276.067C2057.86 238.996 2028.6 208.774 1991.91 207.167ZM273.631 9.49721C277.878 42.3745 305.274 67.9965 338.981 69.4848C305.409 71.0407 278.132 96.5443 273.817 129.303C269.57 96.426 242.158 70.804 208.467 69.3157C242.039 67.7598 269.316 42.2562 273.631 9.49721ZM205.472 72.4783C207.148 108.67 236.726 137.573 273.208 138.199C273.208 138.233 273.208 138.267 273.208 138.318C236.607 138.859 206.911 167.88 205.32 204.191C203.628 167.694 173.576 138.605 136.688 138.453C136.688 138.436 136.688 138.402 136.688 138.385C173.711 138.318 203.882 109.11 205.489 72.4783H205.472ZM70.8978 207.167C106.043 205.544 134.302 177.655 136.518 142.698C138.667 177.791 167.044 205.78 202.308 207.319C168.736 208.875 141.476 234.396 137.161 267.138H136.231C131.983 234.26 104.588 208.638 70.8978 207.15V207.167ZM136.518 4.84635C138.667 39.9392 167.044 67.9289 202.308 69.4679C167.163 71.0915 138.904 98.9797 136.688 133.937C134.539 98.8444 106.162 70.8547 70.8978 69.3157C106.043 67.6921 134.302 39.8039 136.518 4.84635ZM67.9028 72.4614C69.5949 108.958 99.647 138.047 136.535 138.199C136.535 138.216 136.535 138.25 136.535 138.267C99.5116 138.334 69.3411 167.542 67.7336 204.174C66.0584 167.982 36.4801 139.079 -0.00212097 138.453C-0.00212097 138.419 -0.00212097 138.385 -0.00212097 138.334C36.5985 137.793 66.2953 108.772 67.8858 72.4614H67.9028ZM-65.7749 69.2988C-32.2032 67.7429 -4.92619 42.2392 -0.611282 9.48029C3.63594 42.3576 31.0314 67.9796 64.7385 69.4679C31.1668 71.0238 3.88977 96.5274 -0.425156 129.286C-4.67238 96.409 -32.0848 70.787 -65.7749 69.2988ZM-65.7749 207.15C-32.2032 205.594 -4.92619 180.091 -0.611282 147.332C3.63594 180.209 31.0314 205.831 64.7385 207.319C31.1668 208.875 3.88977 234.379 -0.425156 267.138C-4.67238 234.26 -32.0848 208.638 -65.7749 207.15ZM208.451 207.15C242.022 205.594 269.299 180.091 273.614 147.332C277.861 180.209 305.257 205.831 338.964 207.319C305.392 208.875 278.115 234.379 273.8 267.138C269.553 234.26 242.141 208.638 208.451 207.15ZM822.539 9.48029C826.786 42.3576 854.182 67.9796 887.889 69.4679C854.317 71.0238 827.04 96.5274 822.725 129.286C818.478 96.409 791.065 70.787 757.375 69.2988C790.947 67.7429 818.224 42.2392 822.539 9.48029ZM754.38 72.4614C756.055 108.653 785.634 137.556 822.116 138.182C822.116 138.216 822.116 138.25 822.116 138.301C785.515 138.842 755.818 167.863 754.228 204.174C752.536 167.677 722.484 138.588 685.595 138.436C685.595 138.419 685.595 138.385 685.595 138.368C722.619 138.301 752.789 109.093 754.397 72.4614H754.38ZM619.806 207.15C654.951 205.527 683.209 177.638 685.426 142.681C687.575 177.774 715.952 205.763 751.216 207.302C717.644 208.858 690.384 234.379 686.069 267.121H685.138C680.891 234.244 653.496 208.622 619.806 207.133V207.15ZM685.443 4.84635C687.592 39.9392 715.969 67.9289 751.233 69.4679C716.087 71.0915 687.829 98.9797 685.612 133.937C683.463 98.8444 655.086 70.8547 619.823 69.3157C654.968 67.6921 683.226 39.8039 685.443 4.84635ZM616.827 72.4614C618.52 108.958 648.572 138.047 685.46 138.199C685.46 138.216 685.46 138.25 685.46 138.267C648.436 138.334 618.266 167.542 616.658 204.174C614.983 167.982 585.405 139.079 548.923 138.453C548.923 138.419 548.923 138.385 548.923 138.334C585.523 137.793 615.22 108.772 616.811 72.4614H616.827ZM483.15 69.2988C516.721 67.7429 543.998 42.2392 548.313 9.48029C552.561 42.3576 579.956 67.9796 613.663 69.4679C580.091 71.0238 552.814 96.5274 548.5 129.286C544.252 96.409 516.84 70.787 483.15 69.2988ZM483.15 207.15C516.721 205.594 543.998 180.091 548.313 147.332C552.561 180.209 579.956 205.831 613.663 207.319C580.091 208.875 552.814 234.379 548.5 267.138C544.252 234.26 516.84 208.638 483.15 207.15ZM757.375 207.15C790.947 205.594 818.224 180.091 822.539 147.332C826.786 180.209 854.182 205.831 887.889 207.319C854.317 208.875 827.04 234.379 822.725 267.138C818.478 234.26 791.065 208.638 757.375 207.15ZM1371.46 9.48029C1375.71 42.3576 1403.11 67.9796 1436.81 69.4679C1403.24 71.0238 1375.96 96.5274 1371.65 129.286C1367.4 96.409 1339.99 70.787 1306.3 69.2988C1339.87 67.7429 1367.15 42.2392 1371.46 9.48029ZM1303.3 72.4614C1304.98 108.653 1334.56 137.556 1371.04 138.182C1371.04 138.216 1371.04 138.25 1371.04 138.301C1334.44 138.842 1304.74 167.863 1303.15 204.174C1301.46 167.677 1271.41 138.588 1234.52 138.436C1234.52 138.419 1234.52 138.385 1234.52 138.368C1271.54 138.301 1301.71 109.093 1303.32 72.4614H1303.3ZM1168.73 207.15C1203.88 205.527 1232.13 177.638 1234.35 142.681C1236.5 177.774 1264.88 205.763 1300.14 207.302C1266.57 208.858 1239.31 234.379 1234.99 267.121H1234.06C1229.82 234.244 1202.42 208.622 1168.73 207.133V207.15ZM1234.38 4.84635C1236.53 39.9392 1264.91 67.9289 1300.17 69.4679C1265.03 71.0915 1236.77 98.9797 1234.55 133.937C1232.4 98.8444 1204.03 70.8547 1168.76 69.3157C1203.91 67.6921 1232.17 39.8039 1234.38 4.84635ZM1165.77 72.4614C1167.46 108.958 1197.51 138.047 1234.4 138.199C1234.4 138.216 1234.4 138.25 1234.4 138.267C1197.38 138.334 1167.21 167.542 1165.6 204.174C1163.92 167.982 1134.35 139.079 1097.86 138.453C1097.86 138.419 1097.86 138.385 1097.86 138.334C1134.46 137.793 1164.16 108.772 1165.75 72.4614H1165.77ZM1032.09 69.2988C1065.66 67.7429 1092.94 42.2392 1097.26 9.48029C1101.5 42.3576 1128.9 67.9796 1162.6 69.4679C1129.03 71.0238 1101.76 96.5274 1097.44 129.286C1093.19 96.409 1065.78 70.787 1032.09 69.2988ZM1032.09 207.15C1065.66 205.594 1092.94 180.091 1097.26 147.332C1101.5 180.209 1128.9 205.831 1162.6 207.319C1129.03 208.875 1101.76 234.379 1097.44 267.138C1093.19 234.26 1065.78 208.638 1032.09 207.15ZM1306.32 207.15C1339.89 205.594 1367.17 180.091 1371.48 147.332C1375.73 180.209 1403.12 205.831 1436.83 207.319C1403.26 208.875 1375.98 234.379 1371.67 267.138C1367.42 234.26 1340.01 208.638 1306.32 207.15ZM1920.42 9.49721C1924.67 42.3745 1952.06 67.9965 1985.77 69.4848C1952.2 71.0407 1924.92 96.5443 1920.61 129.303C1916.36 96.426 1888.95 70.804 1855.26 69.3157C1888.83 67.7598 1916.11 42.2562 1920.42 9.49721ZM1852.26 72.4783C1853.94 108.67 1883.52 137.573 1920 138.199C1920 138.233 1920 138.267 1920 138.318C1883.4 138.859 1853.7 167.88 1852.11 204.191C1850.42 167.694 1820.37 138.605 1783.48 138.453C1783.48 138.436 1783.48 138.402 1783.48 138.385C1820.5 138.318 1850.67 109.11 1852.28 72.4783H1852.26ZM1717.69 207.167C1752.83 205.544 1781.09 177.655 1783.31 142.698C1785.46 177.791 1813.84 205.78 1849.1 207.319C1815.53 208.875 1788.27 234.396 1783.95 267.138H1783.02C1778.77 234.26 1751.38 208.638 1717.69 207.15V207.167ZM1783.31 4.84635C1785.46 39.9392 1813.84 67.9289 1849.1 69.4679C1813.95 71.0915 1785.7 98.9797 1783.48 133.937C1781.33 98.8444 1752.95 70.8547 1717.69 69.3157C1752.83 67.6921 1781.09 39.8039 1783.31 4.84635ZM1714.69 72.4614C1716.39 108.958 1746.44 138.047 1783.33 138.199C1783.33 138.216 1783.33 138.25 1783.33 138.267C1746.3 138.334 1716.13 167.542 1714.52 204.174C1712.85 167.982 1683.27 139.079 1646.79 138.453C1646.79 138.419 1646.79 138.385 1646.79 138.334C1683.39 137.793 1713.09 108.772 1714.68 72.4614H1714.69ZM1581.02 69.2988C1614.59 67.7429 1641.86 42.2392 1646.18 9.48029C1650.43 42.3576 1677.82 67.9796 1711.53 69.4679C1677.96 71.0238 1650.68 96.5274 1646.37 129.286C1642.12 96.409 1614.71 70.787 1581.02 69.2988ZM1581.02 207.15C1614.59 205.594 1641.86 180.091 1646.18 147.332C1650.43 180.209 1677.82 205.831 1711.53 207.319C1677.96 208.875 1650.68 234.379 1646.37 267.138C1642.12 234.26 1614.71 208.638 1581.02 207.15ZM1920.59 267.138C1916.34 234.26 1888.93 208.638 1855.24 207.15C1888.81 205.594 1916.09 180.091 1920.41 147.332C1924.65 180.209 1952.05 205.831 1985.75 207.319C1952.18 208.875 1924.91 234.379 1920.59 267.138Z" fill="#FFD600"/>
</svg>
