<svg width="1592" height="1592" viewBox="0 0 1592 1592" fill="none" xmlns="http://www.w3.org/2000/svg">
<path d="M1375.89 251.524C1367.01 251.524 1358.27 252.928 1349.67 255.601C1355.73 242.82 1358.96 229.627 1358.96 216.159C1358.96 96.7715 1109.91 0 802.666 0C495.424 0 246.376 96.7714 246.376 216.125C246.376 232.094 250.865 247.617 259.33 262.592C245.382 255.327 230.954 251.489 216.183 251.489C96.7819 251.524 0 500.546 0 807.754C0 1114.96 96.7819 1363.98 216.148 1363.98C227.081 1363.98 237.808 1361.86 248.295 1357.85C247.027 1363.78 246.341 1369.81 246.341 1375.87C246.341 1495.26 495.39 1592 802.631 1592C1109.87 1592 1358.92 1495.23 1358.92 1375.87C1358.92 1371.21 1358.51 1366.62 1357.76 1362.03C1363.72 1363.3 1369.75 1363.98 1375.85 1363.98C1495.25 1363.98 1592 1114.96 1592 807.754C1592 500.546 1495.22 251.524 1375.85 251.524H1375.89ZM325.679 328.146C325.405 327.734 325.131 327.289 324.822 326.878C325.474 327.289 326.125 327.734 326.776 328.146H325.679Z" fill="#3304F7"/>
</svg>
