<svg width="388" height="252" viewBox="0 0 388 252" fill="none" xmlns="http://www.w3.org/2000/svg">
<g clip-path="url(#clip0_530_46)">
<path d="M281.085 138.258C278.083 139.126 275.071 139.731 272.108 140.046L244.25 148.096C240.35 150.294 235.615 151.662 231.01 151.922L168.826 169.891L168.766 169.684C163.651 172.524 157.464 174.311 151.603 174.617L151.666 174.837L101.856 189.23C99.8979 190.325 97.7633 191.219 95.4937 191.875C92.6505 192.697 89.7834 193.116 86.9971 193.127C85.7026 193.131 84.4042 193.031 83.1213 192.846C82.4946 193.331 81.8243 193.802 81.1296 194.281C78.0842 196.324 74.6676 197.907 70.9458 198.982C66.2601 200.336 61.5892 200.827 57.0622 200.442C52.2787 200.04 47.8693 198.736 43.9494 196.563C40.1116 194.446 36.7619 191.593 34.0016 188.081C31.2834 184.622 29.2615 180.645 27.9921 176.252C27.837 175.715 27.7097 175.183 27.5947 174.648C27.403 174.122 27.2234 173.592 27.0647 173.043C26.9061 172.494 26.7824 171.974 26.6673 171.439C26.4756 170.912 26.296 170.383 26.1374 169.833C25.9787 169.284 25.855 168.765 25.74 168.229C25.5482 167.703 25.3686 167.173 25.21 166.624C25.0513 166.075 24.9276 165.555 24.8126 165.02C24.6208 164.494 24.4413 163.964 24.2826 163.415C23.0202 159.046 22.6248 154.613 23.1158 150.227C23.6104 145.853 24.9117 141.709 26.987 137.909C29.1317 133.984 32.1658 130.529 35.978 127.616C38.9686 125.337 42.3584 123.525 46.0828 122.184L31.3118 71.0681L62.4281 62.0765C64.5025 61.477 66.5267 61.0243 68.4556 60.7446C70.7524 60.4114 73.0638 60.312 75.3254 60.4517C75.9589 60.4934 76.5994 60.5595 77.219 60.6449L77.0954 57.838L157.51 34.6007L157.608 34.9424C160.171 33.5145 162.943 32.3563 165.908 31.4995C170.606 30.1419 175.312 29.6811 179.921 30.1209C184.654 30.5777 189.039 31.8888 192.936 34.0283C196.613 36.0464 199.861 38.7304 202.595 42.0128C204.625 41.2146 206.806 40.6636 209.075 40.4178L223.987 36.1088C225.173 35.5016 226.443 35.0023 227.773 34.6179C233.789 32.8795 240.032 33.9844 244.869 37.6372C248.742 40.5637 251.457 44.8824 253.178 50.8373L256.26 61.5022C257.379 61.0731 258.536 60.6858 259.72 60.3438C267.078 58.2175 274.614 57.9436 282.12 59.5297L290.327 61.2567L296.184 81.525C298.43 84.0359 300.049 87.0319 301.037 90.4486C301.213 91.0587 301.361 91.6637 301.508 92.3088C301.675 92.7497 301.83 93.1942 301.967 93.6701C302.144 94.2802 302.292 94.8852 302.439 95.5303C302.606 95.9712 302.761 96.4156 302.898 96.8915C303.075 97.5017 303.223 98.1066 303.37 98.7517C303.537 99.1927 303.692 99.6371 303.829 100.113C304.006 100.723 304.154 101.328 304.301 101.973C304.468 102.414 304.623 102.859 304.76 103.334C306.499 109.35 306.212 115.131 303.896 120.521C301.818 125.365 298.435 129.397 293.847 132.508C290.297 134.909 286.006 136.849 281.1 138.267L281.085 138.258Z" fill="#FFFDD7"/>
<path d="M294.221 97.6783L288.985 79.5577L284.509 78.6168C278.032 77.2492 271.53 77.4886 265.172 79.3257C262.439 80.1156 259.883 81.198 257.582 82.5239C255.145 83.9288 255.929 83.3454 255.929 83.3454L250.766 65.481C249.441 60.8929 247.461 57.6571 244.723 55.5927C241.442 53.1163 237.35 52.408 233.214 53.6034C232.079 53.9313 231.016 54.3707 230.061 54.9109L213.966 59.5619C212.74 59.6651 211.506 59.8764 210.273 60.2325C208.052 60.8743 206.045 61.8905 204.279 63.2341C203.522 61.8528 202.663 60.5276 201.672 59.2936C199.403 56.4722 196.662 54.1704 193.567 52.4734C190.424 50.7503 186.866 49.6898 182.989 49.3159C179.181 48.9487 175.274 49.3373 171.345 50.4727C167.416 51.6082 163.831 53.3846 160.79 55.7177C159.674 56.569 158.684 57.4897 157.745 58.4487L156.842 55.3248L87.3487 75.4062L87.6815 82.7802C86.6672 82.0156 85.5714 81.3803 84.3923 80.9145C82.6402 80.2044 80.6796 79.7794 78.5907 79.6426C76.7706 79.5207 74.918 79.6065 73.0659 79.8773C71.4161 80.1161 69.6674 80.5156 67.8736 81.034L42.8585 88.2626L57.6719 139.525C56.4459 139.721 55.2132 139.984 53.9808 140.341C50.0394 141.48 46.5237 143.223 43.5088 145.509C40.3981 147.875 37.9534 150.67 36.239 153.797C34.5593 156.86 33.5069 160.219 33.118 163.769C32.7169 167.322 33.0453 170.929 34.075 174.492C35.1046 178.056 36.7685 181.343 38.9701 184.157C41.2031 186.989 43.9074 189.302 46.9902 191.002C50.1202 192.729 53.6878 193.774 57.5778 194.104C61.3317 194.421 65.2316 194.008 69.1608 192.872C72.2359 191.984 75.0706 190.675 77.5623 189.003C79.0458 188.006 80.3042 187.008 81.3742 185.998C83.1745 186.509 85.037 186.777 86.9666 186.775C89.1615 186.775 91.4303 186.437 93.7122 185.778C95.7622 185.185 97.6441 184.377 99.3299 183.348L143.783 170.502L142.916 167.5C144.266 167.824 145.65 168.085 147.1 168.208C150.858 168.537 154.773 168.133 158.703 166.997C162.632 165.862 166.184 164.108 169.199 161.822C170.327 160.967 171.338 160.028 172.289 159.065L173.143 162.018L229.945 145.604C231.953 145.552 234.016 145.234 236.091 144.634C238.165 144.035 240.023 143.234 241.708 142.205L269.408 134.2L269.32 133.895C272.568 133.697 275.892 133.12 279.284 132.14C283.555 130.906 287.24 129.246 290.236 127.216C293.808 124.796 296.417 121.702 298.002 117.991C299.725 113.977 299.924 109.635 298.602 105.059C297.752 102.119 296.265 99.6263 294.186 97.6488L294.221 97.6783Z" fill="#00C3B7"/>
<path d="M293.292 94.4518L288.055 76.3311L283.579 75.3902C277.102 74.0226 270.6 74.262 264.243 76.0991C261.509 76.889 258.953 77.9714 256.652 79.2974C254.216 80.7022 254.999 80.1189 254.999 80.1189L249.837 62.2545C248.511 57.6663 246.531 54.4306 243.793 52.3661C240.512 49.8897 236.421 49.1815 232.284 50.3768C231.149 50.7048 230.086 51.1441 229.132 51.6844L213.037 56.3354C211.81 56.4385 210.576 56.6498 209.343 57.006C207.123 57.6477 205.116 58.664 203.349 60.0075C202.593 58.6262 201.734 57.301 200.743 56.067C198.473 53.2456 195.732 50.9439 192.637 49.2468C189.495 47.5238 185.936 46.4632 182.06 46.0893C178.252 45.7221 174.345 46.1108 170.415 47.2462C166.486 48.3816 162.901 50.158 159.86 52.4912C158.744 53.3425 157.754 54.2632 156.815 55.2221L155.912 52.0983L86.419 72.1797L86.7518 79.5536C85.7375 78.789 84.6417 78.1537 83.4626 77.6879C81.7105 76.9779 79.7499 76.5528 77.6611 76.416C75.8409 76.2942 73.9883 76.38 72.1362 76.6508C70.4864 76.8895 68.7377 77.2891 66.9439 77.8074L41.9288 85.036L56.7422 136.299C55.5162 136.494 54.2835 136.758 53.0511 137.114C49.1097 138.253 45.5941 139.996 42.5791 142.282C39.4684 144.648 37.0237 147.444 35.3093 150.57C33.6296 153.634 32.5772 156.992 32.1883 160.542C31.7873 164.096 32.1156 167.703 33.1453 171.266C34.1749 174.829 35.8388 178.116 38.0404 180.931C40.2734 183.763 42.9777 186.075 46.0605 187.776C49.1905 189.502 52.7581 190.547 56.6481 190.877C60.402 191.194 64.302 190.781 68.2311 189.646C71.3062 188.757 74.1409 187.449 76.6326 185.777C78.1161 184.78 79.3745 183.781 80.4445 182.771C82.2448 183.282 84.1073 183.551 86.0369 183.548C88.2318 183.549 90.5007 183.21 92.7825 182.551C94.8325 181.959 96.7144 181.15 98.4002 180.121L142.854 167.275L141.986 164.274C143.336 164.598 144.72 164.859 146.171 164.982C149.928 165.311 153.844 164.906 157.773 163.771C161.702 162.635 165.254 160.882 168.269 158.596C169.397 157.741 170.408 156.801 171.36 155.839L172.213 158.792L229.015 142.377C231.023 142.326 233.087 142.007 235.161 141.408C237.235 140.808 239.093 140.007 240.779 138.978L268.478 130.974L268.39 130.669C271.638 130.47 274.962 129.893 278.354 128.913C282.625 127.679 286.31 126.019 289.307 123.99C292.878 121.57 295.487 118.475 297.073 114.765C298.795 110.75 298.995 106.409 297.672 101.833C296.823 98.8919 295.335 96.3997 293.257 94.4222L293.292 94.4518Z" fill="#2728EC"/>
<path d="M292.362 91.2487L287.126 73.128L282.649 72.1871C276.172 70.8195 269.671 71.0589 263.313 72.896C260.58 73.6859 258.023 74.7683 255.723 76.0942C253.286 77.4991 254.069 76.9157 254.069 76.9157L248.907 59.0513C247.581 54.4632 245.602 51.2275 242.863 49.163C239.583 46.6866 235.491 45.9783 231.354 47.1737C230.22 47.5016 229.157 47.941 228.202 48.4812L212.107 53.1322C210.881 53.2354 209.646 53.4467 208.414 53.8029C206.193 54.4446 204.186 55.4608 202.419 56.8044C201.663 55.4231 200.804 54.0979 199.813 52.8639C197.543 50.0425 194.802 47.7407 191.707 46.0437C188.565 44.3207 185.006 43.2601 181.13 42.8862C177.322 42.519 173.415 42.9076 169.486 44.0431C165.556 45.1785 161.971 46.9549 158.93 49.288C157.814 50.1393 156.824 51.06 155.885 52.019L154.982 48.8951L85.4894 68.9766L85.8221 76.3505C84.8079 75.5859 83.712 74.9506 82.5329 74.4848C80.7808 73.7748 78.8202 73.3497 76.7314 73.2129C74.9113 73.091 73.0586 73.1769 71.2065 73.4476C69.5567 73.6864 67.808 74.0859 66.0142 74.6043L40.9992 81.8329L55.8125 133.095C54.5866 133.291 53.3538 133.555 52.1214 133.911C48.18 135.05 44.6644 136.793 41.6494 139.079C38.5387 141.445 36.094 144.241 34.3796 147.367C32.6999 150.431 31.6475 153.789 31.2586 157.339C30.8576 160.892 31.186 164.5 32.2156 168.063C33.2452 171.626 34.9091 174.913 37.1107 177.728C39.3437 180.56 42.048 182.872 45.1308 184.573C48.2608 186.299 51.8285 187.344 55.7184 187.674C59.4723 187.991 63.3723 187.578 67.3015 186.443C70.3765 185.554 73.2112 184.246 75.7029 182.574C77.1864 181.576 78.4448 180.578 79.5148 179.568C81.3151 180.079 83.1776 180.348 85.1072 180.345C87.3021 180.346 89.571 180.007 91.8528 179.348C93.9028 178.756 95.7847 177.947 97.4705 176.918L141.924 164.072L141.057 161.071C142.406 161.394 143.791 161.655 145.241 161.778C148.998 162.107 152.914 161.703 156.843 160.568C160.772 159.432 164.325 157.679 167.34 155.393C168.468 154.538 169.478 153.598 170.43 152.635L171.283 155.588L228.086 139.174C230.094 139.123 232.157 138.804 234.231 138.205C236.306 137.605 238.163 136.804 239.849 135.775L267.549 127.771L267.46 127.466C270.708 127.267 274.032 126.69 277.424 125.71C281.695 124.476 285.38 122.816 288.377 120.787C291.948 118.366 294.558 115.272 296.143 111.562C297.865 107.547 298.065 103.206 296.743 98.6296C295.893 95.6888 294.406 93.1966 292.327 91.2191L292.362 91.2487Z" fill="#FC2E02"/>
<path d="M291.432 88.0221L286.196 69.9014L281.72 68.9605C275.243 67.5929 268.741 67.8323 262.383 69.6695C259.65 70.4593 257.094 71.5418 254.793 72.8677C252.356 74.2725 253.14 73.6892 253.14 73.6892L247.977 55.8248C246.652 51.2366 244.672 48.0009 241.934 45.9364C238.653 43.46 234.561 42.7518 230.425 43.9471C229.29 44.2751 228.227 44.7144 227.272 45.2547L211.177 49.9057C209.951 50.0088 208.716 50.2202 207.484 50.5763C205.263 51.2181 203.256 52.2343 201.489 53.5778C200.733 52.1965 199.874 50.8714 198.883 49.6373C196.614 46.816 193.873 44.5142 190.778 42.8172C187.635 41.0941 184.076 40.0335 180.2 39.6596C176.392 39.2925 172.485 39.6811 168.556 40.8165C164.627 41.9519 161.042 43.7283 158 46.0615C156.885 46.9128 155.895 47.8335 154.955 48.7924L154.053 45.6686L84.5597 65.75L84.8924 73.124C83.8782 72.3593 82.7823 71.724 81.6032 71.2583C79.8511 70.5482 77.8905 70.1231 75.8017 69.9864C73.9816 69.8645 72.1289 69.9503 70.2768 70.2211C68.6271 70.4598 66.8783 70.8594 65.0845 71.3777L40.0695 78.6063L54.8828 129.869C53.6569 130.065 52.4241 130.328 51.1917 130.684C47.2503 131.823 43.7347 133.566 40.7197 135.852C37.609 138.219 35.1643 141.014 33.4499 144.141C31.7702 147.204 30.7178 150.563 30.3289 154.112C29.9279 157.666 30.2563 161.273 31.2859 164.836C32.3155 168.399 33.9794 171.687 36.181 174.501C38.4141 177.333 41.1184 179.645 44.2012 181.346C47.3312 183.073 50.8988 184.117 54.7888 184.448C58.5426 184.764 62.4426 184.351 66.3718 183.216C69.4468 182.327 72.2815 181.019 74.7732 179.347C76.2567 178.35 77.5151 177.352 78.5851 176.342C80.3855 176.853 82.2479 177.121 84.1775 177.119C86.3724 177.119 88.6413 176.781 90.9231 176.121C92.9732 175.529 94.855 174.721 96.5408 173.692L140.994 160.846L140.127 157.844C141.477 158.168 142.861 158.429 144.311 158.552C148.069 158.881 151.984 158.477 155.914 157.341C159.843 156.206 163.395 154.452 166.41 152.166C167.538 151.311 168.549 150.371 169.5 149.409L170.354 152.362L227.156 135.948C229.164 135.896 231.227 135.578 233.302 134.978C235.376 134.379 237.233 133.578 238.919 132.548L266.619 124.544L266.531 124.239C269.779 124.041 273.103 123.464 276.495 122.483C280.766 121.249 284.451 119.589 287.447 117.56C291.018 115.14 293.628 112.046 295.213 108.335C296.935 104.32 297.135 99.979 295.813 95.4031C294.963 92.4623 293.476 89.97 291.397 87.9925L291.432 88.0221Z" fill="#F4DC0C"/>
<path d="M290.507 84.8149L288.637 65.1662L280.782 65.7569C274.305 64.3893 267.803 64.6287 261.445 66.4658C258.712 67.2557 256.156 68.3381 253.855 69.6641C251.418 71.0689 253.685 67.7035 253.685 67.7035L247.039 52.6211C245.714 48.033 243.734 44.7973 240.996 42.7328C237.715 40.2564 233.623 39.5481 229.487 40.7435C228.352 41.0714 227.289 41.5108 226.334 42.0511L210.239 46.7021C209.013 46.8052 207.779 47.0165 206.546 47.3727C204.325 48.0144 202.318 49.0307 200.551 50.3742C199.795 48.9929 198.936 47.6677 197.945 46.4337C195.676 43.6123 192.935 41.3106 189.84 39.6135C186.697 37.8905 183.139 36.8299 179.262 36.456C175.454 36.0888 171.547 36.4774 167.618 37.6129C163.689 38.7483 160.104 40.5247 157.063 42.8578C155.947 43.7091 154.957 44.6298 154.018 45.5888L153.115 42.4649L83.6217 62.5464L83.9545 69.9203C82.9402 69.1557 81.8444 68.5204 80.6653 68.0546C78.9132 67.3446 76.9526 66.9195 74.8637 66.7827C73.0436 66.6608 71.191 66.7467 69.3389 67.0174C67.6891 67.2562 65.9403 67.6558 64.1466 68.1741L35.1638 73.0191L53.9449 126.665C52.7189 126.861 51.4862 127.125 50.2537 127.481C46.3124 128.62 42.7967 130.363 39.7817 132.649C36.671 135.015 34.2264 137.811 32.512 140.937C30.8323 144.001 29.7799 147.359 29.391 150.909C28.9899 154.462 29.3183 158.069 30.348 161.633C31.3776 165.196 33.0415 168.483 35.2431 171.298C37.4761 174.129 40.1804 176.442 43.2632 178.142C46.3932 179.869 49.9608 180.914 53.8508 181.244C57.6047 181.561 61.5046 181.148 65.4338 180.012C68.5089 179.124 71.3436 177.815 73.8353 176.143C75.3188 175.146 76.5772 174.148 77.6472 173.138C79.4475 173.649 81.3099 173.917 83.2396 173.915C85.4345 173.915 87.7033 173.577 89.9852 172.918C92.0352 172.325 93.9171 171.517 95.6029 170.488L140.056 157.642L139.189 154.64C140.539 154.964 141.923 155.225 143.373 155.348C147.131 155.677 151.046 155.273 154.976 154.137C158.905 153.002 162.457 151.248 165.472 148.962C166.6 148.108 167.611 147.168 168.562 146.205L169.416 149.158L226.218 132.744C228.226 132.693 230.289 132.374 232.364 131.775C234.438 131.175 236.296 130.374 237.981 129.345L265.681 121.34L265.593 121.035C268.841 120.837 272.165 120.26 275.557 119.28C279.828 118.046 283.513 116.386 286.509 114.356C290.081 111.936 292.69 108.842 294.275 105.131C295.998 101.117 296.197 96.7754 294.875 92.1994C294.025 89.2586 292.538 86.7664 290.46 84.7889L290.507 84.8149Z" fill="#FFFDD7"/>
<path d="M75.5483 112.887L59.2702 117.591L48.5859 80.6172L66.2795 75.5043C67.756 75.0776 69.1596 74.7646 70.478 74.5687C71.7964 74.3728 73.1013 74.313 74.3962 74.4016C75.691 74.4902 76.8432 74.7258 77.8477 75.1362C78.8643 75.5432 79.7508 76.1861 80.5438 77.0543C81.3246 77.9261 81.9036 79.0148 82.2809 80.3204C82.9156 82.5169 82.5256 84.507 81.1229 86.2874C79.7203 88.0677 77.0572 89.6041 73.1286 90.9245L73.3155 91.5712C78.3681 89.7939 82.3413 89.3597 85.2263 90.2844C88.1079 91.197 90.007 93.2396 90.9133 96.3756C91.3258 97.8033 91.4642 99.1516 91.3442 100.429C91.2241 101.707 90.9135 102.828 90.4157 103.804C89.9301 104.778 89.2175 105.698 88.3059 106.569C87.3943 107.441 86.4561 108.175 85.507 108.779C84.558 109.384 83.4413 109.958 82.1641 110.525C80.887 111.093 79.7595 111.538 78.7887 111.884C77.8022 112.222 76.7232 112.56 75.5396 112.903L75.5483 112.887ZM63.7289 85.9855L65.3015 91.4278L68.3399 90.5498C69.9384 90.0879 71.0708 89.5227 71.7406 88.8664C72.4103 88.2101 72.5963 87.3895 72.3142 86.4133C72.0321 85.4371 71.4406 84.8544 70.5555 84.6739C69.6704 84.4934 68.4024 84.635 66.7673 85.1075L63.7289 85.9855ZM67.0681 97.5413L68.7607 103.398L73.1902 102.118C75.2036 101.537 76.545 100.871 77.2232 100.107C77.9013 99.3424 78.0854 98.4695 77.8033 97.4933C77.2602 95.6141 75.4181 95.1416 72.2699 96.0513L67.0594 97.557L67.0681 97.5413Z" fill="#FC6C02"/>
<path d="M106.555 103.928L93.3518 107.744L91.5353 68.1943L111.779 62.3444L131.338 96.7666L118.135 100.582L115.98 96.5109C115.48 95.5581 115.212 94.6307 115.176 93.7288L105.402 96.5532C105.853 97.3353 106.121 98.2626 106.206 99.3354L106.555 103.928ZM104.217 88.2885L104.298 88.5692L111.851 86.3865L111.77 86.1059C111 85.6807 109.794 83.9797 108.173 81.0238C107.147 79.0728 106.109 76.9003 105.088 74.5113C104.067 72.1224 103.418 70.4721 103.15 69.5447L102.662 69.6857C102.93 70.6131 103.265 72.3673 103.673 74.9203C104.08 77.4734 104.364 79.8768 104.537 82.0746C104.742 85.4396 104.642 87.5178 104.205 88.2921L104.217 88.2885Z" fill="#FC6C02"/>
<path d="M143.105 94.0671C141.116 94.6419 139.071 94.9289 136.993 94.9212C134.915 94.9135 133.029 94.6121 131.353 94.0257L127.262 79.8708L128.068 79.6381C131.031 82.2062 134.113 83.0344 137.31 82.1105C139.153 81.5781 140.361 80.7265 140.956 79.5365C141.538 78.3501 141.484 76.5148 140.761 74.0133L138.032 64.5686C137.238 65.7103 135.311 66.7298 132.236 67.6184L125.452 69.5789L122.472 59.2678L147.951 51.9052L154.122 73.2595C154.46 74.431 154.711 75.5748 154.888 76.6874C155.064 77.8 155.137 78.9687 155.113 80.1657C155.092 81.3748 154.945 82.5146 154.676 83.5971C154.407 84.6797 153.99 85.7522 153.4 86.8217C152.81 87.8913 152.072 88.8583 151.172 89.7264C150.276 90.6067 149.134 91.4127 147.769 92.1775C146.399 92.9301 144.85 93.5629 143.118 94.0636L143.105 94.0671Z" fill="#FC6C02"/>
<path d="M180.81 83.1653C177.735 84.0539 174.759 84.3717 171.895 84.1151C169.031 83.8585 166.48 83.1282 164.25 81.9083C162.02 80.6885 160.08 79.0543 158.443 77.0022C156.805 74.9501 155.614 72.6105 154.852 69.9748C154.09 67.339 153.863 64.7209 154.153 62.1117C154.456 59.4989 155.225 57.0819 156.457 54.8484C157.689 52.6149 159.454 50.6241 161.748 48.8638C164.03 47.107 166.701 45.7799 169.764 44.8949C172.827 44.0098 175.708 43.7324 178.563 44.0048C181.418 44.2771 183.961 45.0231 186.195 46.2552C188.428 47.4872 190.38 49.1179 192.033 51.1787C193.686 53.2395 194.903 55.572 195.657 58.1833C196.267 60.2944 196.56 62.4046 196.515 64.4932C196.471 66.5817 196.097 68.5806 195.384 70.5054C194.671 72.4302 193.674 74.1989 192.387 75.8271C191.099 77.4553 189.468 78.9049 187.495 80.1757C185.522 81.4466 183.295 82.4338 180.818 83.1496L180.81 83.1653ZM170.346 70.7464C172.277 71.3914 174.523 71.3376 177.073 70.6006C179.623 69.8636 181.551 68.7115 182.89 67.1216C184.216 65.5351 184.581 63.6846 183.971 61.5736C183.361 59.4626 182.074 58.0759 180.113 57.4659C178.152 56.8559 175.898 56.9255 173.335 57.666C170.773 58.4065 168.866 59.5393 167.557 61.0943C166.26 62.6458 165.908 64.4927 166.521 66.616C167.135 68.7392 168.402 70.105 170.346 70.7464Z" fill="#FC6C02"/>
<path d="M63.3338 172.705C60.2954 173.583 57.3478 173.906 54.5154 173.667C51.683 173.427 49.1719 172.699 46.9577 171.488C44.7557 170.273 42.8438 168.644 41.2342 166.597C39.6247 164.55 38.4416 162.195 37.6729 159.534C36.9042 156.874 36.6855 154.333 36.9744 151.764C37.2632 149.195 38.0028 146.813 39.2175 144.611C40.42 142.412 42.1518 140.444 44.4165 138.719C46.6812 136.993 49.331 135.686 52.3816 134.804C54.7123 134.131 56.9917 133.829 59.2078 133.902C61.4238 133.976 63.2252 134.262 64.605 134.736L68.9069 149.623L68.1381 149.845C63.5625 147.783 59.5602 147.247 56.1435 148.234C55.326 148.47 54.5854 148.79 53.9097 149.197C53.2339 149.604 52.6266 150.11 52.0997 150.712C51.5729 151.313 51.2139 152.039 51.0263 152.899C50.8387 153.76 50.8938 154.683 51.1795 155.671C51.5568 156.977 52.2123 157.964 53.1652 158.654C54.1146 159.331 55.0928 159.697 56.1276 159.755C57.1624 159.813 58.2332 159.675 59.3436 159.354C62.7603 158.367 65.8599 155.779 68.6301 151.594L69.3989 151.371L73.7008 166.258C72.8109 167.388 71.4362 168.579 69.5888 169.827C67.7378 171.062 65.6488 172.023 63.3181 172.696L63.3338 172.705Z" fill="#FC6C02"/>
<path d="M87.8829 165.607C86.2844 166.069 84.7392 166.304 83.244 166.299C81.7523 166.307 80.3471 166.066 79.0074 165.593C77.6678 165.121 76.4911 164.298 75.4652 163.126C74.4393 161.955 73.6707 160.485 73.1558 158.704C72.641 156.922 72.5365 155.233 72.8265 153.629C73.1288 152.021 73.7038 150.626 74.5883 149.431C75.4606 148.24 76.607 147.129 78.0154 146.101C79.4238 145.072 80.8937 144.211 82.4288 143.53C83.9603 142.836 85.6247 142.236 87.4063 141.721C89.5783 141.093 91.7108 140.649 93.8037 140.388L93.6485 139.851C92.2429 138.327 89.5694 138.134 85.6402 139.27C83.5048 139.887 81.4299 140.896 79.4068 142.314C77.3801 143.719 75.7342 145.253 74.4533 146.905L73.648 147.138L69.6634 133.349C71.3478 131.858 73.4284 130.41 75.8843 129.026C78.3402 127.642 80.9697 126.539 83.7885 125.724C89.7433 124.003 94.9118 124.229 99.3063 126.396C103.701 128.564 106.676 132.318 108.217 137.651L113.891 157.285L100.102 161.269L99.7671 160.11L97.2644 144.769L96.5811 144.967C98.0201 150.633 97.9762 155.194 96.418 158.632C94.8599 162.07 92.0282 164.396 87.8916 165.591L87.8829 165.607ZM89.9679 154.017C91.7128 153.513 92.9363 152.485 93.6469 150.918C94.3575 149.351 94.5215 147.585 94.1265 145.623L91.4541 146.395C88.977 147.111 87.3205 148.013 86.481 149.088C85.6416 150.164 85.3727 151.246 85.6865 152.333C85.9368 153.199 86.4725 153.771 87.2776 154.041C88.0827 154.311 88.9795 154.303 89.9679 154.017Z" fill="#FC6C02"/>
<path d="M130.645 152.443L116.319 156.583L103.156 111.031L117.482 106.892L130.645 152.443Z" fill="#FC6C02"/>
<path d="M152.887 146.82C149.836 147.702 146.897 148.009 144.065 147.77C141.229 147.518 138.702 146.781 136.488 145.57C134.274 144.358 132.366 142.742 130.751 140.723C129.136 138.704 127.951 136.388 127.197 133.777C126.597 131.703 126.328 129.625 126.372 127.537C126.42 125.461 126.806 123.458 127.507 121.537C128.22 119.612 129.216 117.843 130.501 116.203C131.785 114.563 133.404 113.117 135.356 111.865C137.304 110.601 139.494 109.624 141.923 108.923C144.912 108.059 147.815 107.762 150.645 108.042C153.476 108.321 156.003 109.058 158.217 110.27C160.431 111.481 162.355 113.106 164.005 115.155C165.639 117.195 166.84 119.519 167.587 122.106C168.335 124.692 168.587 127.304 168.31 129.869C168.033 132.435 167.294 134.817 166.091 137.015C164.889 139.214 163.157 141.182 160.892 142.907C158.628 144.632 155.962 145.932 152.899 146.817L152.887 146.82ZM143.288 133.596C144.923 134.129 146.838 134.077 149.022 133.446C151.207 132.815 152.879 131.829 154.002 130.5C155.125 129.171 155.422 127.591 154.896 125.773C154.371 123.955 153.277 122.777 151.614 122.239C149.952 121.701 148.024 121.756 145.828 122.391C143.631 123.026 142.036 124.002 140.925 125.328C139.818 126.666 139.521 128.246 140.046 130.064C140.571 131.882 141.653 133.064 143.288 133.596Z" fill="#FC6C02"/>
<path d="M188.856 135.621L174.652 139.726L164.123 103.289L178.51 99.132L182.219 120.523L182.817 120.351C181.952 116.079 181.46 112.453 181.339 109.473C181.219 106.494 181.508 104.017 182.177 102.078C182.847 100.14 183.8 98.6345 185.049 97.5595C186.287 96.488 187.924 95.6578 189.938 95.076L194.726 111.647L193.921 111.88C192.537 111.116 191.055 110.976 189.456 111.438C187.297 112.062 185.879 113.516 185.176 115.795C184.472 118.074 184.693 121.17 185.825 125.087L188.875 135.642L188.856 135.621Z" fill="#FC6C02"/>
<path d="M190.267 93.2878L189.057 89.1024C191.323 88.2494 193.204 86.6612 194.722 84.3188C196.24 81.9763 197.001 79.3499 196.991 76.431L205.268 79.407C205.362 81.654 204.676 83.809 203.237 85.8774C201.787 87.9492 199.893 89.6333 197.573 90.9384C195.241 92.247 192.81 93.0289 190.267 93.2878ZM216.811 127.542L202.424 131.7L193.016 99.1436L193.492 99.0061C195.645 100.142 198.123 100.299 200.954 99.4809C203.785 98.6628 205.712 97.2333 206.927 95.1238L207.403 94.9862L216.811 127.542Z" fill="#FC6C02"/>
<path d="M230.274 124.458C228.675 124.92 227.13 125.155 225.635 125.151C224.143 125.159 222.738 124.917 221.398 124.445C220.058 123.973 218.882 123.149 217.856 121.978C216.83 120.807 216.061 119.337 215.546 117.555C215.032 115.774 214.927 114.085 215.217 112.481C215.519 110.873 216.094 109.477 216.979 108.283C217.851 107.092 218.998 105.981 220.406 104.952C221.814 103.924 223.284 103.063 224.819 102.381C226.351 101.687 228.015 101.088 229.797 100.573C231.969 99.9451 234.101 99.5007 236.194 99.2397L236.039 98.7028C234.634 97.1786 231.96 96.986 228.031 98.1215C225.895 98.7385 223.82 99.748 221.797 101.166C219.771 102.571 218.125 104.104 216.844 105.757L216.039 105.99L212.054 92.2008C213.738 90.7092 215.819 89.2618 218.275 87.8779C220.731 86.4939 223.36 85.3903 226.179 84.5757C232.134 82.855 237.302 83.0802 241.697 85.2479C246.091 87.4156 249.067 91.17 250.608 96.5025L256.282 116.136L242.493 120.121L242.158 118.962L239.655 103.621L238.972 103.818C240.411 109.484 240.367 114.045 238.809 117.483C237.251 120.922 234.419 123.247 230.282 124.443L230.274 124.458ZM232.359 112.869C234.103 112.365 235.327 111.337 236.038 109.77C236.748 108.202 236.912 106.436 236.517 104.475L233.845 105.247C231.368 105.963 229.711 106.864 228.872 107.94C228.032 109.016 227.763 110.098 228.077 111.184C228.327 112.05 228.863 112.623 229.668 112.893C230.473 113.162 231.37 113.154 232.359 112.869Z" fill="#FC6C02"/>
<path d="M273.485 111.975C267.969 113.569 262.793 113.914 257.949 113.027L253.7 98.3229L254.615 98.0584C259.586 100.8 264.853 101.367 270.429 99.7556C271.54 99.4347 272.371 99.0623 272.951 98.6436C273.53 98.2249 273.752 97.8037 273.633 97.3888C273.551 97.1082 273.204 96.9574 272.602 96.9331C272 96.9087 271.222 96.9616 270.284 97.1005C269.345 97.2395 268.271 97.3648 267.069 97.4609C265.855 97.5605 264.613 97.655 263.324 97.7234C262.035 97.7918 260.744 97.7155 259.431 97.4734C258.118 97.2313 256.899 96.8564 255.777 96.3608C254.656 95.8652 253.647 95.0726 252.733 94.0146C251.831 92.953 251.145 91.6308 250.694 90.0689C250.144 88.1653 250.105 86.3387 250.571 84.5647C251.036 82.7906 251.892 81.2213 253.149 79.8531C254.406 78.485 255.91 77.2836 257.689 76.2541C259.455 75.2281 261.425 74.4074 263.573 73.7868C268.735 72.2952 273.944 72.1121 279.222 73.218L282.956 86.1405L282.15 86.3732C279.917 85.3261 277.361 84.7161 274.491 84.5276C271.608 84.3426 268.838 84.6406 266.166 85.4128C263.493 86.185 262.487 87.0046 262.766 87.9686C262.875 88.3469 263.354 88.5391 264.209 88.5697C265.06 88.588 266.137 88.515 267.431 88.3262C268.725 88.1373 270.167 87.9585 271.747 87.7531C273.327 87.5477 274.946 87.4766 276.604 87.5396C278.262 87.6027 279.813 87.8022 281.262 88.1502C282.712 88.4983 284.014 89.2062 285.161 90.2496C286.309 91.293 287.13 92.6689 287.613 94.3406C288.434 97.1838 288.341 99.7889 287.329 102.144C286.317 104.499 284.641 106.477 282.298 108.067C279.954 109.656 277.023 110.953 273.497 111.972L273.485 111.975Z" fill="#FC6C02"/>
<path d="M215.108 73.6702C213.558 74.118 212.06 74.2866 210.597 74.1671C209.135 74.0476 207.843 73.6938 206.702 73.0849C205.56 72.4759 204.569 71.6519 203.726 70.6128C202.884 69.5737 202.261 68.3787 201.873 67.0365C201.485 65.6942 201.364 64.4069 201.49 63.1015C201.615 61.7961 201.953 60.5877 202.536 59.4938C203.103 58.3911 203.919 57.4151 204.982 56.5657C206.033 55.7199 207.265 55.0863 208.668 54.6808C209.852 54.3388 211.024 54.1852 212.176 54.2358C213.324 54.2742 214.396 54.5066 215.388 54.9206C216.38 55.3346 217.251 55.9688 218.004 56.8354C218.757 57.702 219.313 58.7576 219.669 59.9901C219.863 60.6612 220.003 61.4668 220.099 62.3913L208.541 65.1757C208.944 66.1568 209.626 66.7793 210.581 67.019C211.54 67.2708 212.635 67.2187 213.868 66.8625C216.113 66.2137 217.913 65.0324 219.26 63.3342L219.663 63.2178L221.634 70.039C221.003 70.7371 220.112 71.4045 218.967 72.0657C217.835 72.7234 216.535 73.2577 215.095 73.6738L215.108 73.6702ZM208.302 63.4334L213.435 61.6593C213.155 61.238 212.756 60.9565 212.255 60.8237C211.754 60.6908 211.187 60.696 210.576 60.8723C209.966 61.0486 209.46 61.3537 209.044 61.7912C208.628 62.2286 208.377 62.7772 208.29 63.437L208.302 63.4334Z" fill="#FC6C02"/>
<path d="M230.983 68.6717L223.772 70.7556L218.426 52.2567L225.723 50.1481L227.603 61.0016L227.909 60.9134C227.172 56.7632 227.065 53.7399 227.6 51.84C228.136 49.9402 229.473 48.6677 231.621 48.0471C233.451 47.5182 235.057 47.7681 236.427 48.8003C237.796 49.8326 238.894 51.8026 239.74 54.7312L242.787 65.2741L235.563 67.3616L233.666 60.7967C233.525 60.3086 233.412 59.9181 233.308 59.6043C233.204 59.2906 233.074 58.9316 232.921 58.5395C232.768 58.1474 232.612 57.8355 232.452 57.604C232.293 57.3724 232.113 57.1601 231.896 56.9584C231.679 56.7566 231.446 56.6387 231.179 56.5836C230.912 56.5286 230.629 56.5574 230.337 56.642C229.958 56.7513 229.638 56.9233 229.403 57.163C229.165 57.3905 228.991 57.7051 228.891 58.091C228.791 58.4769 228.747 58.8731 228.738 59.2988C228.728 59.7245 228.788 60.2495 228.906 60.8895C229.025 61.5294 229.161 62.1379 229.303 62.7185C229.448 63.3113 229.652 64.019 229.895 64.861L230.999 68.6804L230.983 68.6717Z" fill="#FC6C02"/>
</g>
<g clip-path="url(#clip1_530_46)">
<path d="M257.73 230.855C257.622 230.779 257.506 230.692 257.382 230.595C241.703 235.313 233.979 234.44 231.232 227.915C230.69 226.627 230.443 225.165 230.392 223.62C226.358 223.113 223.831 221.287 222.495 218.112C220.108 212.439 223.228 203.43 225.297 198.562C225.699 197.62 226.095 196.755 226.491 195.964C225.828 194.496 225.352 192.771 225.287 190.791C225.187 187.734 226.111 183.3 230.73 178.742C230.122 175.961 230.787 173.102 232.642 170.603C233.867 168.953 235.424 167.28 237.106 165.753C237.102 165.724 237.097 165.697 237.092 165.669C236.518 162.255 237.874 158.866 240.815 156.374L241.973 155.387C243.652 153.952 245.175 152.67 246.594 151.559C246.606 148.995 247.79 146.527 249.9 144.768L250.073 144.624C251.843 143.148 253.671 141.715 255.564 140.5C255.566 140.16 255.586 139.815 255.627 139.465C256.016 136.026 258.278 133.165 261.811 131.679C263.13 131.123 264.49 130.649 265.79 130.246C267.036 128.216 269.297 126.526 272.557 125.196C273.14 124.958 273.704 124.739 274.245 124.536C274.935 122.642 276.535 120.384 280.192 119.13C282.498 118.339 285.459 117.72 288.219 117.26C288.321 116.963 288.439 116.667 288.577 116.372C289.298 114.814 291.61 111.147 297.5 110.76C300.052 110.592 304.067 110.1 307.374 109.66C310.437 106.514 315.91 107.039 319.819 107.412C328.085 108.204 334.894 108.989 340.368 109.617C351.119 110.855 357.608 111.601 361.512 110.856C366.072 109.981 370.789 111.847 373.517 115.588L373.596 115.698C374.756 117.29 375.468 119.082 375.761 120.919C378.324 121.642 380.643 123.177 382.252 125.39L382.333 125.503C384.251 128.138 384.963 131.315 384.54 134.344C384.164 137.035 382.892 139.607 380.772 141.577C376.811 145.255 372.525 153.395 370.777 185.888C370.447 192.102 366.662 195.3 362.787 195.963C360.367 200.643 357.329 204.405 353.198 205.161C347.692 213.316 342.495 214.917 338.848 214.636C337.696 214.547 336.151 214.227 334.555 213.304C318.66 225.773 312.797 223.102 310.381 221.833C299.541 229.666 294.15 231.231 290.348 229.797C285.446 232.488 279.344 234.48 274.579 231.339C274.257 231.126 273.908 230.868 273.552 230.558C266.646 233.311 261.344 233.419 257.729 230.859L257.73 230.855Z" fill="#FFFDD7"/>
<path d="M244.388 205.649C244.388 205.649 236.751 200.218 246.084 192.593L249.49 189.431C249.49 189.431 245.059 187.919 247.334 184.854C249.61 181.786 253.679 178.371 256.432 177.146C256.432 177.146 250.697 174.953 254.337 171.87C257.975 168.787 263.202 164.085 265.695 163.974C265.695 163.974 261.127 162.176 263.378 160.301C265.627 158.426 270.656 154.136 274.648 154.297C274.648 154.297 269.004 150.212 273.416 148.354C277.828 146.494 283.109 145.653 283.109 145.653C283.109 145.653 277.35 144.651 284.084 141.903C290.818 139.156 293.58 139.617 293.58 139.617C293.58 139.617 287.11 137.43 291.325 135.985C295.539 134.54 303.145 133.687 305.182 133.484C305.182 133.484 301.394 128.351 306.712 128C312.03 127.651 322.828 126.047 322.828 126.047C322.828 126.047 317.32 123.626 327.841 124.633C353.443 127.082 364.249 129.39 371.636 127.978C373.406 127.639 375.208 128.354 376.269 129.813C376.291 129.842 376.311 129.871 376.332 129.9C377.729 131.82 377.471 134.486 375.73 136.104C369.234 142.137 365.09 153.358 363.36 185.492C363.092 190.488 358.923 188.543 358.875 186.365C358.875 186.365 352.296 203.576 350.021 195.835C350.021 195.835 339.901 215.921 335.631 202.698C335.631 202.698 310.758 224.722 312.47 210.894C312.47 210.894 287.218 230.866 293.165 218.964C293.165 218.964 274.859 232.899 278.007 220.042C278.007 220.042 259.493 230.787 261.199 221.521C261.199 221.521 239.729 228.929 238.078 225.002C236.426 221.078 242.067 206.537 244.389 205.647L244.388 205.649Z" fill="#225124"/>
<path d="M235.654 195.852C235.654 195.852 228.017 190.421 237.35 182.796L240.756 179.634C240.756 179.634 236.324 178.123 238.6 175.057C240.876 171.989 244.944 168.574 247.697 167.349C247.697 167.349 241.963 165.156 245.603 162.073C249.24 158.991 254.468 154.288 256.96 154.177C256.96 154.177 252.393 152.379 254.644 150.504C256.893 148.63 261.921 144.339 265.914 144.5C265.914 144.5 260.269 140.415 264.681 138.557C269.093 136.697 274.375 135.856 274.375 135.856C274.375 135.856 268.616 134.854 275.35 132.106C282.083 129.359 284.846 129.82 284.846 129.82C284.846 129.82 278.376 127.634 282.59 126.188C286.805 124.743 294.411 123.89 296.447 123.687C296.447 123.687 292.659 118.554 297.978 118.203C303.296 117.854 314.093 116.25 314.093 116.25C314.093 116.25 308.586 113.829 319.107 114.836C344.709 117.285 355.515 119.593 362.902 118.181C364.672 117.842 366.473 118.557 367.535 120.016C367.557 120.045 367.576 120.074 367.598 120.103C368.995 122.023 368.736 124.689 366.996 126.307C360.5 132.34 356.355 143.561 354.626 175.695C354.358 180.691 350.189 178.746 350.141 176.568C350.141 176.568 343.562 193.779 341.287 186.039C341.287 186.039 331.166 206.124 326.896 192.901C326.896 192.901 302.024 214.925 303.735 201.097C303.735 201.097 278.483 221.069 284.43 209.168C284.43 209.168 266.124 223.103 269.273 210.245C269.273 210.245 250.759 220.99 252.465 211.724C252.465 211.724 230.995 219.132 229.343 215.205C227.691 211.281 233.332 196.74 235.654 195.85L235.654 195.852Z" fill="#1BA53C"/>
<path d="M368.511 120.146C368.535 119.971 368.514 119.787 368.439 119.615C368.222 119.11 367.637 118.879 367.136 119.098C366.214 119.5 274.574 159.897 231.989 212.793C231.646 213.22 231.711 213.846 232.135 214.192C232.56 214.536 233.185 214.47 233.529 214.041C275.806 161.531 367.008 121.323 367.925 120.925C368.255 120.781 368.466 120.481 368.513 120.149L368.511 120.146Z" fill="#225124"/>
</g>
<defs>
<clipPath id="clip0_530_46">
<rect width="286.132" height="134.537" fill="white" transform="translate(0 79.4375) rotate(-16.1177)"/>
</clipPath>
<clipPath id="clip1_530_46">
<rect width="138.961" height="150.639" fill="white" transform="translate(219 230.625) rotate(-82.0528)"/>
</clipPath>
</defs>
</svg>
