<?xml version="1.0" encoding="UTF-8"?>
<svg id="Layer_2" data-name="Layer 2" xmlns="http://www.w3.org/2000/svg" xmlns:xlink="http://www.w3.org/1999/xlink" viewBox="0 0 269.73 269.73">
  <defs>
    <style>
      .cls-1 {
        clip-path: url(#clippath);
      }

      .cls-2 {
        fill: none;
      }

      .cls-2, .cls-3, .cls-4, .cls-5, .cls-6, .cls-7, .cls-8 {
        stroke-width: 0px;
      }

      .cls-3 {
        fill: #f4db08;
      }

      .cls-4 {
        fill: #54c3c5;
      }

      .cls-5 {
        fill: #2728ec;
      }

      .cls-6 {
        fill: #17b14e;
      }

      .cls-7 {
        fill: #fff;
      }

      .cls-8 {
        fill: #fffdd7;
      }
    </style>
    <clipPath id="clippath">
      <circle class="cls-2" cx="134.87" cy="134.87" r="134.87"/>
    </clipPath>
  </defs>
  <g id="Layer_1-2" data-name="Layer 1">
    <g class="cls-1">
      <g>
        <path class="cls-8" d="m134.87,269.73c74.55,0,134.99-60.38,134.99-134.87S209.42,0,134.87,0-.12,60.38-.12,134.87s60.44,134.87,134.99,134.87Z"/>
        <path class="cls-5" d="m134.86,260.91c69.68,0,126.16-56.43,126.16-126.04S204.54,8.82,134.86,8.82,8.71,65.25,8.71,134.87s56.48,126.04,126.16,126.04Z"/>
        <path class="cls-8" d="m53.43,114.9c-.47,2.31-1.28,4.36-2.41,6.13-1.14,1.78-2.48,3.18-4.04,4.22-1.56,1.04-3.3,1.74-5.21,2.1-1.91.35-3.88.33-5.9-.08-1.98-.4-3.77-1.14-5.37-2.21-1.61-1.07-2.92-2.39-3.95-3.95-1.03-1.56-1.72-3.38-2.08-5.46s-.3-4.29.17-6.6c.36-1.77.95-3.37,1.75-4.81.81-1.43,1.6-2.53,2.39-3.28l10.77,2.19-.12.58c-1.65,1.09-2.86,2.2-3.62,3.31-.76,1.12-1.3,2.46-1.62,4.02-.4,1.99-.3,3.63.33,4.93.63,1.3,1.69,2.1,3.19,2.4,1.5.31,2.82-.02,3.94-.98,1.13-.96,1.89-2.42,2.29-4.38.32-1.56.35-3.01.08-4.35-.26-1.33-.93-2.81-2.02-4.45l.12-.58,10.66,2.17c.43,1,.73,2.32.91,3.95.18,1.63.09,3.34-.27,5.11h.01Z"/>
        <path class="cls-8" d="m62.32,92.98c-1.18,2.05-2.6,3.74-4.26,5.06-1.66,1.33-3.39,2.24-5.2,2.74-1.81.49-3.68.61-5.6.36-1.92-.26-3.75-.89-5.51-1.9-1.75-1.01-3.21-2.29-4.39-3.83-1.18-1.54-2.01-3.22-2.49-5.04-.48-1.82-.56-3.78-.25-5.88.32-2.1,1.06-4.18,2.24-6.2,1.15-2,2.57-3.65,4.22-4.97,1.65-1.31,3.4-2.22,5.22-2.7,1.81-.49,3.69-.61,5.63-.37,1.93.25,3.77.87,5.51,1.88,1.4.81,2.64,1.79,3.68,2.91,1.05,1.13,1.87,2.39,2.47,3.77.61,1.38.98,2.84,1.13,4.36.15,1.53.02,3.13-.38,4.81-.4,1.68-1.08,3.35-2.03,4.99h.01Zm-11.92-1.26c1.36-.65,2.52-1.82,3.5-3.51.98-1.69,1.41-3.3,1.31-4.82-.1-1.52-.86-2.69-2.27-3.5-1.42-.82-2.8-.89-4.15-.21-1.35.67-2.52,1.86-3.5,3.56-.98,1.69-1.42,3.28-1.32,4.77.1,1.49.86,2.64,2.27,3.47,1.4.81,2.79.9,4.15.24Z"/>
        <path class="cls-8" d="m77.21,73.32l-7.32,6.24-18.45-21.59,8.16-6.95,13.27,6.11,7.62,4.74.29-.24c-2.59-1.71-4.4-2.97-5.42-3.79-2-1.59-3.93-3.48-5.81-5.67l-4.77-5.59,7.31-6.23,18.44,21.59-8.14,6.94-13.53-6.2-7.35-4.61-.27.23c.19.13.66.44,1.4.92.74.49,1.21.81,1.42.94.21.14.63.44,1.26.88.63.44,1.08.78,1.37,1.02.29.24.7.59,1.26,1.06.56.47,1.04.9,1.45,1.31.4.41.88.9,1.41,1.47.54.57,1.08,1.17,1.63,1.81l4.77,5.59h0Z"/>
        <path class="cls-8" d="m108.61,55.34c-4.14,1.33-7.96,1.72-11.48,1.14l-3.37-10.46.7-.22c3.62,1.95,7.63,2.22,12.06.79.78-.25,1.36-.53,1.76-.85.39-.31.54-.62.44-.92-.06-.17-.27-.29-.64-.35-.37-.06-.85-.06-1.44-.01-.59.04-1.26.1-2.01.18-.75.08-1.56.13-2.4.16-.85.03-1.71.03-2.57,0-.86-.03-1.72-.15-2.56-.36-.84-.21-1.63-.5-2.35-.85-.72-.35-1.36-.88-1.94-1.55-.58-.67-1.01-1.48-1.31-2.4-.45-1.4-.54-2.76-.25-4.09.29-1.33.86-2.53,1.72-3.59.86-1.06,1.91-2,3.17-2.82,1.25-.82,2.64-1.47,4.16-1.97,3.87-1.24,7.7-1.33,11.47-.24l2.96,9.18-.53.17c-1.77-.84-3.71-1.36-5.83-1.54-2.11-.19-4.11.02-5.98.63-1.81.58-2.61,1.21-2.39,1.88.08.24.31.39.7.45.39.06.89.06,1.5,0,.61-.06,1.3-.15,2.08-.26.77-.11,1.6-.21,2.46-.3.87-.08,1.74-.14,2.64-.16.89-.02,1.77.05,2.63.22.86.16,1.67.42,2.41.75.74.33,1.4.85,2,1.53.59.68,1.04,1.51,1.36,2.49,1.03,3.17.7,5.9-.97,8.16-1.67,2.26-4.4,4.01-8.18,5.22h0Z"/>
        <path class="cls-8" d="m136.34,50.6l-9.6.26-.55-20.46-7.31.19-.21-7.91,24.26-.65.21,7.91-7.35.19.55,20.46Z"/>
        <path class="cls-8" d="m164.89,55.38l-21.34-4.97,6.45-27.64,21.1,4.92-1.8,7.71-11.73-2.73-.75,3.2c.39-.47,1.09-.58,2.07-.35l8.89,2.07-1.68,7.21-8.89-2.07c-1.03-.24-1.6-.65-1.71-1.21l-.79,3.39,11.96,2.79-1.79,7.69h.01Z"/>
        <path class="cls-8" d="m183.82,65.92l-13.45-7.81,8.39-27.96,8.77,5.09-4.65,13.99c-1.27,3.83-2.68,7.1-4.26,9.82l.33.19c1.54-2.65,3.67-5.48,6.4-8.51l9.89-11.02,8.77,5.09-20.16,21.12h0Z"/>
        <path class="cls-8" d="m196.07,76.85l-7.01-6.59,19.48-20.67,7.01,6.59-19.48,20.67Z"/>
        <path class="cls-8" d="m202.57,84.59l-5.61-8.44,27.43-10.05,8.61,12.94-19.89,21.38-5.62-8.44,2.39-2.42c.56-.56,1.15-.96,1.78-1.18l-4.16-6.25c-.45.49-1.04.88-1.78,1.19l-3.16,1.26h0Zm10.49-5.11l-.18.12,3.21,4.83.18-.12c.12-.64,1.06-1.85,2.78-3.65,1.15-1.16,2.45-2.36,3.9-3.61,1.45-1.25,2.47-2.07,3.07-2.47l-.21-.31c-.59.4-1.75,1.02-3.46,1.88-1.72.85-3.33,1.58-4.85,2.2-2.32.9-3.81,1.28-4.45,1.15h0Z"/>
        <path class="cls-8" d="m225.08,119.22c-.27-1.59-.02-2.95.74-4.09.77-1.13,1.84-1.82,3.23-2.06,1.37-.24,2.61.06,3.73.89,1.12.83,1.81,2.02,2.08,3.58.26,1.55,0,2.9-.77,4.05-.78,1.15-1.86,1.85-3.22,2.08-1.38.24-2.62-.06-3.73-.87-1.11-.81-1.79-2.01-2.07-3.58Z"/>
        <path class="cls-8" d="m215.83,156.3c.51-2.31,1.36-4.33,2.53-6.09,1.17-1.75,2.54-3.13,4.13-4.13,1.58-1.01,3.33-1.67,5.25-1.99,1.92-.32,3.89-.26,5.9.19,1.98.44,3.75,1.22,5.33,2.32,1.58,1.1,2.87,2.44,3.87,4.02,1,1.58,1.66,3.41,1.98,5.5.31,2.09.21,4.29-.3,6.6-.4,1.76-1.01,3.36-1.84,4.76-.83,1.42-1.65,2.49-2.45,3.24l-10.73-2.4.13-.58c1.67-1.06,2.9-2.14,3.68-3.24.78-1.1,1.35-2.43,1.7-3.99.45-1.98.37-3.63-.23-4.94-.6-1.31-1.65-2.13-3.14-2.47-1.49-.33-2.82-.04-3.96.9-1.14.93-1.93,2.38-2.37,4.34-.35,1.56-.41,3.01-.17,4.34.24,1.33.88,2.83,1.93,4.49l-.13.58-10.61-2.38c-.41-1.01-.69-2.33-.83-3.97-.15-1.63-.02-3.33.38-5.1h0Z"/>
        <path class="cls-8" d="m206.5,178.06c1.22-2.02,2.68-3.68,4.36-4.98s3.43-2.18,5.25-2.63c1.82-.46,3.68-.54,5.6-.24,1.91.29,3.73.97,5.46,2.01,1.73,1.04,3.16,2.35,4.31,3.91,1.15,1.56,1.94,3.26,2.39,5.09.45,1.83.49,3.79.13,5.88-.36,2.1-1.15,4.15-2.36,6.16-1.2,1.97-2.64,3.61-4.33,4.88-1.68,1.28-3.44,2.15-5.27,2.6-1.83.45-3.7.54-5.63.25-1.93-.29-3.75-.94-5.47-1.99-1.39-.84-2.6-1.83-3.62-2.99-1.02-1.15-1.82-2.42-2.4-3.82-.58-1.4-.92-2.86-1.04-4.38s.04-3.13.48-4.8c.44-1.67,1.14-3.32,2.13-4.95Zm11.89,1.49c-1.37.62-2.57,1.76-3.57,3.44-1.01,1.67-1.48,3.27-1.41,4.79.07,1.53.81,2.71,2.19,3.55,1.4.85,2.78.95,4.15.3,1.36-.65,2.56-1.81,3.57-3.49,1.01-1.67,1.48-3.25,1.41-4.74-.07-1.49-.81-2.66-2.2-3.51-1.39-.84-2.77-.95-4.15-.33h0Z"/>
        <path class="cls-8" d="m191.22,197.42l7.45-6.1,18.01,21.95-8.29,6.79-13.15-6.38-7.52-4.9-.29.24c2.56,1.76,4.34,3.06,5.35,3.89,1.97,1.63,3.87,3.56,5.69,5.78l4.66,5.68-7.43,6.09-18.01-21.95,8.27-6.77,13.41,6.48,7.26,4.76.28-.23c-.2-.13-.65-.45-1.38-.95-.73-.51-1.2-.83-1.4-.98-.21-.15-.62-.45-1.25-.9-.62-.46-1.07-.81-1.35-1.05s-.69-.6-1.24-1.08c-.56-.48-1.03-.92-1.43-1.34-.4-.42-.85-.92-1.38-1.49-.52-.58-1.06-1.19-1.59-1.85l-4.66-5.68h0Z"/>
        <path class="cls-8" d="m159.43,214.78c4.17-1.25,8-1.55,11.5-.91l3.16,10.52-.7.21c-3.57-2.03-7.59-2.38-12.04-1.03-.79.24-1.38.51-1.77.81-.4.3-.55.61-.46.91.06.18.26.3.63.35.37.06.85.08,1.44.04.59-.04,1.27-.08,2.02-.14.75-.06,1.56-.1,2.41-.11.85-.01,1.71,0,2.57.05.86.04,1.71.18,2.55.41.84.23,1.62.53,2.33.9.71.38,1.35.9,1.9,1.59s.98,1.5,1.26,2.43c.43,1.4.48,2.77.17,4.1-.31,1.33-.9,2.51-1.79,3.55-.88,1.04-1.95,1.96-3.23,2.76-1.27.79-2.67,1.42-4.2,1.88-3.89,1.17-7.72,1.17-11.47.01l-2.77-9.23.53-.16c1.75.88,3.69,1.43,5.79,1.66,2.11.23,4.1.06,5.99-.51,1.82-.55,2.63-1.15,2.43-1.83-.07-.24-.3-.4-.69-.46-.39-.07-.88-.08-1.49-.03-.61.06-1.31.12-2.09.22-.78.1-1.6.17-2.47.24-.87.07-1.75.1-2.64.11-.89,0-1.76-.08-2.62-.26-.86-.18-1.66-.45-2.39-.8-.73-.35-1.39-.88-1.96-1.57-.57-.69-1.01-1.53-1.31-2.52-.96-3.2-.58-5.91,1.13-8.14,1.72-2.23,4.48-3.92,8.28-5.06h0Z"/>
        <path class="cls-8" d="m131.63,219.02l9.61-.18.4,20.46,7.31-.14.15,7.91-24.27.46-.15-7.92,7.35-.14-.39-20.47h0Z"/>
        <path class="cls-8" d="m103.2,213.6l21.24,5.4-7.01,27.5-21.01-5.34,1.95-7.67,11.67,2.97.81-3.18c-.4.46-1.1.56-2.08.31l-8.85-2.25,1.83-7.18,8.85,2.25c1.02.26,1.59.67,1.69,1.24l.86-3.38-11.9-3.03,1.95-7.66h0Z"/>
        <path class="cls-8" d="m84.46,202.68l13.29,8.08-8.95,27.79-8.66-5.27,4.94-13.89c1.34-3.8,2.83-7.04,4.46-9.73l-.32-.19c-1.59,2.61-3.78,5.4-6.56,8.38l-10.11,10.81-8.66-5.27,20.59-20.71h0Z"/>
        <path class="cls-8" d="m72.44,191.51l6.88,6.73-19.89,20.27-6.88-6.73,19.89-20.27Z"/>
        <path class="cls-8" d="m66.1,183.62l5.44,8.55-27.63,9.48-8.34-13.12,20.32-20.97,5.44,8.55-2.43,2.37c-.57.55-1.17.93-1.81,1.15l4.03,6.33c.46-.48,1.06-.86,1.81-1.15l3.18-1.2h0Zm-10.6,4.9l.18-.12-3.12-4.9-.19.12c-.14.64-1.09,1.83-2.85,3.59-1.17,1.14-2.5,2.31-3.97,3.53-1.48,1.22-2.52,2.02-3.12,2.4l.2.32c.6-.38,1.77-.98,3.5-1.8,1.73-.82,3.36-1.51,4.89-2.1,2.34-.85,3.83-1.2,4.47-1.06h0Z"/>
        <path class="cls-8" d="m44.3,148.52c.24,1.59-.03,2.95-.83,4.07-.79,1.12-1.88,1.79-3.27,1.99-1.37.21-2.61-.11-3.71-.96-1.1-.85-1.77-2.06-2.01-3.62-.24-1.55.05-2.9.86-4.03.8-1.13,1.89-1.81,3.26-2.01,1.38-.21,2.62.1,3.71.94,1.08.83,1.75,2.04,1.99,3.63h0Z"/>
        <path class="cls-7" d="m186.11,134.94c-.64-1.49-6.11-3.76-6.97-3.36,0,0,.53-3.53-4.03-2.97l-1.13.07,7.82-8.56c-.06-.01-.1-.04-.16-.05l2.12-2.33-54.73-40.9-16.65,27.37c-.07-.03-.13-.08-.2-.11l-31.31,51.92,40.48,30.25,24.99-27.34c1.55.42,3.04.55,2.23-.88,0,0,8.17,2.5,5.68-2.15,0,0,12.6-1.04,8.36-4.21,0,0,12.13-1.69,7.31-3.18,0,0,8.65-1.37,4.3-3.88,0,0,7.83-2.26,4.84-4.23,0,0,7.7-3.95,7.06-5.44h0Z"/>
        <path class="cls-7" d="m122.57,199.02l-54.26-40.54,40.49-67.14.24.13,17.32-28.48,68.89,51.48,2.71,2.06-8.24,9.02c2.48,1.58,4.19,3.47,5.12,5.65.68,1.57,2.44,7.09-3.14,12.21-.95.88-2.14,1.76-3.64,2.73-.9,1.72-2.31,3.23-4.21,4.51-1.14,2.32-3.15,4.13-6,5.41-1.96,1.99-4.75,3.14-7.57,3.87-2.15,2.38-5.3,3.7-8.68,4.47-2.38,2.73-5.91,4.01-10.19,3.77-.28.09-.56.17-.86.24l-27.99,30.62h0Zm-29.12-45.45l26.71,19.96,16.2-17.73-5.38-9.43-2.82-.88,2.13-.34-1.82-3.19,7.49,2.29,14.68-2.32-.45-.26,9.07-2.62-8.04.48,13.58-14.86-.13-.04,5.05-5.54-37.99-28.38-15.98,26.27-.17-.1-22.13,36.69h0Z"/>
        <path class="cls-4" d="m121.36,186.27l-40.47-30.25,48.16-79.17,54.73,40.9-62.42,68.53Z"/>
        <path class="cls-3" d="m112.2,104.09c23.55,13.19,30.15,3.5,69.62,16.03l-60.45,66.15-40.48-30.25,31.31-51.92h0Z"/>
        <path class="cls-6" d="m179.15,131.58s.53-3.53-4.03-2.97l-1.77.11s.76-1.62-.68-1.8c-1.44-.18-3.45.04-4.51.47,0,0,.91-2.15-.89-1.97-1.81.19-4.47.39-5.16,1.04,0,0,.72-1.73-.4-1.6-1.11.12-3.61.38-4.62,1.52,0,0,.37-2.63-1.3-1.9-1.68.72-3.3,1.95-3.3,1.95,0,0,1.24-1.85-1.29-.71-2.53,1.12-3.14,2.01-3.14,2.01,0,0,1.11-2.35-.4-1.58-1.51.78-3.75,2.65-4.35,3.15,0,0-.4-2.39-1.91-1.02-1.5,1.37-4.79,3.92-4.79,3.92,0,0,.79-2.15-1.71,1.01-6.09,7.68-8.31,11.26-10.65,12.92-.56.4-.84,1.08-.72,1.76,0,.01,0,.03,0,.04.16.89.95,1.52,1.86,1.47,3.37-.2,7.54,1.61,16.79,9.59,1.44,1.24,2.01-.42,1.43-1,0,0,6.45,2.72,4.93.06,0,0,8.17,2.5,5.68-2.15,0,0,12.6-1.04,8.36-4.21,0,0,12.13-1.69,7.31-3.18,0,0,8.65-1.37,4.3-3.88,0,0,7.83-2.26,4.84-4.23,0,0,7.7-3.95,7.06-5.44s-6.11-3.76-6.97-3.36h0Z"/>
        <path class="cls-6" d="m108.7,143.94s1.52-.91,2.12,1.28l.29.83s.6-.65.95-.03c.35.63.63,1.59.63,2.15,0,0,.81-.83,1.07.04.26.86.67,2.12.49,2.56,0,0,.66-.65.81-.12.15.53.51,1.72.17,2.4,0,0,1.13-.67,1.12.24-.01.9-.27,1.88-.27,1.88,0,0,.61-.92.57.45-.04,1.37-.33,1.81-.33,1.81,0,0,.87-.95.8-.11-.07.84-.51,2.22-.63,2.58,0,0,1.18-.26.83.68-.35.95-.89,2.93-.89,2.93,0,0,.84-.77-.14.97-2.38,4.24-3.59,5.93-3.92,7.31-.08.33-.34.59-.67.66h-.02c-.44.1-.88-.15-1.02-.58-.54-1.58-2.16-3.15-7.57-5.88-.84-.42-.19-1,.2-.84,0,0-2.47-2.44-.96-2.25,0,0-2.69-3.27-.08-3.01,0,0-1.9-5.97.35-4.63,0,0-1.51-5.88.08-3.95,0,0-1.01-4.22.97-2.7,0,0-.44-4.01,1.03-3.01,0,0,.36-4.27,1.16-4.26.8.01,2.88,2.09,2.86,2.56h0Z"/>
        <path class="cls-6" d="m126.12,126.46s.67,1.06-.87,1.52l-.58.22s.47.41.03.67c-.44.26-1.11.47-1.51.49,0,0,.6.56,0,.76-.6.19-1.49.51-1.8.4,0,0,.47.45.1.57-.38.12-1.21.39-1.7.17,0,0,.49.79-.15.79s-1.34-.16-1.34-.16c0,0,.66.42-.31.41-.97,0-1.29-.2-1.29-.2,0,0,.69.6.1.56-.59-.03-1.57-.32-1.84-.4,0,0,.21.83-.47.6-.67-.23-2.09-.58-2.09-.58,0,0,.56.58-.69-.08-3.04-1.6-4.26-2.43-5.24-2.63-.24-.05-.42-.23-.48-.46h0c-.08-.32.09-.63.39-.74,1.1-.41,2.18-1.58,4.02-5.44.29-.6.7-.15.6.12,0,0,1.68-1.78,1.57-.72,0,0,2.26-1.95,2.12-.11,0,0,4.18-1.45,3.27.17,0,0,4.12-1.17,2.79-.01,0,0,2.96-.79,1.93.64,0,0,2.83-.38,2.15.67,0,0,3.03.18,3.03.74,0,.57-1.42,2.07-1.76,2.06h0Z"/>
      </g>
    </g>
  </g>
</svg>