<?xml version="1.0" encoding="UTF-8"?>
<svg id="Layer_2" data-name="Layer 2" xmlns="http://www.w3.org/2000/svg" xmlns:xlink="http://www.w3.org/1999/xlink" viewBox="0 0 265.81 265.81">
  <defs>
    <style>
      .cls-1 {
        clip-path: url(#clippath);
      }

      .cls-2 {
        fill: none;
      }

      .cls-2, .cls-3 {
        stroke-width: 0px;
      }

      .cls-3 {
        fill: #ffd600;
      }
    </style>
    <clipPath id="clippath">
      <circle class="cls-2" cx="132.9" cy="132.9" r="132.9"/>
    </clipPath>
  </defs>
  <g id="Layer_1-2" data-name="Layer 1">
    <g class="cls-1">
      <path class="cls-3" d="m811.69,403.97c71.91-3.33,129.17-62.72,129.17-135.56-72.84,0-132.23,57.53-135.38,129.67-3.29-71.21-61.38-128.07-133.02-129.3v-.23c71.88-1.07,130.2-58.16,133.32-129.6,3.32,72.01,62.64,129.34,135.38,129.34,0-72.94-57.46-132.4-129.5-135.56,71.91-3.33,129.16-62.72,129.16-135.56-72.84,0-132.22,57.53-135.38,129.67-3.22-71.17-61.31-128.04-132.96-129.27v-.37c-72.84,0-132.22,57.53-135.38,129.67C533.81,55.06,474.8-2.51,402.32-2.81c-72.84,0-132.23,57.53-135.38,129.67C263.68,55.66,205.56-1.21,133.95-2.44v-.37C61.11-2.81,1.73,54.73-1.43,126.86-4.75,54.86-64.1-2.51-136.81-2.51c0,72.94,57.46,132.4,129.5,135.56-71.91,3.33-129.2,62.76-129.2,135.56C-63.67,268.61-4.29,211.08-1.13,138.94c3.29,71.21,61.38,128.07,133.02,129.3v.23C60.01,269.54,1.69,326.64-1.43,398.08c-3.32-72.01-62.64-129.34-135.38-129.34,0,72.94,57.46,132.4,129.5,135.56-71.91,3.33-129.2,62.72-129.2,135.53v1221.36H941.19V539.53c0-72.94-57.46-132.4-129.5-135.56Zm-12.09.3c-65.93,3.06-119.5,53.24-127.97,117.69-8.34-64.69-62.18-115.1-128.34-118.02,65.93-3.06,119.5-53.24,127.97-117.69,8.34,64.68,62.14,115.1,128.34,118.02ZM671.29,15.06c8.34,64.69,62.14,115.1,128.34,118.02-65.93,3.06-119.5,53.24-127.97,117.69-8.34-64.68-62.17-115.1-128.34-118.02,65.93-3.06,119.5-53.24,127.97-117.69Zm-133.85,123.91c3.29,71.21,61.38,128.07,133.02,129.3v.23c-71.88,1.06-130.2,58.16-133.32,129.6-3.32-71.81-62.34-129.04-134.78-129.34v-.13c72.71-.13,131.96-57.6,135.12-129.67h-.03Zm-264.28,265.03c69.02-3.19,124.52-58.06,128.87-126.84,4.22,69.04,59.95,124.11,129.2,127.14-69.02,3.2-124.52,58.06-128.87,126.84-4.22-69.04-59.95-124.11-129.2-127.14ZM402.02,5.91c4.22,69.04,59.95,124.11,129.2,127.14-69.02,3.19-124.52,58.06-128.87,126.84-4.22-69.04-59.95-124.11-129.2-127.14,69.02-3.19,124.52-58.06,128.87-126.84Zm-134.75,133.03c3.32,71.81,62.34,129.04,134.78,129.34v.13c-72.71.13-131.96,57.6-135.11,129.67-3.29-71.21-61.38-128.07-133.02-129.3v-.23c71.88-1.07,130.2-58.16,133.32-129.6h.03ZM4.75,132.75c65.93-3.06,119.5-53.24,127.97-117.69,8.34,64.69,62.14,115.1,128.34,118.02-65.93,3.06-119.5,53.24-127.97,117.69-8.34-64.68-62.17-115.1-128.34-118.02Zm127.97,153.53c8.34,64.68,62.14,115.1,128.34,118.02-65.93,3.06-119.5,53.24-127.97,117.69-8.34-64.68-62.17-115.09-128.34-118.02,65.93-3.06,119.5-53.24,127.97-117.69Zm268.97,253.25h.36v.33l-.36-.33Z"/>
    </g>
  </g>
</svg>