<svg width="1920" height="677" viewBox="0 0 1920 677" fill="none" xmlns="http://www.w3.org/2000/svg">
<path d="M240.011 84.7656H0V169.528H240.011V84.7656Z" fill="#87C700"/>
<path d="M240.011 254.289H0V339.051H240.011V254.289Z" fill="#87C700"/>
<path d="M240.011 423.812H0V508.575H240.011V423.812Z" fill="#87C700"/>
<path d="M240.011 593.336H0V678.098H240.011V593.336Z" fill="#87C700"/>
<path d="M480.019 0H240.008V84.7621H480.019V0Z" fill="#87C700"/>
<path d="M480.019 169.523H240.008V254.286H480.019V169.523Z" fill="#87C700"/>
<path d="M480.019 339.047H240.008V423.809H480.019V339.047Z" fill="#87C700"/>
<path d="M480.019 508.57H240.008V593.332H480.019V508.57Z" fill="#87C700"/>
<path d="M719.988 84.7656H479.977V169.528H719.988V84.7656Z" fill="#87C700"/>
<path d="M719.988 254.289H479.977V339.051H719.988V254.289Z" fill="#87C700"/>
<path d="M719.988 423.812H479.977V508.575H719.988V423.812Z" fill="#87C700"/>
<path d="M719.988 593.336H479.977V678.098H719.988V593.336Z" fill="#87C700"/>
<path d="M960.003 0H719.992V84.7621H960.003V0Z" fill="#87C700"/>
<path d="M960.003 169.523H719.992V254.286H960.003V169.523Z" fill="#87C700"/>
<path d="M960.003 339.047H719.992V423.809H960.003V339.047Z" fill="#87C700"/>
<path d="M960.003 508.57H719.992V593.332H960.003V508.57Z" fill="#87C700"/>
<path d="M1200.01 84.8125H960V169.568H1200.01V84.8125Z" fill="#87C700"/>
<path d="M1200.01 254.32H960V339.076H1200.01V254.32Z" fill="#87C700"/>
<path d="M1200.01 423.836H960V508.591H1200.01V423.836Z" fill="#87C700"/>
<path d="M1200.01 593.344H960V678.099H1200.01V593.344Z" fill="#87C700"/>
<path d="M1440.03 0.0546875H1200.02V84.8103H1440.03V0.0546875Z" fill="#87C700"/>
<path d="M1440.03 169.57H1200.02V254.326H1440.03V169.57Z" fill="#87C700"/>
<path d="M1440.03 339.078H1200.02V423.834H1440.03V339.078Z" fill="#87C700"/>
<path d="M1440.03 508.586H1200.02V593.342H1440.03V508.586Z" fill="#87C700"/>
<path d="M1679.99 84.8125H1439.98V169.568H1679.99V84.8125Z" fill="#87C700"/>
<path d="M1679.99 254.32H1439.98V339.076H1679.99V254.32Z" fill="#87C700"/>
<path d="M1679.99 423.836H1439.98V508.591H1679.99V423.836Z" fill="#87C700"/>
<path d="M1679.99 593.344H1439.98V678.099H1679.99V593.344Z" fill="#87C700"/>
<path d="M1920 0.0546875H1679.98V84.8103H1920V0.0546875Z" fill="#87C700"/>
<path d="M1920 169.57H1679.98V254.326H1920V169.57Z" fill="#87C700"/>
<path d="M1920 339.078H1679.98V423.834H1920V339.078Z" fill="#87C700"/>
<path d="M1920 508.586H1679.98V593.342H1920V508.586Z" fill="#87C700"/>
</svg>
