<svg width="46" height="47" viewBox="0 0 46 47" fill="none" xmlns="http://www.w3.org/2000/svg">
<path d="M16.8495 41.3961C24.2947 48.8413 33.7597 48.2776 40.5238 41.537C45.5968 36.464 46.8181 31.1091 44.9392 24.7208C43.9528 20.5402 41.5572 15.8664 39.4434 11.8737C38.363 9.80688 37.0478 7.15291 36.2258 6.21345C35.2863 5.13308 33.9241 5.08611 32.8672 6.00208C31.6459 7.05897 31.5989 8.44466 32.3505 10.6524L35.028 17.9802C35.3098 18.6847 35.2628 19.1075 35.0045 19.3659C34.6991 19.6712 34.2999 19.6947 33.7597 19.1545L16.2153 1.61012C15.135 0.529741 13.4439 0.529741 12.3636 1.58663C11.3067 2.66701 11.3067 4.35803 12.3636 5.4384L25.1402 18.215C24.5765 18.4969 23.9659 18.8257 23.3787 19.2249L8.62922 4.45197C7.54885 3.39508 5.85782 3.39508 4.77745 4.45197C3.72056 5.53235 3.72056 7.22337 4.77745 8.28026L19.3625 22.8653C18.9163 23.4055 18.4935 23.9457 18.0942 24.5094L4.73047 11.1456C3.6501 10.0652 1.95908 10.0652 0.878702 11.1456C-0.178187 12.2025 -0.178187 13.917 0.878702 14.9739L15.3933 29.4885C15.135 30.2166 14.9236 30.9447 14.7827 31.6492L4.6835 21.5501C3.60313 20.4932 1.9121 20.4697 0.831729 21.5501C-0.22516 22.607 -0.22516 24.3215 0.831729 25.3784L16.8495 41.3961Z" fill="#00943B"/>
</svg>
