<svg width="88" height="91" viewBox="0 0 88 91" fill="none" xmlns="http://www.w3.org/2000/svg">
<path d="M2.09385 33.2614C3.50966 34.1353 5.25872 33.7372 6.22498 32.332C16.41 17.479 31.4916 11.3306 46.2422 14.7467L37.9816 50.1672C37.7498 51.2076 36.9927 51.6073 36.3339 51.4755C35.6979 51.3088 35.2891 50.7939 35.0939 49.7233L32.4376 34.3876C32.0213 31.9813 30.8297 30.4594 28.6567 29.9852C25.6508 29.2656 23.1642 30.8706 22.5446 33.4949C22.3583 34.4655 22.3325 35.3423 22.4096 36.1373L24.5778 58.0057C26.4206 76.1867 35.8707 85.8261 49.4886 88.9998C67.6615 93.258 80.6732 84.2702 85.1845 64.8722L87.0645 56.8147C88.7672 49.4856 86.313 43.9627 82.1169 43.0129C81.0993 42.7463 80.389 43.2262 80.1451 44.209L79.3498 47.7115C79.0075 49.2258 78.0564 49.8466 77.166 49.6133C76.1833 49.3694 75.5973 48.4411 75.9624 46.892L76.4699 44.5918C77.4985 40.1989 75.3636 36.6219 71.4795 35.7266C69.676 35.2949 68.6325 35.905 68.2675 37.4542L67.1389 42.2287C66.7738 43.7778 65.8803 44.3865 64.9899 44.1532C63.9496 43.9214 63.3985 43.0158 63.7863 41.4319L64.78 37.0162C65.9192 32.1493 63.6737 29.0463 59.8472 28.1389C58.1133 27.7526 56.9775 28.3522 56.6352 29.8664L54.4341 39.2535C54.069 40.8026 53.1406 41.3886 52.2624 41.2128C51.2796 40.9689 50.6936 40.0406 51.0587 38.4915L58.268 7.49867C59.0088 4.30807 57.4023 1.67152 54.6508 1.01861C51.7146 0.344492 49.2053 1.98428 48.4418 5.2097L47.6238 8.74707C30.4806 4.81293 12.3067 11.9726 1.22046 28.9683C0.289033 30.3962 0.712868 32.4103 2.09385 33.2614Z" fill="#FFFDD7"/>
</svg>
