<svg width="304" height="298" viewBox="0 0 304 298" fill="none" xmlns="http://www.w3.org/2000/svg">
<g clip-path="url(#clip0_372_541)">
<path d="M147.754 37.0759C147.951 37.0592 148.17 37.0478 148.407 37.0404C162.017 16.4732 171.804 10.0338 181.269 14.9279C183.136 15.8929 184.83 17.344 186.377 19.0797C191.537 15.7756 196.221 15.4483 200.826 17.8293C209.053 22.0813 214.117 35.4992 216.407 43.1179C216.849 44.5944 217.224 45.976 217.527 47.2706C219.708 48.328 221.921 49.8612 223.904 52.0861C226.963 55.5216 230.163 61.5355 229.204 71.2562C232.586 73.8819 234.569 77.8271 234.828 82.5029C234.998 85.5891 234.807 89.0242 234.329 92.4107C234.362 92.4394 234.393 92.4654 234.426 92.4941C238.378 95.8851 240.071 101.107 239.066 106.822L238.676 109.08C238.114 112.356 237.584 115.306 237.011 117.957C239.467 120.931 240.472 124.924 239.722 128.991L239.661 129.324C239.032 132.735 238.295 136.154 237.274 139.383C237.599 139.778 237.907 140.196 238.198 140.639C241.058 144.988 241.194 150.474 238.534 155.598C237.542 157.512 236.424 159.371 235.307 161.09C235.819 164.636 234.827 168.769 232.334 173.45C231.887 174.287 231.446 175.083 231.014 175.839C232.039 178.692 232.362 182.845 229.334 187.819C227.425 190.956 224.593 194.527 221.84 197.72C222.008 198.16 222.155 198.617 222.28 199.091C222.946 201.585 223.8 208.051 217.352 214.178C214.558 216.833 210.383 221.272 206.976 224.969C206.46 231.556 199.616 236.227 194.73 239.565C184.396 246.62 175.755 252.279 168.811 256.831C155.17 265.767 146.937 271.162 143.133 275.786C138.695 281.194 131.436 283.586 124.674 281.895L124.477 281.844C121.602 281.122 119.051 279.738 116.942 277.899C113.278 279.535 109.115 279.997 105.12 278.992L104.918 278.94C100.159 277.744 96.2749 274.76 93.8476 270.853C91.6915 267.382 90.6877 263.184 91.2455 258.863C92.2907 250.794 89.4147 237.258 60.1469 198.032C54.5452 190.534 55.8482 183.189 59.6982 178.688C57.9924 170.948 57.8885 163.672 61.9446 158.815C60.4669 144.085 64.9425 137.224 69.4361 134.032C70.8562 133.025 72.9528 131.904 75.6906 131.432C82.0896 101.7 91.4515 99.1326 95.4709 98.2693C100.48 78.7679 105.216 71.7607 111 69.7521C114.085 61.9172 119.232 53.7317 127.774 52.7664C128.353 52.7018 129.005 52.6636 129.717 52.6791C135.062 42.8387 141.098 37.6027 147.749 37.0748L147.754 37.0759Z" fill="#FFFDD7"/>
<path d="M187.477 53.3357C187.477 53.3357 201.551 52.2466 198.086 70.0548L197.187 76.9926C197.187 76.9926 203.774 74.4662 204.092 80.2023C204.411 85.9411 202.988 93.8095 200.979 97.8786C200.979 97.8786 209.732 94.8838 208.486 101.954C207.242 109.023 205.717 119.497 202.938 122.029C202.938 122.029 209.958 119.702 209.157 124.038C208.359 128.373 206.667 138.178 201.889 141.842C201.889 141.842 212.359 141.119 209.039 147.519C205.721 153.922 200.415 159.987 200.415 159.987C200.415 159.987 208.049 155.592 202.898 165.259C197.746 174.926 194.103 177.057 194.103 177.057C194.103 177.057 203.701 173.344 200.212 179.077C196.723 184.811 188.738 193.13 186.574 195.328C186.574 195.328 195.904 197.606 190.083 203.14C184.261 208.67 173.302 220.935 173.302 220.935C173.302 220.935 182.011 218.421 168.858 227.402C136.853 249.258 122.117 257.01 114.922 265.764C113.199 267.863 110.424 268.774 107.79 268.111C107.737 268.099 107.687 268.084 107.633 268.072C104.167 267.2 101.899 263.871 102.356 260.324C104.069 247.09 98.0614 230.129 69.1191 191.336C64.6182 185.306 71.3186 183.533 73.4722 186.003C73.4722 186.003 64.5159 159.775 74.6042 166.524C74.6042 166.524 66.9817 133.561 84.6598 144.72C84.6598 144.72 92.2528 95.2932 103.588 112.919C103.588 112.919 113.596 65.4971 118.171 84.9818C118.171 84.9818 125.95 51.2314 134.686 69.1216C134.686 69.1216 145.777 38.857 152.725 51.2067C152.725 51.2067 170.453 21.9469 176.147 24.8912C181.84 27.8328 189.31 50.0715 187.479 53.3384L187.477 53.3357Z" fill="#225124"/>
<path d="M207.032 56.2341C207.032 56.2341 221.105 55.1451 217.641 72.9532L216.742 79.891C216.742 79.891 223.329 77.3646 223.646 83.1007C223.966 88.8395 222.543 96.7079 220.534 100.777C220.534 100.777 229.287 97.7823 228.041 104.853C226.797 111.922 225.272 122.395 222.493 124.927C222.493 124.927 229.513 122.6 228.712 126.937C227.913 131.271 226.222 141.076 221.444 144.74C221.444 144.74 231.914 144.018 228.594 150.418C225.276 156.821 219.97 162.885 219.97 162.885C219.97 162.885 227.604 158.49 222.452 168.157C217.301 177.824 213.657 179.955 213.657 179.955C213.657 179.955 223.255 176.242 219.767 181.976C216.278 187.709 208.292 196.028 206.129 198.227C206.129 198.227 215.459 200.505 209.638 206.038C203.815 211.569 192.857 223.833 192.857 223.833C192.857 223.833 201.566 221.32 188.412 230.3C156.407 252.157 141.671 259.908 134.477 268.662C132.754 270.761 129.979 271.672 127.345 271.009C127.292 270.997 127.241 270.983 127.188 270.97C123.722 270.099 121.453 266.77 121.91 263.222C123.623 249.989 117.616 233.028 88.6738 194.234C84.1729 188.204 90.8733 186.432 93.0269 188.902C93.0269 188.902 84.0706 162.674 94.1589 169.423C94.1589 169.423 86.5364 136.459 104.214 147.619C104.214 147.619 111.807 98.1916 123.142 115.818C123.142 115.818 133.151 68.3955 137.725 87.8802C137.725 87.8802 145.504 54.1299 154.24 72.0201C154.24 72.0201 165.332 41.7555 172.279 54.1051C172.279 54.1051 190.008 24.8453 195.702 27.7897C201.394 30.7313 208.865 52.9699 207.033 56.2369L207.032 56.2341Z" fill="#1BA53C"/>
<path d="M126.072 271.8C126.213 272.027 126.415 272.219 126.668 272.346C127.405 272.719 128.304 272.422 128.673 271.686C129.354 270.333 196.571 135.302 194.944 33.1277C194.931 32.3041 194.253 31.6438 193.428 31.6531C192.605 31.6652 191.944 32.3444 191.959 33.1708C193.572 134.605 126.682 268.99 126.005 270.337C125.762 270.821 125.806 271.372 126.072 271.8Z" fill="#225124"/>
</g>
<defs>
<clipPath id="clip0_372_541">
<rect width="209" height="227" fill="white" transform="matrix(-0.527695 -0.849434 -0.849434 0.527695 303.109 177.531)"/>
</clipPath>
</defs>
</svg>
