<svg width="314" height="285" viewBox="0 0 314 285" fill="none" xmlns="http://www.w3.org/2000/svg">
<g clip-path="url(#clip0_122_250)">
<path d="M191.156 55.3638C195.764 49.5658 204.311 41.1213 218.522 34.6502L216.381 30.2302C201.31 37.073 192.155 45.9959 187.091 52.3174C100.093 80.3737 49.734 167.638 74.3963 248.603C80.683 246.688 86.7535 244.455 92.6645 241.958C93.564 246.28 94.6424 250.603 95.9541 254.909C183.114 228.36 234.579 142.773 212.831 62.1835C217.457 56.3799 226.025 47.8741 240.204 41.4308L238.064 37.0107C223.536 43.615 214.514 52.1308 209.353 58.3907C203.849 60.1402 198.477 62.1244 193.278 64.3491C192.662 61.3505 191.951 58.3629 191.138 55.3694L191.156 55.3638Z" fill="#FFFDD7"/>
<path d="M260.217 35.3555C261.426 39.3267 261.224 43.618 259.588 47.6321C257.598 52.5048 253.646 56.5465 248.623 58.8275C243.061 61.3638 238.745 64.2716 235.443 67.0537C243.633 107.827 235.883 150.307 213.21 187.792C188.551 228.537 148.903 258.925 101.589 273.337C93.0858 275.927 84.3457 273.242 79.3539 267.219C68.5136 270.155 57.4672 264.657 54.4304 254.687C41.0274 210.686 46.814 163.586 70.7097 122.029C93.5572 82.3118 130.473 51.9507 175.127 36.0419C182.064 28.6369 192.663 19.8237 208.027 12.8366C217.238 8.65763 227.788 11.157 233.366 18.3206C242.908 15.8168 252.979 19.872 257.093 28.3601L259.234 32.7802C259.626 33.6127 259.964 34.4619 260.23 35.3332L260.217 35.3555ZM109.149 229.45C137.674 216.715 161.449 196.014 177.283 169.841C193.528 142.993 199.931 112.844 195.89 83.4778C191.628 84.1534 187.251 83.6008 183.389 81.8106C180.798 80.604 178.572 78.9017 176.817 76.8546C147.242 90.0561 122.838 111.754 107.052 139.195C91.9715 165.431 86.1542 194.505 90.0523 222.816C94.314 222.14 98.6916 222.693 102.553 224.483C105.144 225.69 107.37 227.392 109.126 229.439L109.149 229.45Z" fill="#FFFDD7"/>
<path d="M95.9766 254.906C71.054 173.086 122.846 84.7264 211.568 57.7013C236.491 139.521 184.699 227.881 95.9766 254.906Z" fill="#015408"/>
<path d="M74.4141 248.602C49.4915 166.782 101.284 78.4217 190.006 51.3966C214.929 133.217 163.136 221.577 74.4141 248.602Z" fill="#04A83B"/>
<path d="M242.645 38.1619C243.125 39.737 242.29 41.4929 240.617 42.2588C217.335 52.8478 209.371 69.0067 209.298 69.1572C208.476 70.8908 206.328 71.7281 204.509 71.0369C202.691 70.3458 201.873 68.3792 202.695 66.6456C203.062 65.8931 211.724 47.9835 237.691 36.1736C239.522 35.3411 241.657 36.0275 242.466 37.7038C242.53 37.8491 242.594 37.9944 242.64 38.1452L242.645 38.1619Z" fill="#015408"/>
<path d="M217.739 31.8184C218.178 33.2595 217.509 34.9097 216.036 35.7431C200.343 44.7163 190.974 56.6524 190.872 56.7749C120.339 148.078 79.857 245.866 79.461 246.847C78.7319 248.625 76.6384 249.574 74.7673 248.972C72.8962 248.37 71.9749 246.454 72.7039 244.675C73.0999 243.694 113.949 145.026 185.063 52.9594C185.478 52.4303 195.393 39.7421 212.46 30.0023C214.204 29.0133 216.415 29.4934 217.395 31.0809C217.545 31.3101 217.663 31.5671 217.739 31.8184Z" fill="#015408"/>
<path d="M109.478 163.981C109.545 164.199 109.593 164.422 109.61 164.673C109.741 166.538 108.224 168.208 106.241 168.409C92.4838 169.853 75.846 178.657 75.6745 178.745C73.8972 179.69 71.707 179.148 70.7765 177.527C69.8459 175.907 70.5245 173.832 72.2837 172.893C73.0191 172.505 90.4365 163.262 105.739 161.678C107.471 161.498 109.006 162.495 109.46 163.986L109.478 163.981Z" fill="#015408"/>
<path d="M170.612 134.963C172.138 139.973 173.286 145.373 174.083 151.246C174.328 153.094 172.933 154.837 170.943 155.151C168.954 155.464 167.146 154.22 166.906 152.389C164.617 135.489 159.307 122.879 150.164 112.682C148.906 111.289 149.147 109.146 150.713 107.9C152.261 106.66 154.544 106.788 155.808 108.198C162.58 115.766 167.44 124.485 170.63 134.958L170.612 134.963Z" fill="#015408"/>
<path d="M134.719 120.917C134.801 121.185 134.851 121.481 134.86 121.771C134.895 123.646 133.299 125.249 131.29 125.367C117.321 126.18 94.5169 137.099 94.2909 137.205C92.4698 138.071 90.3138 137.446 89.469 135.78C88.6242 134.115 89.3908 132.069 91.2118 131.203C92.1964 130.72 115.66 119.489 131.171 118.591C132.851 118.501 134.28 119.476 134.719 120.917Z" fill="#015408"/>
<path d="M127.726 199.643C129.558 205.659 130.097 212.123 129.393 219.131C129.207 221 127.441 222.435 125.448 222.347C123.455 222.258 121.993 220.652 122.184 218.8C123.399 206.949 120.502 196.918 113.338 188.132C112.161 186.678 112.503 184.541 114.113 183.373C115.723 182.205 117.995 182.429 119.172 183.883C123.166 188.782 126.011 194.013 127.726 199.643Z" fill="#015408"/>
</g>
<defs>
<clipPath id="clip0_122_250">
<rect width="218.392" height="260.766" fill="white" transform="translate(63.6328 284.898) rotate(-106.941)"/>
</clipPath>
</defs>
</svg>
