<svg width="269" height="257" viewBox="0 0 269 257" fill="none" xmlns="http://www.w3.org/2000/svg">
<g clip-path="url(#clip0_374_50)">
<path d="M109.892 233.624C109.705 233.591 109.497 233.547 109.275 233.495C91.4887 249.277 80.7756 252.848 73.1712 245.948C71.6708 244.587 70.4528 242.816 69.4431 240.816C63.8158 242.614 59.3705 241.758 55.6721 238.4C49.0627 232.401 47.676 218.65 47.4326 210.987C47.3876 209.503 47.381 208.123 47.4207 206.843C45.6507 205.317 43.9695 203.341 42.675 200.778C40.6779 196.82 39.1893 190.427 42.4952 181.612C39.9958 178.328 39.1277 174.163 40.0469 169.744C40.6548 166.828 41.6853 163.676 42.971 160.641C42.9474 160.606 42.9248 160.574 42.9012 160.539C40.0609 156.402 39.7799 151.119 42.135 146.046L43.0588 144.04C44.3951 141.128 45.6211 138.513 46.8123 136.186C45.263 132.807 45.3179 128.839 47.0259 125.238L47.1655 124.943C48.5975 121.922 50.1327 118.921 51.8854 116.167C51.6808 115.718 51.4972 115.253 51.3365 114.768C49.7512 110.009 50.9864 104.866 54.7358 100.754C56.1355 99.2174 57.6378 97.7632 59.1055 96.4392C59.5084 93.0095 61.458 89.4063 64.9426 85.6656C65.5661 84.9968 66.175 84.3648 66.7653 83.7676C66.5184 80.8562 67.2485 76.9093 71.3039 73.0271C73.8605 70.5787 77.3849 67.9553 80.7423 65.6642C80.6952 65.2126 80.6709 64.7508 80.6723 64.278C80.6707 61.7901 81.48 55.5573 89.0081 51.449C92.2692 49.6694 97.261 46.5699 101.352 43.9713C103.468 37.965 111.003 35.3108 116.383 33.4132C127.761 29.4041 137.216 26.2751 144.814 23.7568C159.74 18.8157 168.748 15.8325 173.44 12.4685C178.917 8.53204 186.273 8.10349 192.152 11.3543L192.324 11.4508C194.823 12.835 196.856 14.756 198.364 16.992C202.183 16.3756 206.176 16.978 209.648 18.9038L209.824 19.0025C213.96 21.2955 216.838 25.0365 218.13 29.2768C219.277 33.0434 219.17 37.2016 217.578 41.0874C214.602 48.3427 213.921 61.6616 231.452 105.446C234.809 113.817 231.772 120.333 227.069 123.571C226.737 131.202 225.028 138.003 220.044 141.521C217.764 155.605 211.892 160.886 206.914 162.745C205.341 163.331 203.109 163.855 200.442 163.616C187.102 189.719 177.743 189.79 173.784 189.597C164.277 206.517 158.127 211.869 152.24 212.306C147.421 218.838 140.594 225.186 132.397 223.968C131.842 223.884 131.225 223.758 130.566 223.567C123.144 231.407 116.221 234.787 109.894 233.63L109.892 233.624Z" fill="#FFFDD7"/>
<path d="M76.9204 208.645C76.9204 208.645 63.5392 206.172 71.1865 190.446L73.7456 184.208C73.7456 184.208 66.9822 184.928 68.1101 179.507C69.237 174.084 72.5152 167.109 75.3966 163.817C75.3966 163.817 66.4991 164.437 69.415 158.161C72.3281 151.886 76.3485 142.51 79.5658 140.841C79.5658 140.841 72.4481 141.268 74.2708 137.429C76.0905 133.59 80.0998 124.878 85.4604 122.65C85.4604 122.65 75.5269 120.728 80.2082 115.59C84.8885 110.45 91.3368 106.117 91.3368 106.117C91.3368 106.117 83.1341 108.318 90.3325 100.592C97.531 92.8665 101.454 91.7849 101.454 91.7849C101.454 91.7849 91.591 92.8637 96.2641 88.3889C100.937 83.9142 110.441 78.1459 113.002 76.6346C113.002 76.6346 104.876 72.2012 111.672 68.4907C118.469 64.7831 131.722 56.0772 131.722 56.0772C131.722 56.0772 122.985 56.2596 137.467 51.156C172.707 38.7332 188.359 35.1665 197.234 28.797C199.36 27.2693 202.171 27.1089 204.461 28.3788C204.507 28.4035 204.551 28.4291 204.597 28.4538C207.61 30.1248 208.897 33.7873 207.591 36.9777C202.71 48.8771 204.097 66.1612 221.432 109.461C224.128 116.192 217.446 116.183 216.053 113.348C216.053 113.348 217.887 139.993 210.164 131.208C210.164 131.208 209.084 163.795 195.385 149.022C195.385 149.022 176.044 193.17 169.859 173.947C169.859 173.947 148.766 215.629 149.34 196.35C149.34 196.35 133.717 225.853 130.018 207.027C130.018 207.027 112.174 232.463 108.767 219.24C108.767 219.24 84.9893 242.096 80.4155 237.943C75.8426 233.792 74.4023 211.231 76.9195 208.642L76.9204 208.645Z" fill="#225124"/>
<path d="M59.4204 201.098C59.4204 201.098 46.0392 198.625 53.6865 182.899L56.2456 176.661C56.2456 176.661 49.4822 177.381 50.6101 171.961C51.737 166.537 55.0152 159.562 57.8966 156.27C57.8966 156.27 48.9991 156.89 51.915 150.614C54.8281 144.339 58.8485 134.964 62.0658 133.294C62.0658 133.294 54.9481 133.721 56.7708 129.882C58.5905 126.043 62.5998 117.331 67.9604 115.103C67.9604 115.103 58.0269 113.181 62.7082 108.044C67.3885 102.903 73.8368 98.5706 73.8368 98.5706C73.8368 98.5706 65.6341 100.771 72.8325 93.0455C80.031 85.3196 83.9539 84.238 83.9539 84.238C83.9539 84.238 74.091 85.3168 78.7641 80.842C83.4372 76.3673 92.9412 70.5991 95.5021 69.0877C95.5021 69.0877 87.3758 64.6544 94.1719 60.9438C100.969 57.2362 114.222 48.5303 114.222 48.5303C114.222 48.5303 105.485 48.7127 119.967 43.6091C155.207 31.1863 170.859 27.6196 179.734 21.2502C181.86 19.7224 184.671 19.562 186.961 20.8319C187.007 20.8566 187.051 20.8822 187.097 20.907C190.11 22.5779 191.397 26.2404 190.091 29.4309C185.21 41.3303 186.597 58.6144 203.932 101.914C206.628 108.645 199.946 108.636 198.553 105.802C198.553 105.802 200.387 132.447 192.664 123.661C192.664 123.661 191.584 156.248 177.885 141.475C177.885 141.475 158.544 185.623 152.359 166.4C152.359 166.4 131.266 208.082 131.84 188.803C131.84 188.803 116.217 218.306 112.518 199.48C112.518 199.48 94.6739 224.916 91.2669 211.694C91.2669 211.694 67.4893 234.549 62.9155 230.396C58.3426 226.246 56.9023 203.684 59.4195 201.095L59.4204 201.098Z" fill="#1BA53C"/>
<path d="M188.34 20.4078C188.265 20.162 188.124 19.9331 187.92 19.7525C187.326 19.2217 186.415 19.2759 185.888 19.8699C184.918 20.9613 88.7856 130.054 64.9429 225.609C64.751 226.38 65.2189 227.163 65.9894 227.358C66.759 227.551 67.5436 227.082 67.7346 226.309C91.4079 131.449 187.077 22.8729 188.043 21.7893C188.389 21.399 188.485 20.8748 188.343 20.4099L188.34 20.4078Z" fill="#225124"/>
</g>
<defs>
<clipPath id="clip0_374_50">
<rect width="201.402" height="218.857" fill="white" transform="translate(58.7031 256.984) rotate(-106.94)"/>
</clipPath>
</defs>
</svg>
