<svg width="218" height="233" viewBox="0 0 218 233" fill="none" xmlns="http://www.w3.org/2000/svg">
<g clip-path="url(#clip0_374_291)">
<path d="M12.8765 73.7237C12.9433 73.5504 13.0235 73.3606 13.1144 73.1575C1.30239 53.2592 -0.130341 42.3684 7.88385 36.3775C9.46532 35.1954 11.3866 34.3587 13.4879 33.7629C12.8094 28.0566 14.4528 23.9686 18.3532 21.0554C25.3207 15.8487 38.7413 17.0597 46.1221 18.2402C47.5516 18.471 48.8736 18.7191 50.0921 18.9931C51.8804 17.5838 54.0838 16.3424 56.7776 15.5787C60.9362 14.4009 67.3328 14.1581 75.1589 18.9411C78.7654 17.1593 82.914 17.0982 86.9736 18.791C89.6527 19.9094 92.4789 21.4748 95.1463 23.2625C95.1841 23.2464 95.2189 23.2307 95.2566 23.2146C99.7439 21.2647 104.853 21.9704 109.273 25.1552L111.022 26.4075C113.562 28.2207 115.839 29.8741 117.846 31.4409C121.367 30.5841 125.155 31.3682 128.286 33.6635L128.542 33.8512C131.17 35.7762 133.758 37.7959 136.07 39.9778C136.537 39.8651 137.017 39.7755 137.511 39.7115C142.36 39.0749 147.055 41.2029 150.297 45.5424C151.508 47.1626 152.622 48.8657 153.617 50.5116C156.826 51.5289 159.914 54.0555 162.849 58.0735C163.374 58.7923 163.866 59.4904 164.328 60.1644C167.161 60.4654 170.804 61.8905 173.769 66.4799C175.639 69.3733 177.498 73.2233 179.069 76.8525C179.51 76.8908 179.956 76.9528 180.409 77.0413C182.791 77.4984 188.608 79.4208 191.145 87.3686C192.245 90.8117 194.287 96.151 196.016 100.538C201.374 103.666 202.519 111.352 203.338 116.841C205.068 128.448 206.311 138.055 207.314 145.777C209.278 160.945 210.464 170.099 212.815 175.2C215.569 181.157 214.616 188.263 210.414 193.279L210.29 193.425C208.502 195.557 206.286 197.144 203.866 198.172C203.748 201.933 202.432 205.636 199.945 208.598L199.818 208.747C196.856 212.275 192.741 214.334 188.443 214.786C184.624 215.187 180.663 214.318 177.238 212.081C170.844 207.9 158.22 204.795 113.057 213.465C104.421 215.128 98.7453 211.026 96.5169 205.936C89.2733 204.212 83.079 201.326 80.635 195.917C67.5745 191.142 63.608 184.56 62.7506 179.462C62.4812 177.852 62.3928 175.624 63.1161 173.12C40.5999 155.565 42.2663 146.613 43.1839 142.867C28.7482 130.667 24.7645 123.805 25.4369 118.102C20.0769 112.295 15.2655 104.604 17.9506 96.9996C18.1333 96.4846 18.3682 95.9187 18.673 95.3243C12.5438 86.7894 10.5907 79.5541 12.8705 73.7243L12.8765 73.7237Z" fill="#FFFDD7"/>
<path d="M42.9002 46.839C42.9002 46.839 47.7479 34.5142 61.3851 44.7182L66.8829 48.3128C66.8829 48.3128 67.4466 41.72 72.4268 43.7968C77.41 45.8733 83.4798 50.2906 86.0969 53.6497C86.0969 53.6497 87.1525 45.037 92.6201 48.9794C98.0873 52.9188 106.318 58.4877 107.319 61.8684C107.319 61.8684 108.23 54.9913 111.567 57.4402C114.905 59.8862 122.502 65.3221 123.642 70.853C123.642 70.853 127.323 61.7196 131.373 67.1381C135.427 72.5564 138.38 79.5143 138.38 79.5143C138.38 79.5143 137.793 71.2738 143.855 79.5739C149.917 87.874 150.225 91.8203 150.225 91.8203C150.225 91.8203 151.02 82.2011 154.438 87.4896C157.856 92.7781 161.617 102.919 162.589 105.644C162.589 105.644 168.339 98.6999 170.632 105.875C172.921 113.051 178.8 127.314 178.8 127.314C178.8 127.314 180.244 118.936 182.446 133.71C187.808 169.66 188.322 185.267 192.775 194.918C193.843 197.231 193.476 199.945 191.836 201.898C191.804 201.938 191.771 201.974 191.739 202.014C189.581 204.584 185.836 205.138 183.024 203.302C172.537 196.446 155.734 194.584 111.07 203.156C104.126 204.49 105.374 198.11 108.345 197.302C108.345 197.302 82.4977 194.14 92.3394 188.384C92.3394 188.384 61.3435 181.343 78.0248 170.983C78.0248 170.983 39.3453 144.369 58.8944 142.006C58.8944 142.006 22.9002 114.173 41.2501 118.276C41.2501 118.276 15.9017 97.914 34.6092 97.8529C34.6092 97.8529 13.566 76.119 26.8555 75.303C26.8555 75.303 9.3823 48.3777 14.2057 44.7749C19.0262 41.1725 40.8917 43.9571 42.9032 46.8387L42.9002 46.839Z" fill="#225124"/>
<path d="M53.3689 31.5187C53.3689 31.5187 58.2167 19.1939 71.8539 29.3979L77.3517 32.9925C77.3517 32.9925 77.9154 26.3997 82.8956 28.4765C87.8787 30.553 93.9486 34.9703 96.5656 38.3294C96.5656 38.3294 97.6213 29.7167 103.089 33.6591C108.556 37.5985 116.786 43.1674 117.788 46.5481C117.788 46.5481 118.698 39.671 122.036 42.1199C125.374 44.5658 132.971 50.0017 134.111 55.5327C134.111 55.5327 137.791 46.3993 141.842 51.8178C145.896 57.2361 148.848 64.194 148.848 64.194C148.848 64.194 148.262 55.9535 154.324 64.2536C160.386 72.5537 160.694 76.5 160.694 76.5C160.694 76.5 161.489 66.8808 164.907 72.1693C168.325 77.4578 172.085 87.5991 173.058 90.3238C173.058 90.3238 178.808 83.3796 181.1 90.555C183.39 97.7308 189.268 111.994 189.268 111.994C189.268 111.994 190.713 103.616 192.915 118.389C198.277 154.339 198.791 169.946 203.243 179.598C204.312 181.91 203.945 184.624 202.305 186.578C202.272 186.617 202.24 186.654 202.208 186.694C200.05 189.263 196.305 189.817 193.493 187.981C183.006 181.126 166.202 179.263 121.539 187.836C114.595 189.17 115.843 182.789 118.814 181.981C118.814 181.981 92.9665 178.82 102.808 173.063C102.808 173.063 71.8122 166.023 88.4936 155.662C88.4936 155.662 49.814 129.048 69.3632 126.686C69.3632 126.686 33.369 98.8527 51.7189 102.956C51.7189 102.956 26.3705 82.5937 45.0779 82.5326C45.0779 82.5326 24.0347 60.7987 37.3243 59.9827C37.3243 59.9827 19.851 33.0574 24.6745 29.4546C29.4949 25.8521 51.3604 28.6368 53.3719 31.5184L53.3689 31.5187Z" fill="#1BA53C"/>
<path d="M202.455 187.972C202.704 187.946 202.949 187.853 203.16 187.692C203.778 187.222 203.895 186.342 203.424 185.729C202.559 184.602 115.938 72.6659 28.8803 32.2728C28.1784 31.9475 27.3422 32.25 27.0121 32.9499C26.685 33.6494 26.9883 34.4852 27.6932 34.8102C114.117 74.9132 200.329 186.312 201.187 187.434C201.497 187.837 201.981 188.025 202.452 187.975L202.455 187.972Z" fill="#225124"/>
</g>
<defs>
<clipPath id="clip0_374_291">
<rect width="196.389" height="212.892" fill="white" transform="translate(0 20.5234) rotate(-5.99859)"/>
</clipPath>
</defs>
</svg>
