<svg width="378" height="439" viewBox="0 0 378 439" fill="none" xmlns="http://www.w3.org/2000/svg">
<g clip-path="url(#clip0_122_151)">
<path d="M352.157 189.266C328.727 152.888 292.532 127.794 250.232 118.633C235.257 115.386 220.142 114.286 205.254 115.247C226.309 87.562 228.761 51.462 211.56 9.36003C210.044 5.67042 207.137 2.72632 203.447 1.17213C199.769 -0.369416 195.624 -0.394688 191.921 1.12159C146.943 19.5064 122.577 49.0865 119.986 86.9176C89.0738 64.8305 50.6924 64.8684 7.8878 88.0169C0.570453 91.9718 -2.1467 101.107 1.80897 108.411C18.7185 139.671 40.3925 159.421 66.2623 167.129C74.338 169.529 82.7042 170.73 91.3486 170.73C92.0689 170.73 92.8019 170.704 93.5223 170.692C75.8166 191.01 63.4188 215.574 57.5548 242.639C48.3923 284.931 56.2405 328.258 79.6585 364.636C103.089 401.027 139.284 426.109 181.583 435.27C193.109 437.771 204.711 438.997 216.224 438.997C246.972 438.997 277.126 430.203 303.602 413.157C340 389.731 365.086 353.542 374.248 311.251C383.411 268.959 375.563 225.632 352.145 189.254L352.157 189.266Z" fill="#FFFDD7"/>
<path d="M145.076 140.244C203.489 116.375 221.498 73.4518 197.625 15.0625C139.212 38.9312 121.203 81.8545 145.076 140.244Z" fill="#015408"/>
<path d="M145.187 140.032C115.172 84.5366 70.5604 71.2439 15.0547 101.254C45.0697 156.749 89.6816 170.042 145.187 140.032Z" fill="#015408"/>
<path d="M215.924 423.905C297.098 423.905 362.903 358.112 362.903 276.952C362.903 195.793 297.098 130 215.924 130C134.75 130 68.9453 195.793 68.9453 276.952C68.9453 358.112 134.75 423.905 215.924 423.905Z" fill="#FC2E02"/>
<path d="M145.076 140.244C203.489 116.375 221.498 73.4518 197.625 15.0625C139.212 38.9312 121.203 81.8545 145.076 140.244Z" fill="#015408"/>
<path d="M145.187 140.032C115.172 84.5366 70.5604 71.2439 15.0547 101.254C45.0697 156.749 89.6816 170.042 145.187 140.032Z" fill="#015408"/>
<path d="M215.924 423.905C297.098 423.905 362.903 358.112 362.903 276.952C362.903 195.793 297.098 130 215.924 130C134.75 130 68.9453 195.793 68.9453 276.952C68.9453 358.112 134.75 423.905 215.924 423.905Z" fill="#FC2E02"/>
<path d="M190.822 180.934C201.096 180.934 209.425 172.606 209.425 162.334C209.425 152.062 201.096 143.734 190.822 143.734C180.548 143.734 172.219 152.062 172.219 162.334C172.219 172.606 180.548 180.934 190.822 180.934Z" fill="#FC6C02"/>
<path d="M250.159 200.387C264.3 200.387 275.764 188.926 275.764 174.787C275.764 160.649 264.3 149.188 250.159 149.188C236.018 149.188 224.555 160.649 224.555 174.787C224.555 188.926 236.018 200.387 250.159 200.387Z" fill="#FC6C02"/>
<path d="M130.36 339.227C128.148 340.655 125.898 341.135 123.624 340.681C121.349 340.226 119.58 339.025 118.328 337.092C117.077 335.146 116.723 333.074 117.254 330.85C117.785 328.626 119.175 326.794 121.425 325.341C123.674 323.888 125.911 323.382 128.148 323.812C130.372 324.242 132.116 325.442 133.38 327.4C134.631 329.346 134.985 331.444 134.454 333.706C133.924 335.967 132.559 337.8 130.36 339.215V339.227ZM154.637 361.1L140.116 370.45L134.303 361.416C131.901 357.688 130.372 354.201 129.74 350.979C129.096 347.744 129.02 345.015 129.513 342.765L133.835 339.986C136.085 340.478 138.549 341.679 141.228 343.612C143.908 345.545 146.448 348.363 148.836 352.078L154.65 361.112L154.637 361.1Z" fill="#FFFCD6"/>
<path d="M175.14 340.861C171.829 342.984 168.467 344.411 165.029 345.119C161.592 345.827 158.357 345.852 155.311 345.208C152.265 344.55 149.422 343.3 146.768 341.442C144.126 339.585 141.864 337.209 140.019 334.328C138.199 331.498 136.998 328.516 136.417 325.357C135.836 322.198 135.874 319.115 136.531 316.07C137.188 313.037 138.553 310.093 140.626 307.237C142.698 304.394 145.39 301.905 148.689 299.77C151.216 298.14 153.807 296.977 156.448 296.27C159.09 295.562 161.314 295.234 163.134 295.297L173.029 310.674L172.195 311.205C168.972 310.51 166.255 310.358 164.044 310.75C161.832 311.142 159.608 312.064 157.371 313.492C154.527 315.324 152.695 317.371 151.873 319.62C151.052 321.869 151.33 324.068 152.707 326.216C154.085 328.364 155.993 329.539 158.445 329.767C160.897 329.994 163.513 329.211 166.331 327.404C168.568 325.963 170.325 324.321 171.614 322.463C172.903 320.606 173.889 318.079 174.584 314.895L175.418 314.364L185.212 329.577C184.517 331.258 183.304 333.153 181.56 335.263C179.816 337.373 177.693 339.243 175.152 340.873L175.14 340.861Z" fill="#FFFCD6"/>
<path d="M211.054 317.749C207.742 319.872 204.368 321.3 200.905 322.007C197.443 322.715 194.182 322.753 191.136 322.108C188.091 321.464 185.234 320.226 182.58 318.381C179.939 316.549 177.702 314.211 175.882 311.381C174.062 308.55 172.874 305.556 172.306 302.384C171.737 299.213 171.788 296.092 172.457 293.034C173.127 289.976 174.505 287.019 176.565 284.138C178.637 281.27 181.317 278.768 184.602 276.658C187.838 274.573 191.174 273.196 194.637 272.514C198.087 271.831 201.348 271.819 204.406 272.476C207.464 273.133 210.333 274.371 213 276.216C215.666 278.061 217.903 280.373 219.711 283.178C221.177 285.452 222.251 287.815 222.933 290.292C223.616 292.756 223.881 295.245 223.717 297.76C223.553 300.274 222.996 302.713 222.061 305.076C221.113 307.451 219.711 309.726 217.84 311.912C215.97 314.097 213.708 316.043 211.041 317.762L211.054 317.749ZM194.384 306.832C196.887 306.908 199.503 306.061 202.245 304.305C204.975 302.549 206.845 300.502 207.856 298.164C208.867 295.826 208.64 293.527 207.174 291.252C205.695 288.965 203.711 287.803 201.196 287.777C198.681 287.752 196.052 288.624 193.297 290.393C190.568 292.149 188.697 294.171 187.711 296.458C186.726 298.745 186.966 301.02 188.444 303.319C189.91 305.594 191.895 306.769 194.397 306.845L194.384 306.832Z" fill="#FFFCD6"/>
<path d="M256.546 288.455C253.235 290.578 249.86 292.006 246.398 292.714C242.935 293.421 239.674 293.459 236.628 292.815C233.57 292.17 230.727 290.932 228.073 289.087C225.431 287.255 223.194 284.917 221.374 282.1C219.555 279.282 218.367 276.275 217.798 273.103C217.229 269.931 217.28 266.81 217.95 263.753C218.619 260.695 219.997 257.738 222.057 254.857C224.117 251.976 226.809 249.487 230.095 247.377C233.33 245.292 236.666 243.915 240.129 243.232C243.579 242.55 246.84 242.537 249.898 243.194C252.957 243.851 255.825 245.09 258.492 246.935C261.159 248.767 263.396 251.092 265.203 253.897C266.669 256.171 267.743 258.534 268.425 261.011C269.121 263.475 269.373 265.964 269.209 268.478C269.045 270.993 268.501 273.432 267.553 275.794C266.606 278.17 265.203 280.444 263.332 282.63C261.462 284.816 259.2 286.762 256.533 288.481L256.546 288.455ZM239.876 277.538C242.379 277.614 244.995 276.767 247.725 275.011C250.454 273.255 252.325 271.208 253.336 268.87C254.347 266.532 254.119 264.233 252.653 261.958C251.175 259.671 249.191 258.509 246.676 258.484C244.161 258.458 241.532 259.33 238.777 261.099C236.047 262.855 234.177 264.877 233.191 267.164C232.205 269.451 232.445 271.738 233.924 274.025C235.39 276.3 237.374 277.475 239.876 277.551V277.538Z" fill="#FFFCD6"/>
<path d="M309.652 253.295L279.915 272.426L254.336 232.699L267.808 224.031L287.005 253.839C286.891 252.841 287.548 251.88 288.989 250.958L302.537 242.239L309.652 253.295Z" fill="#FFFCD6"/>
<path d="M311.02 230.752L306.697 233.532C304.448 233.052 301.996 231.839 299.317 229.918C296.638 227.997 294.11 225.167 291.696 221.44L285.883 212.405L300.404 203.055L306.217 212.089C308.606 215.804 310.122 219.279 310.779 222.514C311.424 225.748 311.512 228.503 311.02 230.739V230.752ZM319.222 248.126C316.972 249.579 314.723 250.085 312.473 249.642C310.236 249.2 308.479 248.012 307.216 246.041C305.964 244.108 305.611 241.998 306.141 239.736C306.672 237.474 308.05 235.629 310.261 234.202C312.46 232.786 314.697 232.306 316.972 232.761C319.247 233.216 321.016 234.416 322.267 236.35C323.531 238.308 323.898 240.393 323.367 242.617C322.836 244.841 321.459 246.673 319.222 248.113V248.126Z" fill="#FFFCD6"/>
</g>
<defs>
<clipPath id="clip0_122_151">
<rect width="378" height="439" fill="white"/>
</clipPath>
</defs>
</svg>
