<svg width="378" height="439" viewBox="0 0 378 439" fill="none" xmlns="http://www.w3.org/2000/svg">
<path d="M352.165 189.266C328.734 152.888 292.539 127.794 250.24 118.633C235.264 115.386 220.149 114.286 205.262 115.247C226.317 87.562 228.768 51.462 211.568 9.36003C210.052 5.67042 207.145 2.72632 203.455 1.17213C199.777 -0.369416 195.632 -0.394688 191.929 1.12159C146.951 19.5064 122.585 49.0865 119.994 86.9176C89.0816 64.8305 50.7002 64.8684 7.89562 88.0169C0.578265 91.9718 -2.13889 101.107 1.81678 108.411C18.7263 139.671 40.4003 159.421 66.2701 167.129C74.3458 169.529 82.7121 170.73 91.3564 170.73C92.0768 170.73 92.8098 170.704 93.5301 170.692C75.8244 191.01 63.4266 215.574 57.5626 242.639C48.4001 284.931 56.2483 328.258 79.6663 364.636C103.097 401.027 139.292 426.109 181.591 435.27C193.117 437.771 204.718 438.997 216.232 438.997C246.98 438.997 277.134 430.203 303.61 413.157C340.007 389.731 365.094 353.542 374.256 311.251C383.419 268.959 375.57 225.632 352.152 189.254L352.165 189.266Z" fill="#FFFDD7"/>
<path d="M145.08 140.24C203.492 116.371 221.502 73.448 197.628 15.0587C139.216 38.9275 121.207 81.8507 145.08 140.24Z" fill="#015408"/>
<path d="M145.194 140.025C115.179 84.5295 70.5669 71.2368 15.0612 101.246C45.0763 156.742 89.6881 170.035 145.194 140.025Z" fill="#015408"/>
<path d="M215.928 423.897C297.102 423.897 362.907 358.105 362.907 276.945C362.907 195.785 297.102 129.993 215.928 129.993C134.754 129.993 68.9493 195.785 68.9493 276.945C68.9493 358.105 134.754 423.897 215.928 423.897Z" fill="#A1DB04"/>
<path d="M145.08 140.24C203.492 116.371 221.502 73.448 197.628 15.0587C139.216 38.9275 121.207 81.8507 145.08 140.24Z" fill="#015408"/>
<path d="M145.194 140.025C115.179 84.5295 70.5669 71.2368 15.0612 101.246C45.0763 156.742 89.6881 170.035 145.194 140.025Z" fill="#015408"/>
<path d="M215.928 423.897C297.102 423.897 362.907 358.105 362.907 276.945C362.907 195.785 297.102 129.993 215.928 129.993C134.754 129.993 68.9493 195.785 68.9493 276.945C68.9493 358.105 134.754 423.897 215.928 423.897Z" fill="#A1DB04"/>
<path d="M190.829 180.927C201.103 180.927 209.432 172.599 209.432 162.327C209.432 152.055 201.103 143.727 190.829 143.727C180.555 143.727 172.226 152.055 172.226 162.327C172.226 172.599 180.555 180.927 190.829 180.927Z" fill="#CBE759"/>
<path d="M250.164 200.386C264.305 200.386 275.769 188.924 275.769 174.786C275.769 160.647 264.305 149.186 250.164 149.186C236.023 149.186 224.56 160.647 224.56 174.786C224.56 188.924 236.023 200.386 250.164 200.386Z" fill="#CBE759"/>
<path d="M130.37 339.226C128.158 340.654 125.908 341.134 123.634 340.679C121.359 340.224 119.589 339.024 118.338 337.091C117.087 335.145 116.733 333.073 117.264 330.849C117.795 328.625 119.185 326.793 121.435 325.34C123.684 323.886 125.921 323.381 128.158 323.811C130.382 324.24 132.126 325.441 133.39 327.399C134.641 329.345 134.995 331.443 134.464 333.704C133.933 335.966 132.569 337.798 130.37 339.213V339.226ZM154.647 361.098L140.126 370.449L134.313 361.414C131.911 357.687 130.382 354.199 129.75 350.977C129.106 347.742 129.03 345.013 129.523 342.764L133.845 339.984C136.095 340.477 138.559 341.677 141.238 343.611C143.917 345.544 146.458 348.362 148.846 352.077L154.66 361.111L154.647 361.098Z" fill="#FFFCD6"/>
<path d="M175.146 340.856C171.835 342.979 168.473 344.407 165.035 345.114C161.598 345.822 158.363 345.847 155.317 345.203C152.271 344.546 149.428 343.295 146.774 341.437C144.132 339.58 141.87 337.204 140.025 334.323C138.205 331.493 137.004 328.511 136.423 325.352C135.842 322.193 135.88 319.11 136.537 316.065C137.194 313.032 138.559 310.088 140.632 307.233C142.704 304.39 145.396 301.9 148.695 299.765C151.222 298.135 153.813 296.972 156.454 296.265C159.096 295.557 161.32 295.229 163.14 295.292L173.035 310.669L172.201 311.2C168.978 310.505 166.261 310.354 164.05 310.745C161.838 311.137 159.614 312.059 157.377 313.487C154.533 315.319 152.701 317.366 151.879 319.616C151.058 321.865 151.336 324.063 152.713 326.211C154.091 328.359 155.999 329.535 158.451 329.762C160.903 329.989 163.519 329.206 166.337 327.399C168.574 325.959 170.331 324.316 171.62 322.459C172.909 320.601 173.895 318.074 174.59 314.89L175.424 314.359L185.218 329.572C184.523 331.253 183.31 333.148 181.566 335.258C179.822 337.369 177.699 339.239 175.158 340.869L175.146 340.856Z" fill="#FFFCD6"/>
<path d="M211.063 317.745C207.751 319.868 204.377 321.296 200.914 322.004C197.452 322.711 194.191 322.749 191.145 322.105C188.1 321.46 185.243 320.222 182.589 318.377C179.948 316.545 177.711 314.207 175.891 311.377C174.071 308.547 172.883 305.552 172.315 302.381C171.746 299.209 171.797 296.088 172.466 293.03C173.136 289.972 174.514 287.016 176.574 284.135C178.646 281.266 181.326 278.764 184.611 276.654C187.847 274.569 191.183 273.192 194.646 272.51C198.096 271.828 201.357 271.815 204.415 272.472C207.473 273.129 210.342 274.367 213.009 276.212C215.675 278.057 217.912 280.369 219.72 283.174C221.186 285.449 222.26 287.812 222.942 290.288C223.625 292.752 223.89 295.241 223.726 297.756C223.562 300.27 223.005 302.709 222.07 305.072C221.122 307.447 219.72 309.722 217.849 311.908C215.979 314.094 213.717 316.04 211.05 317.758L211.063 317.745ZM194.393 306.828C196.896 306.904 199.512 306.057 202.254 304.301C204.984 302.545 206.854 300.498 207.865 298.16C208.876 295.823 208.649 293.523 207.183 291.249C205.704 288.961 203.72 287.799 201.205 287.774C198.69 287.748 196.061 288.62 193.306 290.389C190.577 292.146 188.706 294.167 187.72 296.454C186.735 298.741 186.975 301.016 188.453 303.316C189.919 305.59 191.904 306.765 194.406 306.841L194.393 306.828Z" fill="#FFFCD6"/>
<path d="M256.559 288.456C253.248 290.579 249.874 292.007 246.411 292.714C242.948 293.422 239.688 293.46 236.642 292.815C233.583 292.171 230.74 290.933 228.086 289.088C225.445 287.256 223.208 284.918 221.388 282.1C219.568 279.283 218.38 276.275 217.811 273.104C217.243 269.932 217.293 266.811 217.963 263.753C218.633 260.696 220.01 257.739 222.07 254.858C224.13 251.977 226.822 249.488 230.108 247.378C233.343 245.293 236.68 243.915 240.142 243.233C243.593 242.551 246.853 242.538 249.912 243.195C252.97 243.852 255.839 245.091 258.505 246.935C261.172 248.768 263.409 251.092 265.216 253.898C266.682 256.172 267.756 258.535 268.439 261.011C269.134 263.475 269.387 265.965 269.222 268.479C269.058 270.994 268.515 273.432 267.567 275.795C266.619 278.171 265.216 280.445 263.346 282.631C261.475 284.817 259.213 286.763 256.546 288.481L256.559 288.456ZM239.89 277.539C242.392 277.615 245.008 276.768 247.738 275.012C250.468 273.255 252.338 271.208 253.349 268.871C254.36 266.533 254.133 264.234 252.667 261.959C251.188 259.672 249.204 258.51 246.689 258.484C244.174 258.459 241.545 259.331 238.79 261.1C236.06 262.856 234.19 264.878 233.204 267.165C232.218 269.452 232.459 271.739 233.937 274.026C235.403 276.301 237.387 277.476 239.89 277.552V277.539Z" fill="#FFFCD6"/>
<path d="M309.664 253.291L279.927 272.421L254.347 232.695L267.819 224.027L287.016 253.834C286.903 252.836 287.56 251.876 289.001 250.953L302.548 242.235L309.664 253.291Z" fill="#FFFCD6"/>
<path d="M311.029 230.749L306.706 233.529C304.457 233.049 302.005 231.836 299.326 229.915C296.647 227.995 294.119 225.164 291.705 221.437L285.892 212.402L300.413 203.052L306.226 212.086C308.615 215.801 310.131 219.276 310.788 222.511C311.433 225.745 311.521 228.5 311.029 230.736V230.749ZM319.231 248.123C316.981 249.576 314.731 250.082 312.482 249.639C310.245 249.197 308.488 248.009 307.225 246.038C305.973 244.105 305.62 241.995 306.15 239.733C306.681 237.471 308.059 235.626 310.27 234.199C312.469 232.783 314.706 232.303 316.981 232.758C319.256 233.213 321.025 234.413 322.276 236.347C323.54 238.305 323.907 240.39 323.376 242.614C322.845 244.838 321.467 246.67 319.231 248.11V248.123Z" fill="#FFFCD6"/>
</svg>
