<svg width="286" height="286" viewBox="0 0 286 286" fill="none" xmlns="http://www.w3.org/2000/svg">
<g clip-path="url(#clip0_175_3132)">
<path d="M143 286C221.977 286 286 221.977 286 143C286 64.0233 221.977 0 143 0C64.0233 0 0 64.0233 0 143C0 221.977 64.0233 286 143 286Z" fill="#FFFDD7"/>
<path d="M143.001 276.634C216.804 276.634 276.634 216.804 276.634 143.001C276.634 69.1969 216.804 9.36719 143.001 9.36719C69.1969 9.36719 9.36719 69.1969 9.36719 143.001C9.36719 216.804 69.1969 276.634 143.001 276.634Z" fill="#F4DC0C"/>
<path d="M183.29 115.077C181.304 113.94 179.115 112.9 176.77 111.978C173.253 110.591 169.605 109.813 165.932 109.658C164.126 109.586 162.248 109.729 160.202 110.1C159.305 110.268 158.408 110.507 157.511 110.806C156.039 108.749 154.221 106.847 152.14 105.16C150.62 103.928 148.922 102.779 147.091 101.727C145.991 101.104 144.83 100.506 143.622 99.9441C137.509 97.121 130.452 95.3744 123.214 94.9199C119.793 94.7045 116.384 94.7883 113.094 95.195C109.685 95.6137 106.718 96.2956 104.002 97.3004C102.507 97.8507 100.94 98.5684 98.9303 99.6211C97.1598 100.554 95.3774 101.619 93.6309 102.815C90.3771 105.04 87.4582 107.624 84.97 110.495C82.5895 113.246 80.5439 116.321 78.893 119.634C77.3379 122.745 76.0938 126.178 75.2206 129.827C74.4071 133.164 73.9525 136.837 73.8329 140.736C73.7372 144.241 73.9765 147.926 74.5865 151.993C75.6632 159.266 78.0198 166.659 81.5727 173.968C85.628 182.306 91.3221 189.771 95.82 195.333C98.2245 198.312 100.832 201.386 104.278 205.298C105.653 206.865 107.029 208.42 108.417 209.975C108.967 210.597 109.613 211.172 110.366 211.734C110.63 211.937 110.905 212.117 111.192 212.272C111.634 212.523 112.125 212.751 112.711 212.99C114.099 213.54 115.678 213.851 117.664 213.947C119.374 214.031 121.061 213.911 123.095 213.696C124.123 213.588 125.14 213.468 126.169 213.349C128.932 213.026 131.779 212.679 134.614 212.727C135.237 212.739 135.859 212.775 136.493 212.811L137.33 212.858C138.287 212.918 139.256 212.954 140.225 212.99C142.163 213.062 143.945 213.11 145.668 213.122C149.544 213.157 152.965 213.038 156.111 212.775C159.652 212.464 163.061 211.949 166.231 211.231C169.473 210.502 172.739 209.449 175.921 208.121C179.127 206.781 182.213 205.143 185.084 203.264C188.147 201.267 191.185 198.85 194.128 196.099C199.882 190.704 204.272 184.866 207.167 178.741C208.651 175.607 209.763 172.365 210.457 169.123C211.163 165.858 211.45 162.46 211.342 159.051C211.115 152.173 209.117 145.055 205.409 137.889C204.069 135.305 202.394 132.721 200.277 129.982C198.351 127.482 196.162 125.089 193.793 122.888C191.377 120.627 188.685 118.51 185.766 116.572C184.989 116.058 184.163 115.531 183.278 115.041" fill="#FC6C02"/>
<path d="M163.062 103.548C181.868 112.054 196.115 106.67 204.608 87.8653C185.803 79.36 171.556 84.7431 163.062 103.548Z" fill="#04A83B"/>
<path d="M159.663 105.675C166.087 86.068 159.221 72.4786 139.602 66.0547C133.178 85.6613 140.045 99.2507 159.663 105.675Z" fill="#04A83B"/>
<path d="M56.2563 121.262L54.3662 131.263L33.049 127.22L31.6016 134.828L23.3594 133.261L28.1444 108.008L36.3866 109.575L34.9391 117.219L56.2563 121.262Z" fill="#04A83B"/>
<path d="M65.168 100.344C63.9597 102.545 62.5003 104.363 60.7777 105.811C59.0551 107.258 57.2488 108.275 55.3348 108.837C53.4327 109.399 51.4589 109.579 49.4133 109.351C47.3677 109.124 45.4178 108.502 43.5397 107.473C41.6616 106.445 40.0825 105.129 38.8026 103.526C37.5226 101.923 36.6015 100.164 36.0512 98.2503C35.5009 96.3363 35.3573 94.2548 35.6444 92.0178C35.9315 89.7808 36.6732 87.5677 37.8695 85.3905C39.0418 83.2493 40.5012 81.4549 42.2238 80.0194C43.9464 78.5839 45.7647 77.591 47.6787 77.0287C49.5928 76.4665 51.5785 76.2871 53.6241 76.5024C55.6697 76.7177 57.6316 77.3398 59.4977 78.3566C61.005 79.182 62.3328 80.1869 63.4693 81.3592C64.6057 82.5315 65.5149 83.8474 66.1848 85.2949C66.8547 86.7423 67.2853 88.2855 67.4767 89.8885C67.6681 91.5034 67.5724 93.2021 67.1896 94.9965C66.8068 96.7908 66.125 98.5733 65.156 100.332L65.168 100.344ZM52.5236 99.303C53.9471 98.5852 55.1553 97.3172 56.1482 95.4989C57.1411 93.6806 57.5718 91.9699 57.4162 90.355C57.2727 88.7401 56.4473 87.5199 54.928 86.6945C53.4088 85.8571 51.9374 85.8212 50.5258 86.5629C49.1143 87.3165 47.906 88.5965 46.9012 90.4268C45.9083 92.2451 45.4776 93.9437 45.6212 95.5108C45.7647 97.0899 46.5902 98.2981 48.1094 99.1235C49.6167 99.9489 51.0881 100.009 52.5116 99.279L52.5236 99.303Z" fill="#04A83B"/>
<path d="M82.3116 77.4795L72.7894 85.9131L52.8359 63.3877L62.3581 54.9541C64.308 53.2315 66.21 51.8917 68.0882 50.9586C69.9543 50.0255 71.6889 49.4633 73.2679 49.2839C74.8589 49.1044 76.3901 49.2241 77.8855 49.6427C79.3808 50.0614 80.7325 50.6835 81.9408 51.5328C83.149 52.3702 84.3213 53.4229 85.4338 54.679C86.5463 55.935 87.4435 57.215 88.1373 58.507C88.8312 59.7989 89.2857 61.2105 89.513 62.7417C89.7403 64.2729 89.6685 65.8041 89.2977 67.3473C88.9269 68.8904 88.1493 70.5413 86.9889 72.2878C85.8286 74.0343 84.2615 75.7689 82.3236 77.4915L82.3116 77.4795ZM66.1502 63.0288L74.8231 72.8142L77.383 70.5413C78.8544 69.2374 79.644 67.7899 79.7157 66.2108C79.7995 64.6318 79.1415 63.0527 77.73 61.4737C76.3184 59.8946 74.847 59.0453 73.2799 58.9496C71.7128 58.8539 70.1816 59.452 68.7102 60.7559L66.1502 63.0288Z" fill="#04A83B"/>
<path d="M110.616 60.3362C108.284 61.2454 105.999 61.7119 103.75 61.7239C101.501 61.7239 99.4671 61.3411 97.6369 60.5635C95.8066 59.774 94.1917 58.6375 92.7681 57.1661C91.3446 55.6828 90.244 53.9482 89.4665 51.9624C88.6889 49.9647 88.318 47.943 88.3539 45.8975C88.4018 43.8399 88.8205 41.902 89.622 40.0837C90.4235 38.2654 91.6556 36.5786 93.3064 35.0474C94.9572 33.5162 96.943 32.2961 99.2638 31.3749C101.549 30.4778 103.798 30.0351 106.047 30.0471C108.284 30.0471 110.329 30.4538 112.147 31.2434C113.978 32.0329 115.605 33.1693 117.052 34.6527C118.488 36.136 119.6 37.8586 120.378 39.8444C121.012 41.4474 121.382 43.0623 121.502 44.6892C121.622 46.3161 121.478 47.9072 121.059 49.4503C120.641 50.9935 119.995 52.4529 119.11 53.8166C118.224 55.1804 117.064 56.4245 115.617 57.5489C114.169 58.6734 112.518 59.6065 110.64 60.3482L110.616 60.3362ZM101.584 51.4241C103.14 51.783 104.874 51.5916 106.812 50.826C108.738 50.0724 110.162 49.0316 111.083 47.6918C112.004 46.364 112.147 44.8926 111.525 43.2896C110.891 41.6747 109.791 40.7057 108.224 40.3708C106.657 40.0358 104.898 40.2511 102.96 41.0167C101.034 41.7704 99.6226 42.7992 98.7135 44.1031C97.8043 45.407 97.6727 46.8664 98.3068 48.4814C98.9408 50.0843 100.029 51.0653 101.584 51.4241Z" fill="#04A83B"/>
<path d="M147.086 53.8062L133.867 53.1124L135.434 23.0625L149.813 23.8042C151.009 23.864 152.134 23.9956 153.151 24.187C154.18 24.3784 155.16 24.6774 156.094 25.0602C157.027 25.455 157.816 25.9215 158.462 26.4838C159.108 27.046 159.611 27.7398 159.957 28.5892C160.316 29.4385 160.46 30.3836 160.412 31.4482C160.316 33.2426 159.527 34.6063 158.031 35.5633C156.536 36.5203 154.18 36.9749 150.938 36.951L150.914 37.4773C155.101 37.4534 158.151 38.1592 160.041 39.5708C161.931 40.9824 162.816 42.9681 162.685 45.5281C162.625 46.6885 162.386 47.7173 161.967 48.6264C161.548 49.5356 161.034 50.2892 160.424 50.8754C159.814 51.4735 159.06 51.964 158.163 52.3707C157.266 52.7774 156.393 53.0884 155.531 53.2798C154.67 53.4832 153.701 53.6267 152.624 53.7224C151.536 53.8181 150.591 53.854 149.777 53.854C148.964 53.854 148.079 53.8301 147.11 53.7823L147.086 53.8062ZM144.741 40.3005L144.49 45.0616L148.091 45.253C149.729 45.3367 150.89 45.1812 151.584 44.7984C152.278 44.4156 152.648 43.8175 152.684 43.016C152.768 41.4967 151.524 40.6594 148.964 40.5278L144.729 40.3125L144.741 40.3005ZM145.232 30.9099L145.004 35.336L147.481 35.4676C148.784 35.5394 149.765 35.4078 150.423 35.0968C151.081 34.7858 151.44 34.2235 151.476 33.422C151.524 32.6325 151.237 32.0464 150.627 31.6875C150.017 31.3286 149.048 31.1133 147.72 31.0415L145.244 30.9099H145.232Z" fill="#04A83B"/>
<path d="M172.126 58.4355L162.305 55.6722L170.475 26.7109L180.296 29.4862L172.126 58.4475V58.4355Z" fill="#04A83B"/>
<path d="M194.007 68.8043L173.336 58.2533L187.021 31.4453L207.465 41.8886L203.649 49.3652L192.285 43.5633L190.706 46.6616C191.232 46.2788 191.974 46.3387 192.931 46.8291L201.544 51.2313L197.979 58.2174L189.366 53.8152C188.373 53.3008 187.882 52.7506 187.918 52.1285L186.232 55.4182L197.823 61.3397L194.019 68.7923L194.007 68.8043Z" fill="#04A83B"/>
<path d="M201.732 75.6839L194.375 68.626L215.214 46.9141L223.408 54.7734L218.348 69.4036L214.149 77.9329L214.436 78.208C215.967 75.3011 217.116 73.2555 217.857 72.0952C219.329 69.8223 221.111 67.5853 223.229 65.3842L228.624 59.7618L235.969 66.8077L215.13 88.5197L206.948 80.6723L212.08 65.755L216.171 57.5248L215.896 57.2616C215.776 57.477 215.501 58.0033 215.07 58.8407C214.628 59.6661 214.352 60.2044 214.221 60.4317C214.089 60.671 213.826 61.1375 213.431 61.8553C213.037 62.573 212.726 63.0874 212.498 63.4104C212.271 63.7334 211.948 64.2119 211.517 64.8578C211.087 65.5038 210.68 66.0541 210.285 66.5206C209.89 66.9872 209.424 67.5375 208.886 68.1595C208.347 68.7816 207.761 69.4156 207.139 70.0615L201.744 75.6839H201.732Z" fill="#04A83B"/>
<path d="M228.861 97.8265C228.071 96.3193 227.868 94.8598 228.275 93.4602C228.681 92.0606 229.531 91.0199 230.847 90.326C232.15 89.6442 233.49 89.5365 234.89 90.003C236.289 90.4696 237.378 91.4505 238.156 92.9339C238.933 94.4053 239.113 95.8527 238.706 97.2643C238.299 98.6759 237.438 99.7286 236.146 100.41C234.83 101.104 233.49 101.212 232.103 100.757C230.727 100.303 229.638 99.3218 228.849 97.8146L228.861 97.8265Z" fill="#FFFDD7"/>
<path d="M231.566 131.312L229.688 121.311L251.017 117.304L249.581 109.696L257.835 108.141L262.584 133.405L254.33 134.961L252.895 127.305L231.566 131.312Z" fill="#04A83B"/>
<path d="M230.959 154.09C231.27 151.601 231.952 149.376 233.028 147.391C234.105 145.405 235.409 143.802 236.976 142.57C238.543 141.338 240.314 140.452 242.287 139.914C244.261 139.376 246.319 139.232 248.436 139.495C250.553 139.758 252.515 140.404 254.298 141.421C256.08 142.438 257.587 143.742 258.808 145.309C260.028 146.888 260.913 148.766 261.475 150.955C262.038 153.145 262.157 155.465 261.846 157.942C261.547 160.37 260.853 162.571 259.777 164.533C258.7 166.495 257.372 168.098 255.805 169.318C254.238 170.538 252.456 171.435 250.47 171.997C248.484 172.548 246.438 172.691 244.321 172.428C242.61 172.213 241.019 171.77 239.524 171.1C238.041 170.43 236.713 169.545 235.553 168.433C234.392 167.332 233.423 166.064 232.658 164.629C231.88 163.193 231.342 161.578 231.043 159.772C230.744 157.965 230.72 156.063 230.959 154.066V154.09ZM243.101 150.405C242.048 151.601 241.39 153.228 241.127 155.274C240.876 157.331 241.103 159.078 241.833 160.525C242.563 161.973 243.783 162.798 245.493 163.014C247.216 163.229 248.592 162.727 249.632 161.518C250.673 160.298 251.319 158.659 251.582 156.59C251.833 154.532 251.606 152.798 250.9 151.386C250.195 149.974 248.974 149.161 247.252 148.946C245.541 148.73 244.166 149.221 243.101 150.417V150.405Z" fill="#04A83B"/>
<path d="M223.396 181.618L229.174 170.289L255.982 183.974L250.192 195.303C249.007 197.623 247.715 199.561 246.316 201.116C244.916 202.672 243.517 203.82 242.105 204.574C240.693 205.315 239.222 205.77 237.679 205.925C236.136 206.081 234.652 205.985 233.217 205.65C231.781 205.303 230.31 204.753 228.815 203.999C227.319 203.234 226.015 202.373 224.903 201.428C223.79 200.471 222.845 199.334 222.08 197.994C221.314 196.654 220.812 195.207 220.596 193.616C220.381 192.037 220.501 190.219 220.943 188.173C221.398 186.127 222.211 183.938 223.396 181.618ZM243.72 189.166L232.08 183.221L230.525 186.271C229.628 188.029 229.425 189.656 229.927 191.152C230.43 192.647 231.614 193.879 233.504 194.836C235.394 195.793 237.081 196.044 238.576 195.566C240.071 195.087 241.28 193.975 242.177 192.216L243.732 189.166H243.72Z" fill="#04A83B"/>
<path d="M203.312 207.92C205.142 206.221 207.104 204.941 209.197 204.104C211.291 203.267 213.324 202.884 215.31 202.944C217.296 203.003 219.222 203.458 221.088 204.319C222.954 205.169 224.617 206.389 226.076 207.956C227.536 209.523 228.624 211.269 229.33 213.195C230.048 215.121 230.359 217.083 230.287 219.069C230.215 221.055 229.689 223.076 228.708 225.11C227.739 227.144 226.34 229.01 224.509 230.709C222.715 232.371 220.777 233.615 218.684 234.429C216.59 235.242 214.556 235.613 212.559 235.553C210.561 235.494 208.635 235.027 206.745 234.178C204.867 233.328 203.204 232.12 201.757 230.565C200.584 229.309 199.639 227.933 198.933 226.474C198.228 225.002 197.785 223.471 197.594 221.88C197.402 220.289 197.486 218.698 197.809 217.107C198.132 215.516 198.754 213.925 199.687 212.346C200.62 210.767 201.816 209.296 203.288 207.92H203.312ZM214.987 212.896C213.408 213.136 211.865 213.949 210.346 215.361C208.826 216.772 207.893 218.268 207.523 219.835C207.152 221.414 207.558 222.825 208.731 224.081C209.915 225.349 211.291 225.852 212.87 225.589C214.449 225.325 216.004 224.476 217.523 223.065C219.042 221.653 219.976 220.182 220.334 218.638C220.693 217.095 220.287 215.696 219.102 214.416C217.93 213.16 216.554 212.645 214.975 212.872L214.987 212.896Z" fill="#04A83B"/>
<path d="M174.52 226.404L184.09 222.875L194.497 251.119L173.372 258.906L170.465 251.035L182.021 246.776L180.226 241.895C180.154 242.529 179.604 243.044 178.587 243.415L169.926 246.609L167.211 239.24L175.872 236.046C176.913 235.663 177.654 235.699 178.097 236.141L174.508 226.416L174.52 226.404Z" fill="#04A83B"/>
<path d="M152.796 231.656L162.964 230.914L165.142 260.928L147.521 262.196C144.458 262.411 142.066 261.909 140.319 260.677C138.573 259.445 137.628 257.782 137.472 255.688C137.389 254.444 137.604 253.32 138.142 252.291C138.681 251.274 139.434 250.437 140.415 249.791C141.396 249.145 142.473 248.631 143.657 248.248C144.841 247.865 146.097 247.626 147.401 247.542L147.365 246.992C146.241 247.075 145.272 247.087 144.47 247.04C143.669 246.992 142.903 246.848 142.174 246.609C141.444 246.37 140.834 245.987 140.307 245.472C139.793 244.958 139.362 244.276 139.004 243.451C138.92 243.259 138.549 242.314 137.903 240.616C137.257 238.917 136.635 237.434 136.037 236.166C135.439 234.898 134.912 234.024 134.458 233.534L134.422 232.972L145.427 232.17C145.834 232.888 146.217 233.725 146.6 234.682C146.983 235.639 147.353 236.68 147.736 237.793C148.107 238.905 148.334 239.563 148.406 239.766C149.028 241.465 149.65 242.554 150.272 243.056C150.894 243.558 151.815 243.762 153.048 243.678L153.67 243.63L152.796 231.632V231.656ZM154.423 254.074L154.052 249.013L150.643 249.265C149.447 249.348 148.526 249.611 147.892 250.042C147.258 250.473 146.971 251.167 147.042 252.112C147.114 253.045 147.485 253.667 148.167 253.99C148.849 254.301 149.794 254.42 151.014 254.337L154.423 254.085V254.074Z" fill="#04A83B"/>
<path d="M112.561 227.656L135.254 232.537L128.926 261.953L106.484 257.12L108.255 248.914L120.732 251.605L121.461 248.196C121.055 248.698 120.325 248.83 119.272 248.603L109.81 246.569L111.461 238.901L120.923 240.935C122.024 241.174 122.634 241.593 122.753 242.191L123.531 238.578L110.815 235.839L112.573 227.656H112.561Z" fill="#04A83B"/>
<path d="M102.143 221.673C106.21 223.815 109.332 226.434 111.509 229.521L106.078 239.821L105.397 239.462C104.2 235.275 101.425 232.033 97.0707 229.736C96.3051 229.329 95.6591 229.102 95.1328 229.03C94.6064 228.971 94.2595 229.078 94.104 229.377C94.0083 229.557 94.0801 229.796 94.3193 230.119C94.5586 230.442 94.9055 230.813 95.372 231.219C95.8386 231.638 96.3888 232.093 96.9989 232.607C97.621 233.121 98.243 233.684 98.901 234.306C99.547 234.928 100.193 235.574 100.803 236.244C101.425 236.914 101.963 237.655 102.43 238.445C102.896 239.246 103.255 240.048 103.519 240.861C103.782 241.675 103.865 242.548 103.782 243.481C103.698 244.414 103.411 245.335 102.92 246.256C102.203 247.632 101.222 248.709 100.002 249.474C98.7813 250.252 97.4535 250.694 96.006 250.838C94.5586 250.982 93.0752 250.874 91.5201 250.527C89.965 250.18 88.4457 249.618 86.9504 248.828C83.1344 246.819 80.2394 243.983 78.2656 240.311L83.0267 231.267L83.5531 231.542C84.223 233.504 85.2757 235.359 86.6992 237.105C88.1227 238.84 89.7616 240.203 91.6038 241.172C93.3863 242.105 94.4509 242.249 94.7978 241.603C94.9175 241.364 94.8696 241.077 94.6184 240.742C94.3791 240.407 94.0083 240.024 93.5059 239.605C93.0034 239.187 92.4293 238.732 91.7713 238.229C91.1134 237.727 90.4315 237.177 89.7257 236.579C89.0199 235.981 88.3261 235.358 87.6562 234.701C86.9863 234.043 86.3882 233.325 85.8738 232.547C85.3594 231.77 84.9527 230.98 84.6656 230.167C84.3785 229.353 84.2708 228.468 84.3545 227.523C84.4383 226.566 84.7374 225.609 85.2398 224.652C86.8906 221.518 89.1874 219.747 92.1421 219.329C95.0969 218.91 98.4344 219.688 102.155 221.649L102.143 221.673Z" fill="#04A83B"/>
<path d="M78.9501 204.39C80.7565 206.125 82.1202 208.015 83.0652 210.036C84.0103 212.058 84.5007 214.068 84.5366 216.053C84.5725 218.039 84.2136 219.989 83.448 221.903C82.6824 223.817 81.546 225.564 80.0267 227.131C78.5434 228.674 76.8686 229.858 74.9905 230.672C73.1244 231.497 71.1984 231.916 69.2126 231.952C67.2388 231.988 65.2171 231.569 63.1476 230.708C61.0781 229.846 59.1402 228.542 57.3338 226.796C55.9581 225.468 54.8456 224.032 54.0322 222.501C53.2068 220.97 52.6804 219.63 52.4531 218.506L60.5398 210.12L60.9944 210.563C61.0303 212.656 61.3413 214.367 61.9035 215.683C62.4658 216.999 63.3629 218.243 64.5831 219.415C66.1383 220.91 67.6695 221.748 69.1887 221.927C70.7079 222.107 72.0238 221.616 73.1483 220.444C74.2728 219.271 74.7273 217.92 74.512 216.364C74.2967 214.821 73.4234 213.302 71.8922 211.831C70.672 210.658 69.3921 209.809 68.0523 209.283C66.7125 208.756 65.0018 208.517 62.9203 208.553L62.4658 208.11L70.4687 199.82C71.6051 200.012 72.9569 200.478 74.524 201.256C76.0911 202.021 77.5625 203.074 78.9381 204.402L78.9501 204.39Z" fill="#04A83B"/>
<path d="M64.3548 184.021C65.5152 186.234 66.221 188.459 66.4842 190.696C66.7354 192.933 66.5799 195.002 65.9937 196.904C65.4075 198.806 64.4625 200.541 63.1466 202.12C61.8307 203.699 60.2278 204.979 58.3257 205.972C56.4356 206.965 54.4618 207.551 52.4162 207.73C50.3706 207.91 48.3968 207.706 46.4948 207.108C44.5927 206.51 42.7864 205.469 41.0877 203.998C39.389 202.527 37.9535 200.684 36.7932 198.471C35.6567 196.306 34.9629 194.105 34.7356 191.88C34.4964 189.655 34.6758 187.585 35.262 185.683C35.8481 183.781 36.8051 182.035 38.121 180.444C39.4369 178.853 41.0399 177.561 42.918 176.58C44.4492 175.778 46.0043 175.228 47.6193 174.941C49.2222 174.642 50.8133 174.618 52.4043 174.857C53.9833 175.109 55.5026 175.587 56.95 176.329C58.3975 177.058 59.7612 178.087 61.0412 179.391C62.3212 180.707 63.4337 182.25 64.3668 184.033L64.3548 184.021ZM56.4835 193.973C56.6749 192.394 56.2801 190.684 55.3231 188.842C54.3661 187.011 53.1699 185.707 51.7463 184.93C50.3228 184.164 48.8514 184.176 47.3202 184.978C45.789 185.779 44.9397 186.975 44.7722 188.578C44.6167 190.169 45.0114 191.892 45.9804 193.734C46.9374 195.564 48.1217 196.868 49.5093 197.622C50.897 198.376 52.3684 198.352 53.8996 197.55C55.4188 196.749 56.2801 195.564 56.4715 193.973H56.4835Z" fill="#04A83B"/>
<path d="M46.9578 156.758C47.1971 158.445 46.898 159.881 46.0487 161.065C45.1993 162.249 44.039 162.943 42.5795 163.158C41.1201 163.362 39.8162 163.015 38.6558 162.106C37.4955 161.197 36.7897 159.917 36.5624 158.254C36.3231 156.603 36.6342 155.179 37.4955 153.983C38.3568 152.787 39.5171 152.081 40.9646 151.878C42.436 151.674 43.7399 152.009 44.8883 152.907C46.0367 153.804 46.7305 155.084 46.9698 156.758H46.9578Z" fill="#FFFDD7"/>
</g>
<defs>
<clipPath id="clip0_175_3132">
<rect width="286" height="286" fill="white"/>
</clipPath>
</defs>
</svg>
