<svg width="324" height="301" viewBox="0 0 324 301" fill="none" xmlns="http://www.w3.org/2000/svg">
<g clip-path="url(#clip0_167_1677)">
<path d="M322.923 199.081C320.553 190.281 314.103 183.201 305.243 179.671C295.653 175.851 286.443 176.521 278.553 177.461C272.883 178.131 267.803 178.411 263.223 178.301C266.353 171.151 269.203 160.891 263.203 149.701C263.463 148.871 263.723 148.001 263.963 147.091C267.503 133.731 263.463 120.151 253.393 110.981C253.393 110.261 253.403 109.551 253.393 108.831C252.993 91.1205 240.183 75.4905 223.583 72.4805C211.323 70.2605 200.293 69.7905 189.833 71.0405C181.623 72.0205 173.283 73.5405 164.953 75.5705C165.053 70.0805 164.813 64.9405 164.233 60.0305C161.103 33.5805 148.233 14.9005 125.983 4.51053C117.123 0.390529 107.493 -0.689471 98.1029 1.39053C89.4529 3.31053 82.6029 9.04053 78.2929 17.9505C71.3129 32.3905 73.6229 47.8605 84.8029 61.5305C91.2329 69.3905 90.2829 80.9205 82.4929 89.5705C74.8929 98.0105 69.5729 105.521 65.7529 113.201C63.1629 118.411 60.5229 124.061 58.6029 130.231C57.6129 127.861 56.0129 125.771 53.9229 124.171C50.7729 121.761 46.8629 120.711 42.9229 121.241L34.2529 122.391C28.5229 123.151 23.9929 127.011 22.1829 132.131L12.9029 133.361C4.77293 134.441 -0.957066 141.931 0.122934 150.061L1.52293 160.571C1.93293 163.681 3.28293 166.511 5.39293 168.761C4.01293 172.241 4.00293 176.051 5.35293 179.561L9.17293 189.471C9.65293 190.701 10.2729 191.851 11.0329 192.891C11.1729 194.181 11.4729 195.451 11.9429 196.651L16.0829 207.381C16.6729 208.911 17.5229 210.351 18.5829 211.611C19.0229 213.141 19.7029 214.591 20.6029 215.891L26.9329 225.121C27.8829 226.511 29.0529 227.711 30.3929 228.691C30.8229 230.291 31.5329 231.821 32.4829 233.211L38.8129 242.441C39.8229 243.911 41.0929 245.191 42.5429 246.201C43.3829 248.031 44.5829 249.671 46.0929 251.041L53.9829 258.161C54.9229 259.011 55.9729 259.731 57.1029 260.321C57.8029 261.381 58.6329 262.351 59.5729 263.201L68.3429 271.111C71.0829 273.581 74.6129 274.941 78.3029 274.941C79.3529 274.941 80.4029 274.831 81.4229 274.611C82.4629 276.141 83.6629 277.591 85.0029 278.931C86.9129 280.851 89.0729 282.501 91.4529 283.861C92.5229 288.611 95.8929 292.601 100.443 294.421L113.323 299.581C115.093 300.291 116.953 300.651 118.843 300.651C123.703 300.651 128.133 298.331 130.883 294.521C133.633 295.621 136.653 296.341 139.883 296.671C143.433 297.031 146.863 296.861 150.003 296.181C151.593 295.841 153.123 295.361 154.583 294.761C156.943 296.251 159.693 297.081 162.523 297.081C162.763 297.081 163.013 297.081 163.253 297.061L173.863 296.541C176.123 296.431 178.333 295.801 180.303 294.711C184.873 295.421 189.713 295.321 194.723 294.441C202.153 293.131 208.143 290.191 212.523 285.701C218.053 280.031 220.283 272.311 218.823 263.951C218.373 261.401 217.543 259.021 216.353 256.851L214.553 246.621C214.503 246.311 214.433 246.011 214.363 245.711C216.553 245.931 218.743 246.181 220.953 246.451C242.293 249.131 261.583 248.781 279.933 245.371C290.563 243.391 306.033 239.081 317.463 224.501C323.283 217.071 325.283 207.801 322.923 199.071V199.081Z" fill="#FFFDD7"/>
<path d="M299.73 193.482C293.31 190.922 286.86 191.442 280.3 192.222C266.53 193.852 252.87 193.912 239.64 188.912C239.67 188.962 239.68 189.022 239.71 189.072L239.48 188.652C239.48 188.652 239.52 188.662 239.54 188.672C241.67 185.872 244.41 183.352 245.82 180.222C249.32 172.412 255.25 164.762 249.42 155.532L247.11 150.972C247.95 148.412 248.91 145.882 249.6 143.282C251.97 134.342 248.47 125.152 240.83 119.952L240.74 119.892C240.74 119.892 240.8 119.912 240.83 119.922C237.94 116.782 238.61 112.952 238.53 109.172C238.29 98.6818 230.74 88.8918 220.93 87.1218C211.27 85.3718 201.53 84.6218 191.6 85.8118C178.46 87.3818 165.69 90.3018 153.16 94.3818C149.92 95.4318 148.24 96.7418 148.93 91.1118C150.11 81.4418 150.61 71.4218 149.47 61.7818C147.17 42.3418 138.29 26.6718 119.7 17.9918C113.85 15.2618 107.59 14.5218 101.35 15.9118C96.7997 16.9218 93.8897 19.9018 91.6997 24.4318C86.5797 35.0118 89.9597 44.3218 96.3297 52.1118C107.92 66.2718 105.91 85.8018 93.5597 99.5218C88.0197 105.682 82.7497 112.462 79.0797 119.822C74.0497 129.932 69.5397 140.492 70.7997 152.472C73.7197 180.402 86.1997 203.262 107.53 221.132C120.15 231.702 134.55 237.592 151.55 233.002C153.84 232.382 156.29 232.372 158.66 232.022C180.03 228.862 201.29 229.012 222.82 231.712C240.83 233.982 259.13 234.132 277.22 230.762C288.43 228.682 298.47 224.642 305.76 215.342C311.93 207.472 309.01 197.182 299.73 193.482Z" fill="#F4DC0C"/>
<path d="M239.518 188.675C239.518 188.675 202.678 218.425 175.888 201.765C175.888 201.765 167.688 194.845 169.858 182.695" stroke="#FF2F00" stroke-width="7.23" stroke-linecap="round" stroke-linejoin="round"/>
<path d="M200.957 102.078C200.957 102.078 178.167 112.798 163.507 116.618C148.847 120.438 131.617 135.258 150.087 149.228C168.557 163.198 228.287 134.028 240.807 119.948" stroke="#FF2F00" stroke-width="7.23" stroke-linecap="round" stroke-linejoin="round"/>
<path d="M249.399 155.534C249.399 155.534 221.479 175.064 191.339 180.394C161.189 185.714 152.439 181.574 146.799 173.664C141.159 165.754 145.919 153.944 150.109 149.234" stroke="#FF2F00" stroke-width="7.23" stroke-linecap="round" stroke-linejoin="round"/>
<path d="M196.712 104.024L188.492 100.234" stroke="#FF2F00" stroke-width="7.23" stroke-linecap="round" stroke-linejoin="round"/>
<path d="M16.3006 158.801L14.8906 148.291L37.2906 145.291L36.2206 137.301L44.8906 136.141L48.4506 162.681L39.7806 163.841L38.7006 155.801L16.3006 158.801Z" fill="#FC2E02"/>
<path d="M23.0878 184.241L19.2578 174.331L48.4978 163.031L55.1278 180.201C56.2778 183.181 56.5078 185.721 55.8078 187.841C55.1078 189.951 53.7378 191.401 51.6978 192.191C50.4878 192.661 49.2878 192.781 48.1178 192.561C46.9378 192.341 45.8778 191.841 44.9378 191.061C43.9978 190.281 43.1578 189.361 42.4178 188.301C41.6778 187.231 41.0578 186.061 40.5678 184.791L40.0378 185.001C40.4678 186.101 40.7778 187.061 40.9678 187.871C41.1678 188.681 41.2578 189.491 41.2378 190.291C41.2178 191.091 41.0278 191.821 40.6678 192.491C40.3078 193.161 39.7678 193.801 39.0478 194.401C38.8878 194.541 38.0578 195.191 36.5578 196.361C35.0578 197.521 33.7778 198.601 32.6878 199.581C31.5978 200.561 30.8878 201.351 30.5478 201.951L29.9978 202.161L25.8578 191.431C26.4478 190.811 27.1678 190.171 28.0078 189.501C28.8478 188.831 29.7678 188.141 30.7578 187.431C31.7478 186.721 32.3378 186.301 32.5178 186.161C34.0178 185.021 34.9178 184.061 35.2278 183.301C35.5378 182.531 35.4678 181.551 35.0078 180.351L34.7678 179.741L23.0878 184.251V184.241ZM44.9278 175.801L39.9978 177.711L41.2778 181.031C41.7278 182.201 42.2678 183.031 42.8878 183.531C43.5078 184.031 44.2878 184.101 45.2078 183.751C46.1178 183.401 46.6278 182.831 46.7378 182.061C46.8478 181.281 46.6678 180.311 46.2078 179.121L44.9278 175.801Z" fill="#FC2E02"/>
<path d="M39.2306 216.77L32.8906 207.55L62.9806 196L72.7006 210.14L51.1206 234.09L44.7806 224.87L47.3706 222.16C47.9806 221.53 48.6306 221.08 49.3206 220.82L44.6306 213.99C44.1406 214.54 43.4906 214.98 42.6806 215.33L39.2206 216.78L39.2306 216.77ZM50.7206 210.95L50.5206 211.09L54.1506 216.37L54.3506 216.23C54.4806 215.52 55.4806 214.16 57.3506 212.15C58.6006 210.85 60.0106 209.5 61.5906 208.09C63.1706 206.69 64.2906 205.76 64.9306 205.32L64.6906 204.98C64.0406 205.43 62.7806 206.13 60.9006 207.11C59.0206 208.08 57.2506 208.92 55.5906 209.61C53.0406 210.64 51.4106 211.08 50.7006 210.95H50.7206Z" fill="#FC2E02"/>
<path d="M63.9525 247.124L56.0625 240.004L77.0625 216.734L85.8425 224.654L81.0425 240.054L76.9425 249.074L77.2525 249.354C78.7525 246.274 79.8725 244.114 80.6225 242.884C82.0725 240.464 83.8725 238.084 85.9925 235.724L91.4225 229.704L99.2925 236.804L78.2925 260.074L69.5325 252.164L74.3925 236.464L78.3825 227.764L78.0925 227.504C77.9825 227.734 77.7125 228.294 77.2825 229.174C76.8525 230.054 76.5725 230.614 76.4525 230.864C76.3225 231.114 76.0625 231.614 75.6725 232.364C75.2825 233.114 74.9725 233.664 74.7525 234.004C74.5325 234.344 74.2125 234.854 73.7825 235.544C73.3525 236.224 72.9425 236.814 72.5525 237.314C72.1625 237.814 71.6925 238.394 71.1525 239.064C70.6125 239.734 70.0225 240.414 69.4025 241.104L63.9725 247.124H63.9525Z" fill="#FC2E02"/>
<path d="M118.757 285.749L105.877 280.579C105.757 279.789 105.857 278.919 106.177 277.969C106.507 277.019 106.897 276.179 107.347 275.459C107.797 274.739 108.217 273.979 108.577 273.179C108.947 272.379 109.107 271.739 109.057 271.269L108.667 271.069C108.157 271.669 107.567 272.109 106.897 272.399C106.227 272.689 105.527 272.819 104.797 272.789C104.067 272.759 103.387 272.679 102.767 272.539C102.137 272.399 101.507 272.199 100.877 271.949C98.7667 271.099 96.9568 269.919 95.4568 268.409C93.9568 266.899 92.8367 265.209 92.1267 263.349C91.4167 261.489 91.0667 259.499 91.0867 257.369C91.1067 255.239 91.5268 253.149 92.3568 251.099C93.1868 249.029 94.3468 247.229 95.8468 245.709C97.3468 244.189 99.0468 243.009 100.967 242.199C102.877 241.389 105.007 240.989 107.357 241.009C109.707 241.029 112.087 241.519 114.487 242.479C116.857 243.429 118.887 244.709 120.577 246.309C122.277 247.919 123.527 249.669 124.347 251.579C125.167 253.489 125.597 255.519 125.627 257.659C125.657 259.809 125.267 261.909 124.437 263.969C123.877 265.359 123.157 266.599 122.267 267.669C121.377 268.739 120.377 269.609 119.257 270.279C118.137 270.949 116.877 271.319 115.477 271.399C114.077 271.479 112.647 271.219 111.197 270.619L110.997 271.129C112.067 271.559 112.967 272.049 113.687 272.609C114.417 273.169 114.967 273.759 115.347 274.379C115.727 274.999 116.027 275.649 116.237 276.329C116.457 276.999 116.627 277.719 116.757 278.479C116.887 279.239 117.017 279.969 117.147 280.679C117.277 281.389 117.497 282.149 117.797 282.969C118.097 283.779 118.487 284.529 118.967 285.229L118.757 285.759V285.749ZM102.007 259.379C102.927 260.759 104.387 261.849 106.387 262.659C108.387 263.469 110.217 263.689 111.867 263.339C113.517 262.989 114.677 261.979 115.337 260.319C116.007 258.639 115.867 257.119 114.917 255.749C113.967 254.379 112.487 253.289 110.467 252.479C108.467 251.679 106.657 251.449 105.047 251.789C103.437 252.129 102.287 253.139 101.617 254.819C100.947 256.479 101.077 258.009 101.997 259.389L102.007 259.379Z" fill="#FC2E02"/>
<path d="M146.731 281.633C145.091 281.983 143.261 282.063 141.251 281.863C139.231 281.663 137.461 281.223 135.911 280.543C134.361 279.863 133.111 279.013 132.131 277.983C131.151 276.953 130.371 275.743 129.801 274.353C129.221 272.963 128.851 271.473 128.691 269.903C128.531 268.323 128.541 266.623 128.721 264.793L130.351 248.703L140.901 249.773L139.231 266.303C138.891 269.663 139.911 271.473 142.291 271.713C144.641 271.953 145.981 270.383 146.321 267.023L147.991 250.493L158.541 251.563L156.911 267.653C156.731 269.483 156.401 271.153 155.931 272.663C155.461 274.173 154.811 275.553 153.961 276.803C153.121 278.053 152.111 279.083 150.941 279.893C149.771 280.703 148.371 281.293 146.731 281.643V281.633Z" fill="#FC2E02"/>
<path d="M172.969 281.701L162.359 282.211L160.859 250.901L171.469 250.391L172.969 281.701Z" fill="#FC2E02"/>
<path d="M191.932 279.831C187.212 280.661 182.972 280.491 179.222 279.321L177.132 267.371L177.932 267.231C181.582 269.921 185.932 270.821 190.992 269.941C191.882 269.781 192.562 269.571 193.042 269.281C193.522 269.001 193.722 268.681 193.662 268.341C193.622 268.141 193.412 267.981 193.012 267.861C192.612 267.741 192.092 267.671 191.442 267.621C190.792 267.581 190.052 267.541 189.212 267.511C188.382 267.481 187.492 267.411 186.562 267.321C185.632 267.221 184.692 267.101 183.752 266.931C182.812 266.771 181.902 266.511 181.002 266.141C180.112 265.781 179.302 265.351 178.572 264.851C177.842 264.351 177.212 263.691 176.692 262.861C176.172 262.031 175.812 261.091 175.632 260.031C175.352 258.441 175.472 256.931 175.982 255.521C176.492 254.111 177.302 252.891 178.402 251.861C179.502 250.831 180.802 249.971 182.302 249.261C183.802 248.551 185.412 248.051 187.152 247.751C191.572 246.981 195.762 247.471 199.732 249.241L201.562 259.731L200.962 259.841C199.152 258.651 197.112 257.791 194.832 257.261C192.552 256.731 190.342 256.661 188.202 257.031C186.132 257.391 185.172 257.951 185.302 258.711C185.352 258.981 185.582 259.181 185.992 259.311C186.402 259.441 186.952 259.511 187.632 259.531C188.312 259.551 189.082 259.561 189.942 259.561C190.812 259.561 191.722 259.581 192.682 259.611C193.642 259.641 194.612 259.721 195.582 259.841C196.552 259.961 197.502 260.161 198.422 260.481C199.342 260.801 200.182 261.191 200.942 261.671C201.702 262.151 202.352 262.811 202.882 263.651C203.412 264.491 203.792 265.471 203.982 266.591C204.612 270.221 203.852 273.151 201.672 275.371C199.502 277.591 196.252 279.081 191.932 279.831Z" fill="#FC2E02"/>
</g>
<defs>
<clipPath id="clip0_167_1677">
<rect width="323.88" height="300.28" fill="white" transform="translate(0 0.359375)"/>
</clipPath>
</defs>
</svg>
