<svg width="285" height="284" viewBox="0 0 285 284" fill="none" xmlns="http://www.w3.org/2000/svg">
<path d="M284.312 283.67C284.312 207.371 224.125 145.148 148.642 141.827C223.969 138.349 283.983 76.1839 283.983 0C207.684 0 145.461 60.179 142.139 135.662C138.662 60.3356 76.5046 0.329658 0.3125 0.329658C0.3125 76.6289 60.4997 138.852 135.983 142.173C60.6563 145.651 0.642158 207.808 0.642158 284C76.9414 284 139.164 223.813 142.486 148.329C145.963 223.664 208.129 283.67 284.321 283.67H284.312ZM142.304 142.008V141.992C142.304 141.992 142.312 141.992 142.321 141.992C142.321 141.992 142.321 142 142.321 142.008H142.304Z" fill="#87C700"/>
</svg>
