<svg width="203" height="123" viewBox="0 0 203 123" fill="none" xmlns="http://www.w3.org/2000/svg">
<g clip-path="url(#clip0_281_71)">
<path d="M202.039 16.4721C201.264 12.4497 197.901 9.97352 192.041 9.10418C189.279 8.69446 185.637 8.55551 181.209 8.69089C178.271 8.77997 175.374 8.97236 172.956 9.17544C172.567 8.49494 172.149 7.97833 171.831 7.63273C168.68 4.20884 163.393 3.42501 154.694 5.08886C154.323 5.16012 153.955 5.23494 153.591 5.30976C153.131 4.29791 152.515 3.47846 151.872 2.83002C149.785 0.710128 145.758 -1.70548 134.894 1.76829C134.675 1.83955 134.455 1.91081 134.236 1.98206C130.381 -1.61284 123.892 0.0331882 113.63 4.25159C111.741 5.02829 109.885 5.8335 108.201 6.59238C107.812 6.11852 107.413 5.73017 107.045 5.42377C102.734 1.81105 95.8631 2.43811 84.08 7.52941C81.5798 8.60895 79.1786 9.75618 77.124 10.7823C75.614 8.73009 73.7503 7.71468 72.1024 7.23013C67.5546 5.88694 62.4198 7.92132 56.4116 13.4509C55.775 14.0387 55.1597 14.6302 54.5868 15.2109C49.5369 14.1919 45.2155 18.5778 41.6438 23.0385C41.428 23.3092 41.2123 23.5836 41.0001 23.8508C41.0001 23.8508 40.9931 23.8508 40.9895 23.8508C36.9687 22.928 32.1345 24.9375 30.3876 31.5002C19.8881 70.9801 12.4441 80.0261 5.9655 83.9239C0.809496 87.0271 -1.22037 93.5293 1.25154 99.0659L1.29751 99.1693C3.16117 103.341 7.2987 106.099 11.8358 106.192C17.151 106.302 24.8814 108.91 37.6901 113.232C44.0626 115.38 51.9947 118.056 61.6489 121.106C64.6477 122.053 66.9075 122.631 68.5625 122.869C71.8336 123.347 73.8953 122.477 75.179 121.359C79.4863 121.683 85.2187 122.167 88.7126 122.677C89.9221 122.851 90.9971 122.862 91.9519 122.752C95.2407 122.374 97.1008 120.593 98.0026 119.378C98.5437 118.651 98.9327 117.888 99.205 117.115C102.897 117.34 107.201 117.443 110.521 117.062C110.589 117.055 110.659 117.044 110.726 117.037C115.207 116.492 116.961 114.026 117.647 112.277C118.747 112.142 119.935 111.963 121.219 111.732C122.941 111.422 127.414 110.613 129.579 107.456C131.51 107.321 133.621 107.093 135.661 106.698C140.662 105.736 142.295 102.33 142.766 100.908C143.045 100.071 143.176 99.237 143.197 98.4246C146.182 97.4591 149.188 96.0055 152.119 94.4485L152.367 94.3167C154.973 92.9343 156.543 90.5614 156.678 87.8038C156.678 87.7539 156.681 87.704 156.685 87.6542C158.969 86.5924 161.533 85.2243 164.475 83.6175C165.045 83.3075 165.6 83.0046 166.127 82.7196C170.505 80.3539 171.283 76.8766 171.361 75.0132C171.385 74.4289 171.347 73.8695 171.265 73.328C174.059 71.8351 176.8 69.9967 178.921 68.112C181.312 65.9885 182.483 63.2238 182.214 60.3236C182.186 60.0314 182.147 59.7464 182.094 59.4685C187.713 56.319 190.987 52.2858 191.833 47.4653C192.275 44.9392 191.949 42.6555 191.334 40.7565C192.222 39.7304 193.194 38.4763 194.266 36.9371C197.028 32.9717 203.308 23.0385 202.042 16.4686L202.039 16.4721Z" fill="white"/>
<path d="M6.88418 96.6254C6.8665 96.5862 6.84882 96.5471 6.83114 96.5079C5.64292 93.8464 6.62249 90.7111 9.10855 89.2147C18.3915 83.6317 26.1644 71.2188 36.3066 33.0893C37.8838 27.1607 42.3786 30.5597 41.887 33.1855C41.887 33.1855 54.0768 14.2062 54.8513 24.0788C54.8513 24.0788 71.999 2.55216 73.7814 19.5148C73.7814 19.5148 109.053 -0.572457 103.533 15.5886C103.533 15.5886 138.741 -1.93703 128.641 10.8322C128.641 10.8322 154.028 -1.22089 147.033 13.4081C147.033 13.4081 171.869 5.23854 167.502 15.9235C167.502 15.9235 195.032 12.5139 196.022 17.6479C197.013 22.782 186.612 38.7969 183.613 39.2708C183.613 39.2708 191.379 47.7397 178.305 54.5091L173.439 57.4342C173.439 57.4342 178.358 60.3806 174.868 63.4803C171.378 66.58 165.652 69.644 162.056 70.41C162.056 70.41 168.361 74.5073 163.233 77.2792C158.109 80.0511 150.679 84.3621 147.67 83.8598C147.67 83.8598 152.677 87.1839 149.519 88.8584C146.358 90.5365 139.268 94.4022 134.536 93.1909C134.536 93.1909 140.258 99.5363 134.518 100.641C128.775 101.745 122.251 101.407 122.251 101.407C122.251 101.407 128.885 104.079 120.143 105.661C111.401 107.239 108.215 105.981 108.215 105.981C108.215 105.981 115.401 110.257 109.997 110.916C104.597 111.575 95.2859 110.656 92.8034 110.382C92.8034 110.382 96.0427 117.511 89.5959 116.574C83.1492 115.633 69.8383 114.803 69.8383 114.803C69.8383 114.803 75.8148 119.114 63.4906 115.22C33.4952 105.746 21.1569 100.213 11.9695 100.024C9.76631 99.9781 7.79302 98.6598 6.89125 96.6397" fill="#00943B"/>
<path d="M61.41 95.2459L61.4062 95.2422L61.4175 95.2534L61.41 95.2459Z" fill="white"/>
<path d="M73.674 31.9273C72.9137 31.5675 72.0084 31.8952 71.6512 32.6612C71.6512 32.6612 71.4991 32.989 71.2092 33.6054C70.9263 34.2218 70.5231 35.1267 70.0245 36.3239C69.5188 37.521 68.9742 38.9568 68.3341 40.6242C65.841 47.1228 63.9207 53.8103 62.1207 60.5298C61.417 63.1627 60.7663 65.9026 60.1227 68.703C58.8036 74.4285 57.5447 80.4532 57.2724 86.3355C57.1133 89.4815 57.3537 92.7949 58.2272 96.0015C58.3333 96.4005 58.4641 96.796 58.5844 97.1915L58.6304 97.3411L58.6869 97.5085L58.7789 97.7651C62.538 108.072 74.9117 106.255 81.1675 99.6534C83.0878 97.619 84.6791 95.2248 85.8921 92.7023C86.1114 92.2462 86.32 91.7617 86.3059 91.2558C86.221 88.2879 82.2355 91.0669 81.1605 91.7617C77.8681 93.8994 74.6712 96.1012 70.6327 96.429C70.1518 96.4682 69.6602 96.486 69.2005 96.3328C66.3644 95.3993 66.5129 88.9114 66.5447 86.6348C66.5624 85.3806 66.6473 84.0766 66.7746 82.7406C67.1388 78.572 67.7365 74.4071 68.3907 70.2742C68.7832 67.5059 69.2323 64.7803 69.6426 62.1366C70.7318 55.3922 71.8457 48.6513 73.0021 41.9175C73.2956 40.2038 73.5714 38.6967 73.8013 37.4889C74.01 36.2704 74.2045 35.2942 74.3388 34.6244C74.4626 33.9546 74.5263 33.5983 74.5263 33.5983C74.65 32.932 74.3176 32.2337 73.6811 31.9309" fill="white"/>
<path d="M98.9042 73.2339C98.6638 73.1377 98.3879 73.1448 98.1545 73.2659L97.4968 73.6009C97.4968 73.6009 97.3199 73.6899 97.0229 73.8823C96.7188 74.0676 96.2732 74.3384 95.7463 74.6982C95.2123 75.0509 94.5899 75.4927 93.8897 75.9915C93.6528 76.1661 93.4017 76.3478 93.1435 76.5402C92.56 76.9713 91.729 76.558 91.7219 75.8312C91.7219 75.8241 91.7219 75.8169 91.7219 75.8098C91.7113 75.1257 91.7078 74.4417 91.7148 73.7505C91.6936 72.3717 91.7325 70.9822 91.7431 69.6033C91.7714 68.2174 91.7997 66.8528 91.828 65.5346C91.8563 64.195 91.881 62.9016 91.9058 61.676C91.9341 60.4433 91.9412 59.2675 91.9482 58.1773C91.9624 56.0004 91.927 54.1584 91.8669 52.8651C91.8315 52.2131 91.8032 51.7036 91.782 51.358C91.7537 51.0089 91.7396 50.82 91.7396 50.82C91.6795 50.1217 91.2516 49.4733 90.5691 49.1776C89.5789 48.7465 88.4331 49.2061 88.0052 50.2001C88.0052 50.2001 87.9309 50.3711 87.793 50.6953C87.6622 51.0196 87.4747 51.4934 87.2343 52.0991C86.771 53.314 86.1521 55.0598 85.5121 57.1904C85.3459 57.7213 85.1903 58.2806 85.0311 58.8578C84.8649 59.435 84.7058 60.0371 84.5537 60.657C84.2319 61.8934 83.9419 63.2152 83.6555 64.594C83.3938 65.9764 83.125 67.4086 82.9305 68.8836C82.7113 70.3587 82.5698 71.8693 82.446 73.3942C82.3859 74.1567 82.3576 74.9227 82.3258 75.6851C82.294 76.4226 82.2622 77.2884 82.3258 78.2504C82.3895 79.2123 82.5345 80.3132 82.9093 81.4925C83.0013 81.7847 83.1144 82.084 83.2382 82.3833L83.3372 82.6077L83.3867 82.7182L83.5034 82.9569L83.6272 83.1849C83.7227 83.3595 83.8535 83.5768 83.9702 83.7656C84.094 83.958 84.1824 84.0756 84.292 84.2288C84.5077 84.5174 84.7376 84.7917 84.9887 85.0518C85.9789 86.0886 87.2732 86.9544 88.9176 87.357C89.7309 87.5601 90.6186 87.6171 91.4814 87.5173C91.6971 87.4852 91.9093 87.4532 92.1215 87.4104L92.4221 87.3427L92.4787 87.3214L92.5918 87.2822L92.9172 87.1788L93.2814 87.0506C93.4512 86.9793 93.628 86.9045 93.7907 86.8226C95.0885 86.1634 95.8488 85.3867 96.4076 84.749C96.6834 84.4212 96.9062 84.1219 97.1007 83.8476C97.327 83.5412 97.4119 83.3702 97.5958 83.0887C98.2465 82.0769 98.738 81.1185 99.1518 80.242C99.5549 79.362 99.8591 78.5746 100.075 77.9048C100.298 77.2421 100.425 76.697 100.51 76.3229C100.598 75.9523 100.626 75.7457 100.626 75.7457C100.75 74.8015 100.248 73.7541 98.9113 73.2268M92.026 78.6173C92.0472 78.653 92.0649 78.6886 92.072 78.7064L92.026 78.6173Z" fill="white"/>
<path d="M145.621 34.9259C145.621 34.9259 144.737 35.243 143.188 35.7952C142.41 36.066 141.48 36.4187 140.412 36.8284C139.878 37.0315 139.308 37.2488 138.711 37.4769C138.117 37.7191 137.491 37.9721 136.84 38.2358C135.532 38.7559 134.135 39.358 132.66 40.0029C131.182 40.6335 129.647 41.3639 128.056 42.0943C126.479 42.8639 124.845 43.637 123.215 44.4885C121.574 45.308 119.94 46.2165 118.299 47.0965C117.065 47.7984 115.838 48.4967 114.625 49.2057C114.681 47.6559 114.752 46.1025 114.833 44.5491C114.985 41.6881 115.187 38.8379 115.452 36.0482C115.717 33.262 116.05 30.5364 116.492 27.9641C116.715 26.6779 116.966 25.4345 117.259 24.2587C117.549 23.083 117.899 21.9785 118.292 21.0664C118.486 20.6246 118.702 20.2256 118.872 19.9797C118.911 19.937 118.957 19.8515 118.982 19.8301C118.996 19.8159 119.006 19.798 119.017 19.7838C119.017 19.7767 119.035 19.7624 119.028 19.7624C119.013 19.7731 118.996 19.7874 118.978 19.7945C118.943 19.8123 118.9 19.8265 118.861 19.8301C118.861 19.8301 118.826 19.8372 118.844 19.8301L118.893 19.8052L118.992 19.7553L119.091 19.7054L119.123 19.6912C119.48 19.538 119.76 19.4988 119.979 19.4703C120.205 19.4453 120.322 19.4631 120.481 19.5273C120.637 19.5914 120.824 19.7268 121.022 19.9512C121.213 20.1935 121.407 20.4857 121.574 20.8277C121.91 21.5082 122.15 22.3134 122.341 23.0865C122.712 24.6506 122.886 26.1399 123.006 27.3691C123.126 28.6018 123.193 29.5959 123.253 30.2871C123.317 30.9854 123.349 31.3559 123.349 31.3559C123.42 32.1148 124.049 32.724 124.827 32.7383C125.658 32.7525 126.344 32.0827 126.358 31.2419V31.2134C126.358 31.2134 126.365 30.8571 126.376 30.1944C126.39 29.521 126.429 28.5234 126.44 27.2159C126.443 25.9083 126.44 24.305 126.196 22.3811C126.061 21.4156 125.884 20.3717 125.471 19.2137C125.266 18.6366 124.983 18.0273 124.594 17.4038C124.184 16.7839 123.625 16.139 122.861 15.6295C122.104 15.1129 121.135 14.7816 120.237 14.7246C119.339 14.6569 118.465 14.7531 117.723 14.9633L117.433 15.0381L117.012 15.1949L116.909 15.234L116.856 15.2554C116.856 15.2554 116.782 15.291 116.747 15.3089C116.58 15.3944 116.418 15.487 116.259 15.5868L116.022 15.74L115.862 15.8647L115.562 16.1105C115.357 16.2815 115.219 16.4418 115.046 16.6129C114.43 17.2862 114.002 17.9454 113.617 18.6045C112.874 19.9121 112.326 21.2161 111.842 22.5414C111.357 23.8668 110.936 25.2136 110.544 26.5817C109.769 29.3144 109.122 32.1362 108.539 35.0043C107.955 37.8723 107.442 40.7832 106.976 43.7012C106.371 47.5063 103.669 71.4165 103.351 75.9057C103.04 80.3236 102.859 84.0325 102.771 86.6476C102.682 89.2628 102.672 90.7841 102.672 90.7841V90.9052C102.672 91.1297 102.679 91.3577 102.704 91.5857C103.061 95.1379 106.212 97.7245 109.734 97.3647C113.26 97.0048 115.827 93.8339 115.47 90.2817C115.47 90.2817 115.332 88.9029 115.155 86.4339C114.978 83.9684 114.773 80.4127 114.625 76.1194C114.427 70.3334 114.317 63.2042 114.455 55.6652C114.996 55.4122 115.534 55.1557 116.085 54.9099C117.691 54.1581 119.353 53.4669 121.001 52.7543C122.67 52.0845 124.321 51.3898 125.98 50.7805C127.624 50.1392 129.265 49.5727 130.846 49.0098C132.441 48.4825 133.969 47.9481 135.44 47.5063C136.907 47.0502 138.29 46.6262 139.581 46.2735C140.224 46.0918 140.84 45.9172 141.427 45.7533C142.017 45.6001 142.576 45.4541 143.099 45.3187C144.15 45.0408 145.066 44.8092 145.822 44.6346C147.336 44.2748 148.202 44.0681 148.202 44.0681L148.291 44.0467C148.457 44.0076 148.62 43.9577 148.782 43.9007C151.24 43.0206 152.524 40.3058 151.654 37.8296C150.784 35.3534 148.086 34.0601 145.628 34.9366" fill="white"/>
<path d="M93.9865 36.4951C97.873 40.3216 94.2942 46.6243 89.0569 45.1813C88.5795 45.0495 88.1374 44.793 87.7802 44.4438C83.8938 40.6173 87.4726 34.3147 92.7099 35.7576C93.1873 35.8894 93.6294 36.146 93.9865 36.4951Z" fill="#FDD825"/>
<path d="M117.82 89.5188C117.767 89.5188 117.721 89.4797 117.717 89.4191L117.703 88.7885C117.703 88.735 117.749 88.6887 117.802 88.6851L120.606 88.6174L120.575 87.3598C120.575 87.3028 120.621 87.26 120.674 87.2564L121.247 87.2422C121.3 87.2422 121.349 87.2814 121.349 87.3419L121.395 89.33C121.395 89.387 121.349 89.4333 121.3 89.4333L117.823 89.5188H117.82Z" fill="#FDD825"/>
<path d="M121.19 86.8191L117.615 85.2479C117.583 85.2336 117.558 85.198 117.555 85.1588V85.1054C117.555 85.0697 117.579 85.0306 117.608 85.0127L121.102 83.2705C121.169 83.2349 121.236 83.2776 121.24 83.356L121.254 83.9439C121.254 84.0401 121.225 84.0828 121.126 84.1327L120.716 84.3322L120.752 85.7716L121.176 85.9533C121.24 85.9783 121.303 86.0353 121.307 86.1386L121.321 86.7193C121.321 86.7977 121.254 86.844 121.187 86.812M120.009 84.6636L119.153 85.0876L120.03 85.4688L120.012 84.6636H120.009Z" fill="#FDD825"/>
<path d="M117.656 82.7083C117.603 82.7083 117.557 82.662 117.553 82.6085L117.539 81.9743C117.539 81.9209 117.585 81.8746 117.638 81.871L121.114 81.7891C121.164 81.7891 121.213 81.8354 121.217 81.8853L121.231 82.5194C121.231 82.5729 121.185 82.6228 121.136 82.6228L117.659 82.7083H117.656Z" fill="#FDD825"/>
<path d="M117.413 79.115C117.399 78.5841 117.555 78.1922 117.87 77.8216C117.912 77.7753 117.972 77.7718 118.018 77.8145L118.453 78.2171C118.488 78.2527 118.492 78.3098 118.453 78.3489C118.283 78.5485 118.195 78.8121 118.202 79.0686C118.216 79.6672 118.722 80.0947 119.309 80.0805C119.892 80.0662 120.363 79.6102 120.348 79.0116C120.341 78.7622 120.246 78.495 120.08 78.3098C120.048 78.2741 120.048 78.2029 120.08 78.1708L120.504 77.7468C120.539 77.7076 120.607 77.7112 120.646 77.7468C120.999 78.096 121.176 78.5485 121.187 79.0188C121.211 80.0769 120.398 80.9498 119.348 80.9748C118.297 80.9997 117.431 80.1696 117.406 79.1114" fill="#FDD825"/>
<path d="M120.963 77.3723L117.388 75.8011C117.356 75.7868 117.332 75.7512 117.328 75.712V75.6586C117.328 75.623 117.353 75.5838 117.381 75.5659L120.875 73.8237C120.942 73.7917 121.013 73.8308 121.013 73.9092L121.027 74.4971C121.027 74.5933 120.999 74.636 120.9 74.6859L120.49 74.8854L120.525 76.3248L120.949 76.503C121.013 76.5279 121.077 76.5849 121.08 76.6918L121.094 77.2725C121.094 77.3509 121.027 77.3972 120.96 77.3652M119.782 75.2168L118.927 75.6408L119.804 76.022L119.786 75.2168H119.782Z" fill="#FDD825"/>
</g>
<defs>
<clipPath id="clip0_281_71">
<rect width="202" height="123" fill="white" transform="translate(0.203125)"/>
</clipPath>
</defs>
</svg>
