<svg width="87" height="87" viewBox="0 0 87 87" fill="none" xmlns="http://www.w3.org/2000/svg">
<path d="M43.3015 86.2123C66.7118 86.2123 86.103 66.8626 86.103 43.4109C86.103 20.0006 66.7118 0.609375 43.26 0.609375C19.8497 0.609375 0.5 20.0006 0.5 43.4109C0.5 66.8626 19.8912 86.2123 43.3015 86.2123ZM43.26 56.5455C42.3485 56.5455 41.5198 56.1726 40.8154 55.4682L26.645 41.1734C26.0234 40.5105 25.6505 39.5989 25.6505 38.8117C25.6505 36.9057 26.935 35.6212 28.7581 35.6212C29.7525 35.6212 30.5398 35.9113 31.1198 36.6157L33.6059 39.2674L40.484 47.0571L39.9867 39.6818V21.8237C39.9867 19.8763 41.2712 18.5089 43.26 18.5089C45.166 18.5089 46.4919 19.8763 46.4919 21.8237V39.6818L46.0361 47.0156L52.8313 39.3089L55.4831 36.6157C56.1461 35.9527 56.9748 35.6212 57.8863 35.6212C59.668 35.6212 60.9939 36.9886 60.9939 38.8117C60.9939 39.6818 60.6624 40.469 59.9166 41.2148L45.7047 55.4682C45.0417 56.1311 44.213 56.5455 43.26 56.5455ZM27.5565 65.9925C25.7334 65.9925 24.3661 64.6251 24.3661 62.7192C24.3661 60.9375 25.7334 59.5702 27.5565 59.5702H59.0465C60.8696 59.5702 62.2369 60.9375 62.2369 62.7192C62.2369 64.6251 60.8696 65.9925 59.0465 65.9925H27.5565Z" fill="#FFFDD7"/>
</svg>
