<svg width="929" height="597" viewBox="0 0 929 597" fill="none" xmlns="http://www.w3.org/2000/svg">
<rect x="331.047" y="0.5" width="68.3438" height="68.3438" rx="13" fill="#87C700"/>
<path d="M354.28 57.0467H376.155C379.658 57.0467 381.935 54.8475 381.935 51.4612V17.8901C381.935 14.5233 379.658 12.3047 376.155 12.3047H354.28C350.777 12.3047 348.5 14.5233 348.5 17.8901V51.4612C348.5 54.8475 350.777 57.0467 354.28 57.0467ZM354.806 53.2322C353.21 53.2322 352.314 52.3564 352.314 50.8385V18.5129C352.314 16.9949 353.21 16.1191 354.806 16.1191H375.649C377.245 16.1191 378.12 16.9949 378.12 18.5129V50.8385C378.12 52.3564 377.245 53.2322 375.649 53.2322H354.806ZM357.433 23.8064C358.795 23.8064 359.982 22.6193 359.982 21.1791C359.982 19.7779 358.795 18.6102 357.433 18.6102C355.973 18.6102 354.806 19.7779 354.806 21.1791C354.806 22.6193 355.973 23.8064 357.433 23.8064Z" fill="#FFFDD7"/>
<rect x="430.828" y="0.5" width="68.3438" height="68.3438" rx="13" fill="#87C700"/>
<path d="M447.323 46.5492H482.696C485.875 46.5492 487.58 44.8197 487.58 41.577V20.8237C487.58 17.581 485.875 15.8516 482.696 15.8516H447.323C444.127 15.8516 442.422 17.581 442.422 20.8237V41.577C442.422 44.8197 444.127 46.5492 447.323 46.5492ZM447.518 43.1083C446.382 43.1083 445.814 42.5498 445.814 41.3789V21.0219C445.814 19.8509 446.382 19.2924 447.518 19.2924H482.483C483.62 19.2924 484.188 19.8509 484.188 21.0219V41.3789C484.188 42.5498 483.62 43.1083 482.483 43.1083H447.518ZM465.862 38.3704C466.199 38.3704 466.448 38.1181 466.519 37.7759C467.46 32.4975 467.975 31.5427 473.338 30.8221C473.711 30.768 473.96 30.4978 473.96 30.1375C473.96 29.7772 473.711 29.507 473.338 29.4529C468.011 28.7323 467.318 27.7235 466.519 22.5351C466.466 22.1748 466.199 21.9226 465.862 21.9226C465.507 21.9226 465.24 22.1568 465.169 22.5171C464.246 27.7955 463.713 28.7143 458.368 29.4529C457.995 29.507 457.747 29.7772 457.747 30.1375C457.747 30.4978 457.995 30.75 458.368 30.8221C463.696 31.4346 464.388 32.4794 465.169 37.7578C465.24 38.1181 465.489 38.3704 465.862 38.3704ZM458.812 41.2888C459.061 41.2888 459.256 41.1267 459.309 40.8564C459.771 38.2623 459.629 38.1542 462.417 37.7038C462.683 37.6678 462.843 37.4516 462.843 37.1994C462.843 36.9472 462.666 36.731 462.417 36.695C459.629 36.2446 459.771 36.1365 459.309 33.5784C459.256 33.3081 459.079 33.11 458.812 33.11C458.546 33.11 458.368 33.2901 458.297 33.5784C457.818 36.1185 457.995 36.2086 455.19 36.695C454.923 36.731 454.763 36.9472 454.763 37.1994C454.763 37.4876 454.923 37.6678 455.243 37.7038C457.995 38.1362 457.818 38.2442 458.297 40.8204C458.368 41.1086 458.528 41.2888 458.812 41.2888ZM455.918 52.8364H474.084C474.972 52.8364 475.7 52.0978 475.7 51.2151C475.7 50.3143 474.972 49.5757 474.084 49.5757H455.918C455.03 49.5757 454.32 50.3143 454.32 51.2151C454.32 52.0978 455.03 52.8364 455.918 52.8364Z" fill="#00943B"/>
<rect x="530.609" y="0.5" width="68.3438" height="68.3438" rx="13" fill="#87C700"/>
<path d="M556.814 57.2821H572.851C576.319 57.2821 578.625 54.9825 578.625 51.5642V17.671C578.625 14.2527 576.319 11.9531 572.851 11.9531H556.814C553.304 11.9531 550.938 14.2527 550.938 17.671V51.5642C550.938 54.9825 553.304 57.2821 556.814 57.2821ZM557.487 53.118C555.875 53.118 554.937 52.2064 554.937 50.6319V18.6033C554.937 17.0288 555.875 16.138 557.487 16.138H572.096C573.707 16.138 574.646 17.0288 574.646 18.6033V50.6319C574.646 52.2064 573.707 53.118 572.096 53.118H568.097V52.3929C568.097 51.4813 567.505 50.8805 566.628 50.8805H562.975C562.078 50.8805 561.506 51.4813 561.506 52.3929V53.118H557.487Z" fill="#FFFDD7"/>
<rect x="928.367" y="113.617" width="482.883" height="927.844" rx="48" transform="rotate(90 928.367 113.617)" fill="#87C700"/>
<path d="M404.548 230.248H521.398C520.572 219.636 514.323 213.977 502.886 213.977H423.06C411.623 213.977 405.374 219.636 404.548 230.248ZM383.914 264.56H541.207C539.556 253.359 533.896 246.874 521.162 246.874H403.959C391.342 246.874 385.565 253.359 383.914 264.56ZM397.238 496.137H534.604C557.243 496.137 570.449 482.931 570.449 457.698V322.454C570.449 297.221 557.125 284.015 531.656 284.015H397.238C371.769 284.015 358.445 297.221 358.445 322.454V457.698C358.445 482.931 371.769 496.137 397.238 496.137ZM426.362 420.792C405.138 420.792 388.984 432.229 381.91 445.789V324.577C381.91 313.139 387.923 307.598 398.771 307.598H530.123C540.971 307.598 546.984 313.139 546.984 324.577V442.016C538.141 430.342 522.105 420.91 500.881 420.91C467.513 420.91 446.407 444.728 446.407 463.475C446.407 467.484 447.35 470.55 448.883 472.554H433.908C432.965 469.725 432.493 466.541 432.493 463.24C432.493 449.798 438.978 436.592 450.062 426.451C443.813 422.796 435.795 420.792 426.362 420.792ZM500.881 407.468C515.031 407.468 526.822 394.969 526.822 378.816C526.822 362.898 515.031 350.871 500.881 350.871C486.968 350.871 474.823 363.251 474.941 378.933C474.941 394.969 486.85 407.468 500.881 407.468ZM426.362 409.001C438.625 409.001 449.001 398.035 449.001 384.004C449.001 370.09 438.625 359.714 426.362 359.714C414.099 359.714 403.605 370.326 403.723 384.004C403.723 398.035 414.099 409.001 426.362 409.001Z" fill="#A1DB04"/>
<path d="M872.535 569.344C889.142 569.344 902.898 555.617 902.898 538.98C902.898 522.373 889.142 508.617 872.506 508.617C855.899 508.617 842.172 522.373 842.172 538.98C842.172 555.617 855.928 569.344 872.535 569.344ZM872.506 548.298C871.859 548.298 871.271 548.034 870.772 547.534L860.719 537.393C860.278 536.923 860.014 536.276 860.014 535.718C860.014 534.366 860.925 533.455 862.218 533.455C862.924 533.455 863.482 533.66 863.894 534.16L865.657 536.041L870.536 541.567L870.184 536.335V523.667C870.184 522.285 871.095 521.315 872.506 521.315C873.858 521.315 874.798 522.285 874.798 523.667V536.335L874.475 541.538L879.296 536.071L881.177 534.16C881.647 533.69 882.235 533.455 882.882 533.455C884.146 533.455 885.086 534.425 885.086 535.718C885.086 536.335 884.851 536.894 884.322 537.423L874.24 547.534C873.77 548.004 873.182 548.298 872.506 548.298ZM861.366 555C860.072 555 859.102 554.03 859.102 552.678C859.102 551.414 860.072 550.444 861.366 550.444H883.705C884.998 550.444 885.968 551.414 885.968 552.678C885.968 554.03 884.998 555 883.705 555H861.366Z" fill="#FFFDD7"/>
</svg>
