<?xml version="1.0" encoding="UTF-8"?>
<svg id="Layer_2" data-name="Layer 2" xmlns="http://www.w3.org/2000/svg" xmlns:xlink="http://www.w3.org/1999/xlink" viewBox="0 0 1082.99 1685.13">
  <defs>
    <style>
      .cls-1 {
        clip-path: url(#clippath);
      }

      .cls-2 {
        fill: none;
      }

      .cls-2, .cls-3 {
        stroke-width: 0px;
      }

      .cls-4 {
        clip-path: url(#clippath-1);
      }

      .cls-3 {
        fill: #3304f7;
      }
    </style>
    <clipPath id="clippath">
      <rect class="cls-2" width="1082.99" height="1685.13"/>
    </clipPath>
    <clipPath id="clippath-1">
      <rect class="cls-2" x="0" y="-76.06" width="1082.99" height="1761.2"/>
    </clipPath>
  </defs>
  <g id="Layer_2-2" data-name="Layer 2">
    <g class="cls-1">
      <g id="Layer_1-2" data-name="Layer 1-2">
        <g class="cls-4">
          <g>
            <path class="cls-3" d="m935.97,190.65c-6.04,0-11.98,1.07-17.83,3.09,4.13-9.69,6.32-19.69,6.32-29.91C924.46,73.31,755.04-.07,546.03-.07S167.6,73.32,167.6,163.81c0,12.11,3.05,23.88,8.81,35.23-9.49-5.51-19.3-8.42-29.35-8.42C65.84,190.65,0,379.46,0,612.39s65.84,421.75,147.04,421.75c7.44,0,14.73-1.61,21.87-4.65-.86,4.5-1.33,9.07-1.33,13.67,0,90.53,169.42,163.88,378.43,163.88s378.43-73.38,378.43-163.88c0-3.53-.28-7.02-.79-10.5,4.06.96,8.16,1.48,12.31,1.48,81.22,0,147.04-188.82,147.04-421.75s-65.84-421.75-147.04-421.75h.02-.01Zm-714.42,58.1c-.19-.31-.37-.65-.58-.96.44.31.89.65,1.33.96h-.75Z"/>
            <rect class="cls-3" x="0" y="514.22" width="1082.99" height="1170.91"/>
          </g>
        </g>
      </g>
    </g>
  </g>
</svg>